<svg width="55" height="52" viewBox="0 0 55 52" fill="none" xmlns="http://www.w3.org/2000/svg">
<path d="M41.9947 51.4243C41.356 51.4243 40.7205 51.2283 40.1734 50.8378L27.3122 41.6143L14.4509 50.8378C13.918 51.2211 13.2776 51.4263 12.6212 51.424C11.9648 51.4218 11.3258 51.2122 10.7956 50.8251C10.265 50.4403 9.86912 49.898 9.66447 49.2752C9.45982 48.6525 9.45677 47.981 9.65576 47.3564L14.4525 31.8755L1.70659 22.8939C1.17835 22.5041 0.786055 21.958 0.585183 21.333C0.384312 20.708 0.385036 20.0356 0.587253 19.411C0.791065 18.788 1.18554 18.2447 1.71492 17.858C2.2443 17.4713 2.88181 17.2608 3.53736 17.2562L19.3235 17.2324L24.3494 2.13565C24.5568 1.51373 24.9546 0.97283 25.4865 0.58954C26.0184 0.206249 26.6574 0 27.3129 0C27.9685 0 28.6075 0.206249 29.1394 0.58954C29.6713 0.97283 30.0691 1.51373 30.2765 2.13565L35.2171 17.2324L51.0838 17.2562C51.7401 17.2599 52.3786 17.4703 52.9085 17.8575C53.4384 18.2448 53.8328 18.7892 54.0357 19.4134C54.2386 20.0376 54.2396 20.7099 54.0386 21.3347C53.8376 21.9595 53.4449 22.5051 52.9161 22.8939L40.1703 31.8755L44.967 47.3564C45.1664 47.9809 45.1637 48.6523 44.9593 49.2751C44.7549 49.8978 44.3593 50.4403 43.8287 50.8251C43.2968 51.2152 42.6543 51.4252 41.9947 51.4243Z" fill="#FFAC33"/>
</svg>
