<svg width="36" height="36" viewBox="0 0 36 36" fill="none" xmlns="http://www.w3.org/2000/svg">
<path d="M28.5 15.0001H27M22.5 19.5001C22.5 21.9854 20.4853 24.0001 18 24.0001C15.5147 24.0001 13.5 21.9854 13.5 19.5001C13.5 17.0148 15.5147 15.0001 18 15.0001C20.4853 15.0001 22.5 17.0148 22.5 19.5001ZM14.667 31.5001H21.333C26.0145 31.5001 28.356 31.5001 30.0375 30.3976C30.7632 29.9223 31.3881 29.3086 31.8765 28.5916C33 26.9416 33 24.6421 33 20.0461C33 15.4501 33 13.1506 31.8765 11.5006C31.3881 10.7836 30.7632 10.1699 30.0375 9.69457C28.9575 8.98507 27.6045 8.73157 25.533 8.64157C24.5445 8.64157 23.694 7.90657 23.5005 6.95407C23.3526 6.25637 22.9684 5.63112 22.4128 5.184C21.8571 4.73687 21.1642 4.49528 20.451 4.50007H15.549C14.067 4.50007 12.7905 5.52757 12.4995 6.95407C12.306 7.90657 11.4555 8.64157 10.467 8.64157C8.397 8.73157 7.044 8.98657 5.9625 9.69457C5.2373 10.17 4.61291 10.7837 4.125 11.5006C3 13.1506 3 15.4486 3 20.0461C3 24.6436 3 26.9401 4.1235 28.5916C4.6095 29.3056 5.2335 29.9191 5.9625 30.3976C7.644 31.5001 9.9855 31.5001 14.667 31.5001Z" stroke="#252525" stroke-opacity="0.3" stroke-width="2" stroke-linecap="round"/>
</svg>
