<svg width="18" height="18" viewBox="0 0 18 18" fill="none" xmlns="http://www.w3.org/2000/svg">
<g opacity="0.7">
<path d="M8.66796 2.25C8.87243 2.25021 9.0691 2.32407 9.21779 2.45646C9.36647 2.58886 9.45595 2.76982 9.46793 2.96236C9.47992 3.15489 9.4135 3.34448 9.28226 3.49238C9.15102 3.64028 8.96486 3.73533 8.76182 3.75811L8.66796 3.7634H4.65673C4.46024 3.76343 4.27058 3.83147 4.12374 3.95463C3.97691 4.07779 3.88309 4.2475 3.8601 4.43157L3.85449 4.52011V13.6005C3.85451 13.7859 3.92666 13.9648 4.05723 14.1033C4.1878 14.2418 4.36772 14.3303 4.56287 14.3519L4.65673 14.3572H8.26683C8.47131 14.3574 8.66798 14.4313 8.81667 14.5637C8.96535 14.6961 9.05483 14.8771 9.06681 15.0696C9.07879 15.2621 9.01238 15.4517 8.88114 15.5996C8.7499 15.7475 8.56374 15.8426 8.3607 15.8653L8.26683 15.8706H4.65673C4.04285 15.8707 3.45215 15.6494 3.0055 15.2522C2.55886 14.855 2.29003 14.3118 2.25401 13.7337L2.25 13.6005V4.52011C2.24997 3.94107 2.48452 3.38391 2.90566 2.96262C3.32681 2.54133 3.90271 2.28775 4.51554 2.25378L4.65673 2.25H8.66796ZM13.2464 6.38462L15.5151 8.52533C15.6655 8.66723 15.75 8.85967 15.75 9.06032C15.75 9.26097 15.6655 9.45341 15.5151 9.59531L13.2464 11.736C13.0958 11.8779 12.8917 11.9576 12.6789 11.9575C12.4661 11.9574 12.262 11.8776 12.1116 11.7356C11.9612 11.5937 11.8767 11.4011 11.8768 11.2004C11.8768 10.9997 11.9615 10.8072 12.112 10.6653L13.0113 9.81702H8.66796C8.45519 9.81702 8.25113 9.7373 8.10068 9.59539C7.95023 9.45348 7.86571 9.26101 7.86571 9.06032C7.86571 8.85963 7.95023 8.66716 8.10068 8.52525C8.25113 8.38334 8.45519 8.30362 8.66796 8.30362H13.0113L12.112 7.45535C11.9615 7.31347 11.8768 7.12099 11.8768 6.92026C11.8767 6.71953 11.9612 6.52699 12.1116 6.385C12.262 6.24301 12.4661 6.1632 12.6789 6.16313C12.8917 6.16306 13.0958 6.24273 13.2464 6.38462Z" fill="#252525"/>
</g>
</svg>
