<svg width="16" height="17" viewBox="0 0 16 17" fill="none" xmlns="http://www.w3.org/2000/svg">
<g opacity="0.8">
<path d="M10.52 10.5266L10.824 10.2246L10.118 9.51526L9.81537 9.81726L10.52 10.5266ZM11.8434 10.0979L13.1174 10.7906L13.594 9.91192L12.3207 9.21992L11.8434 10.0979ZM13.362 12.1666L12.4154 13.1086L13.12 13.8173L14.0667 12.8759L13.362 12.1666ZM11.838 13.4113C10.8714 13.5019 8.37137 13.4213 5.66337 10.7293L4.95804 11.4379C7.9127 14.3759 10.7254 14.5199 11.9314 14.4073L11.838 13.4113ZM5.66337 10.7293C3.0827 8.16259 2.6547 6.00459 2.60137 5.06792L1.6027 5.12459C1.66937 6.30326 2.19937 8.69526 4.95804 11.4379L5.66337 10.7293ZM6.58004 6.60926L6.77137 6.41859L6.06737 5.70992L5.87604 5.89992L6.58004 6.60926ZM6.92337 3.99526L6.08337 2.87259L5.2827 3.47259L6.1227 4.59459L6.92337 3.99526ZM3.25603 2.62792L2.20937 3.66792L2.9147 4.37726L3.9607 3.33726L3.25603 2.62792ZM6.22803 6.25459C5.8747 5.89992 5.8747 5.89992 5.8747 5.90126H5.87337L5.87137 5.90392C5.83969 5.93587 5.81132 5.97093 5.7867 6.00859C5.7507 6.06192 5.71137 6.13192 5.67804 6.22059C5.59689 6.44947 5.57667 6.69553 5.61937 6.93459C5.7087 7.51126 6.10604 8.27326 7.12337 9.28526L7.8287 8.57592C6.87604 7.62926 6.64937 7.05326 6.60737 6.78126C6.58737 6.65192 6.60804 6.58792 6.61404 6.57326C6.61804 6.56437 6.61804 6.56303 6.61404 6.56926C6.60809 6.57846 6.6014 6.58715 6.59404 6.59526L6.58737 6.60192L6.5807 6.60792L6.22803 6.25459ZM7.12337 9.28526C8.14137 10.2973 8.90737 10.6919 9.4847 10.7799C9.78004 10.8253 10.018 10.7893 10.1987 10.7219C10.2999 10.6849 10.3945 10.6318 10.4787 10.5646L10.512 10.5346L10.5167 10.5306L10.5187 10.5286L10.5194 10.5273C10.5194 10.5273 10.52 10.5266 10.1674 10.1719C9.81404 9.81726 9.81604 9.81659 9.81604 9.81659L9.81737 9.81526L9.8187 9.81392L9.8227 9.81059L9.82937 9.80392L9.8547 9.78392C9.86092 9.77992 9.85937 9.78037 9.85003 9.78526C9.83337 9.79126 9.76803 9.81192 9.6367 9.79192C9.3607 9.74926 8.7807 9.52259 7.8287 8.57592L7.12337 9.28526ZM6.08337 2.87192C5.40337 1.96526 4.06737 1.82126 3.25603 2.62792L3.9607 3.33726C4.31537 2.98459 4.9447 3.02126 5.2827 3.47259L6.08337 2.87192ZM2.60203 5.06859C2.5887 4.83792 2.6947 4.59659 2.9147 4.37792L2.2087 3.66859C1.8507 4.02459 1.5687 4.52859 1.6027 5.12459L2.60203 5.06859ZM12.4154 13.1086C12.2327 13.2913 12.0354 13.3939 11.8387 13.4119L11.9314 14.4073C12.4214 14.3613 12.822 14.1146 13.1207 13.8179L12.4154 13.1086ZM6.77137 6.41859C7.42803 5.76592 7.4767 4.73459 6.92404 3.99592L6.12337 4.59526C6.39204 4.95459 6.35204 5.42592 6.0667 5.71059L6.77137 6.41859ZM13.118 10.7913C13.6627 11.0873 13.7474 11.7846 13.3627 12.1673L14.068 12.8759C14.9614 11.9873 14.686 10.5053 13.5947 9.91259L13.118 10.7913ZM10.824 10.2253C11.08 9.97059 11.492 9.90792 11.844 10.0986L12.3214 9.22059C11.5987 8.82726 10.7027 8.93592 10.1187 9.51592L10.824 10.2253Z" fill="#252525"/>
<path d="M10.1674 10.1719L9.81537 9.81726M10.1674 10.1719C10.52 10.5266 10.5194 10.5273 10.5194 10.5273L10.5187 10.5286L10.5167 10.5306L10.512 10.5346L10.4787 10.5646C10.3945 10.6318 10.2999 10.6849 10.1987 10.7219C10.018 10.7893 9.78004 10.8253 9.4847 10.7799C8.90737 10.6919 8.14137 10.2973 7.12337 9.28526M10.1674 10.1719C9.81404 9.81726 9.81604 9.81659 9.81604 9.81659L9.81737 9.81526L9.8187 9.81392L9.8227 9.81059L9.82937 9.80392L9.8547 9.78392C9.86092 9.77992 9.85937 9.78037 9.85003 9.78526C9.83337 9.79126 9.76804 9.81192 9.6367 9.79192C9.3607 9.74926 8.7807 9.52259 7.8287 8.57592M9.81537 9.81726L10.118 9.51526L10.824 10.2246M9.81537 9.81726L10.52 10.5266L10.824 10.2246M10.4714 9.86992L10.824 10.2246M12.0827 9.65859L11.844 10.0986M11.844 10.0986C11.492 9.90792 11.08 9.97059 10.824 10.2253L10.1187 9.51592C10.7027 8.93592 11.5987 8.82726 12.3214 9.22059L11.844 10.0986ZM13.356 10.3513L13.1174 10.7906M13.1174 10.7906L11.8434 10.0979L12.3207 9.21992L13.594 9.91192L13.1174 10.7906ZM13.7154 12.5213L14.068 12.8759M14.068 12.8759L13.3627 12.1673C13.7474 11.7846 13.6627 11.0873 13.118 10.7913L13.5947 9.91259C14.686 10.5053 14.9614 11.9873 14.068 12.8759ZM12.7687 13.4626L12.4154 13.1086M12.4154 13.1086L13.362 12.1666L14.0667 12.8759L13.12 13.8173L12.4154 13.1086ZM12.4154 13.1086C12.2327 13.2913 12.0354 13.3939 11.8387 13.4119L11.9314 14.4073M12.4154 13.1086L13.1207 13.8179C12.822 14.1146 12.4214 14.3613 11.9314 14.4073M11.8847 13.9093L11.9314 14.4073M11.9314 14.4073C10.7254 14.5199 7.9127 14.3759 4.95804 11.4379M11.9314 14.4073L11.838 13.4113C10.8714 13.5019 8.37137 13.4213 5.66337 10.7293M5.31137 11.0839L5.66337 10.7293M5.66337 10.7293L4.95804 11.4379M5.66337 10.7293C3.0827 8.16259 2.6547 6.00459 2.60137 5.06792L1.6027 5.12459M2.10203 5.09659L1.6027 5.12459M1.6027 5.12459C1.66937 6.30326 2.19937 8.69526 4.95804 11.4379M1.6027 5.12459C1.5687 4.52859 1.8507 4.02459 2.2087 3.66859M1.6027 5.12459L2.60203 5.06859C2.5887 4.83792 2.6947 4.59659 2.9147 4.37792L2.2087 3.66859M6.41804 6.06392L6.77137 6.41859M6.77137 6.41859L6.58004 6.60926L5.87604 5.89992L6.06737 5.70992L6.77137 6.41859ZM6.77137 6.41859C7.42803 5.76592 7.4767 4.73459 6.92403 3.99592L6.12337 4.59526C6.39204 4.95459 6.35204 5.42592 6.0667 5.71059L6.77137 6.41859ZM6.5227 4.29459L6.9227 3.99526M5.68337 3.17259L5.2827 3.47259M5.2827 3.47259L6.08337 2.87259L6.92337 3.99526L6.1227 4.59459L5.2827 3.47259ZM5.2827 3.47259C4.9447 3.02126 4.31537 2.98459 3.9607 3.33726M5.2827 3.47259L6.08337 2.87192C5.40337 1.96526 4.06737 1.82126 3.25603 2.62792M3.60737 2.98259L3.9607 3.33726M3.9607 3.33726L2.9147 4.37726L2.20937 3.66792L3.25603 2.62792M3.9607 3.33726L3.25603 2.62792M2.5607 4.02259L2.2087 3.66859M7.47537 8.93059L7.82803 8.57592M7.12337 9.28526C6.10604 8.27326 5.7087 7.51126 5.61937 6.93459C5.57667 6.69553 5.59689 6.44947 5.67804 6.22059C5.71137 6.13192 5.7507 6.06192 5.7867 6.00859C5.81132 5.97093 5.83969 5.93587 5.87137 5.90392L5.87337 5.90126H5.8747C5.8747 5.89992 5.8747 5.89992 6.22804 6.25459L6.5807 6.60792L6.58737 6.60192L6.59403 6.59526C6.6014 6.58715 6.60809 6.57846 6.61404 6.56926C6.61804 6.56303 6.61804 6.56437 6.61404 6.57326C6.60804 6.58792 6.58737 6.65192 6.60737 6.78126C6.64937 7.05326 6.87604 7.62926 7.8287 8.57592M7.12337 9.28526L7.8287 8.57592" stroke="#252525" stroke-width="0.266667"/>
</g>
</svg>
