<svg width="54" height="52" viewBox="0 0 54 52" fill="none" xmlns="http://www.w3.org/2000/svg">
<path d="M41.8062 51.4243C41.1675 51.4243 40.532 51.2283 39.985 50.8378L27.1237 41.6143L14.2624 50.8378C13.7295 51.2211 13.0892 51.4263 12.4327 51.424C11.7763 51.4218 11.1374 51.2122 10.6072 50.8251C10.0765 50.4403 9.68064 49.898 9.47599 49.2752C9.27134 48.6525 9.26829 47.981 9.46728 47.3564L14.264 31.8755L1.51811 22.8939C0.989876 22.5041 0.597578 21.958 0.396707 21.333C0.195836 20.708 0.19656 20.0356 0.398777 19.411C0.602589 18.788 0.997061 18.2447 1.52644 17.858C2.05582 17.4713 2.69334 17.2608 3.34889 17.2562L19.135 17.2324L24.1609 2.13565C24.3683 1.51373 24.7661 0.97283 25.298 0.589539C25.8299 0.206249 26.4689 0 27.1245 0C27.7801 0 28.419 0.206249 28.9509 0.589539C29.4828 0.97283 29.8806 1.51373 30.088 2.13565L35.0286 17.2324L50.8953 17.2562C51.5516 17.2599 52.1901 17.4703 52.72 17.8575C53.2499 18.2448 53.6443 18.7892 53.8472 19.4134C54.0501 20.0376 54.0511 20.7099 53.8501 21.3347C53.6492 21.9595 53.2564 22.5051 52.7277 22.8939L39.9818 31.8755L44.7785 47.3564C44.9779 47.9809 44.9752 48.6523 44.7708 49.2751C44.5664 49.8978 44.1708 50.4403 43.6402 50.8251C43.1084 51.2152 42.4658 51.4252 41.8062 51.4243Z" fill="#CEC9C1"/>
</svg>
