<svg width="14" height="15" viewBox="0 0 14 15" fill="none" xmlns="http://www.w3.org/2000/svg">
<g opacity="0.8">
<path d="M6.95771 0.841797C6.25437 0.841797 5.56683 1.05173 4.98202 1.44506C4.39721 1.83838 3.94141 2.39743 3.67226 3.05151C3.4031 3.70559 3.33268 4.42531 3.46989 5.11968C3.60711 5.81404 3.9458 6.45186 4.44313 6.95246C4.94047 7.45307 5.57411 7.79399 6.26394 7.93211C6.95377 8.07023 7.66879 7.99934 8.31859 7.72841C8.96839 7.45748 9.52379 6.99868 9.91454 6.41003C10.3053 5.82138 10.5139 5.12931 10.5139 4.42134C10.5139 3.47199 10.1392 2.56152 9.47229 1.89022C8.80538 1.21893 7.90086 0.841797 6.95771 0.841797ZM6.95771 6.56907C6.53571 6.56907 6.12318 6.44311 5.7723 6.20711C5.42141 5.97112 5.14793 5.63569 4.98644 5.24324C4.82494 4.8508 4.78269 4.41896 4.86502 4.00234C4.94735 3.58572 5.15056 3.20303 5.44896 2.90267C5.74737 2.6023 6.12755 2.39775 6.54145 2.31488C6.95534 2.23201 7.38436 2.27454 7.77424 2.4371C8.16412 2.59966 8.49736 2.87494 8.73181 3.22813C8.96626 3.58132 9.0914 3.99656 9.0914 4.42134C9.0914 4.99096 8.8666 5.53724 8.46646 5.94002C8.06631 6.34279 7.5236 6.56907 6.95771 6.56907ZM13.3588 14.4441V13.7282C13.3588 12.3991 12.8342 11.1244 11.9006 10.1846C10.9669 9.24478 9.70058 8.7168 8.38017 8.7168H5.53525C4.21484 8.7168 2.94851 9.24478 2.01484 10.1846C1.08117 11.1244 0.556641 12.3991 0.556641 13.7282V14.4441H1.9791V13.7282C1.9791 12.7788 2.35377 11.8683 3.02067 11.197C3.68758 10.5257 4.5921 10.1486 5.53525 10.1486H8.38017C9.32332 10.1486 10.2278 10.5257 10.8947 11.197C11.5617 11.8683 11.9363 12.7788 11.9363 13.7282V14.4441H13.3588Z" fill="#252525"/>
</g>
</svg>
