<svg width="24" height="24" viewBox="0 0 24 24" fill="none" xmlns="http://www.w3.org/2000/svg">
<path d="M23.3238 5.83117L18.1675 0.675675C17.7348 0.243041 17.148 0 16.5361 0C15.9242 0 15.3374 0.243041 14.9046 0.675675L0.676127 14.904C0.461115 15.1178 0.290642 15.372 0.174584 15.6521C0.0585251 15.9321 -0.000812471 16.2325 8.4018e-06 16.5356V21.6923C8.4018e-06 22.3043 0.243127 22.8913 0.675881 23.3241C1.10863 23.7569 1.69557 24 2.30758 24H21.6912C22.0584 24 22.4106 23.8541 22.6702 23.5944C22.9299 23.3348 23.0757 22.9826 23.0757 22.6154C23.0757 22.2481 22.9299 21.8959 22.6702 21.6363C22.4106 21.3766 22.0584 21.2307 21.6912 21.2307H11.1917L23.3238 9.09546C23.5382 8.88116 23.7082 8.62671 23.8243 8.34666C23.9403 8.06662 24 7.76645 24 7.46331C24 7.16018 23.9403 6.86001 23.8243 6.57996C23.7082 6.29992 23.5382 6.04547 23.3238 5.83117ZM7.26886 21.2307H2.7691V16.7306L12.4609 7.03811L16.9607 11.5382L7.26886 21.2307ZM18.9221 9.57663L14.4223 5.07653L16.5384 2.96034L21.0381 7.46043L18.9221 9.57663Z" fill="#FF71A3"/>
</svg>
