<svg width="22" height="22" viewBox="0 0 22 22" fill="none" xmlns="http://www.w3.org/2000/svg">
<path d="M9.854 9.16699C9.854 8.53449 10.3673 8.02116 10.9998 8.02116H11.1062C11.3186 8.02116 11.5259 8.08622 11.7002 8.20759C11.8745 8.32895 12.0074 8.5008 12.0811 8.70001C12.1548 8.89921 12.1657 9.1162 12.1123 9.32179C12.059 9.52737 11.9439 9.71168 11.7827 9.84991L11.0759 10.4549C10.591 10.8702 10.3123 11.477 10.3123 12.1159V12.6045C10.3123 12.7868 10.3848 12.9617 10.5137 13.0906C10.6426 13.2196 10.8175 13.292 10.9998 13.292C11.1822 13.292 11.357 13.2196 11.486 13.0906C11.6149 12.9617 11.6873 12.7868 11.6873 12.6045V12.1159C11.6881 11.9986 11.7138 11.8829 11.7628 11.7763C11.8118 11.6698 11.8829 11.5749 11.9715 11.4981L12.6773 10.8931C13.0516 10.5719 13.3185 10.1439 13.4423 9.66657C13.566 9.18921 13.5407 8.6854 13.3696 8.22289C13.1985 7.76039 12.8898 7.36137 12.4852 7.07949C12.0806 6.79761 11.5993 6.64638 11.1062 6.64616H10.9998C10.3313 6.64616 9.69009 6.91174 9.21734 7.38449C8.74459 7.85724 8.479 8.49842 8.479 9.16699V9.26507C8.479 9.44741 8.55144 9.62228 8.68037 9.75121C8.8093 9.88014 8.98417 9.95257 9.1665 9.95257C9.34884 9.95257 9.52371 9.88014 9.65264 9.75121C9.78157 9.62228 9.854 9.44741 9.854 9.26507V9.16699Z" fill="#979797"/>
<path d="M11.648 15.3152C11.4761 15.4871 11.243 15.5837 10.9998 15.5837C10.7567 15.5837 10.5236 15.4871 10.3517 15.3152C10.1797 15.1433 10.0832 14.9101 10.0832 14.667C10.0832 14.4239 10.1797 14.1907 10.3517 14.0188C10.5236 13.8469 10.7567 13.7503 10.9998 13.7503C11.243 13.7503 11.4761 13.8469 11.648 14.0188C11.8199 14.1907 11.9165 14.4239 11.9165 14.667C11.9165 14.9101 11.8199 15.1433 11.648 15.3152Z" fill="#979797"/>
<path fill-rule="evenodd" clip-rule="evenodd" d="M5.32825 5.32874C3.82405 6.83294 2.979 8.87307 2.979 11.0003C2.979 13.1276 3.82405 15.1677 5.32825 16.6719C6.83245 18.1761 8.87258 19.0212 10.9998 19.0212C13.1271 19.0212 15.1672 18.1761 16.6714 16.6719C18.1756 15.1677 19.0207 13.1276 19.0207 11.0003C19.0207 8.87307 18.1756 6.83294 16.6714 5.32874C15.1672 3.82454 13.1271 2.97949 10.9998 2.97949C8.87258 2.97949 6.83245 3.82454 5.32825 5.32874ZM8.45659 4.86038C9.2629 4.52639 10.1271 4.35449 10.9998 4.35449C12.7624 4.35449 14.4528 5.05468 15.6992 6.30101C16.9455 7.54735 17.6457 9.23774 17.6457 11.0003C17.6457 12.7629 16.9455 14.4533 15.6992 15.6996C14.4528 16.946 12.7624 17.6462 10.9998 17.6462C10.1271 17.6462 9.2629 17.4743 8.45659 17.1403C7.65028 16.8063 6.91765 16.3168 6.30052 15.6996C5.6834 15.0825 5.19387 14.3499 4.85989 13.5436C4.5259 12.7373 4.354 11.8731 4.354 11.0003C4.354 10.1276 4.5259 9.26338 4.85989 8.45708C5.19387 7.65076 5.6834 6.91813 6.30052 6.30101C6.91765 5.68389 7.65028 5.19436 8.45659 4.86038Z" fill="#979797"/>
</svg>
