<svg width="16" height="17" viewBox="0 0 16 17" fill="none" xmlns="http://www.w3.org/2000/svg">
<g opacity="0.7">
<path d="M8 5.24999C7.35722 5.24999 6.72886 5.4406 6.1944 5.79772C5.65994 6.15483 5.24338 6.66241 4.9974 7.25627C4.75141 7.85013 4.68705 8.5036 4.81245 9.13404C4.93785 9.76448 5.24739 10.3436 5.70191 10.7981C6.15643 11.2526 6.73552 11.5621 7.36596 11.6875C7.9964 11.8129 8.64987 11.7486 9.24373 11.5026C9.83759 11.2566 10.3452 10.8401 10.7023 10.3056C11.0594 9.77114 11.25 9.14278 11.25 8.49999C11.249 7.63835 10.9063 6.81227 10.297 6.20299C9.68773 5.59372 8.86165 5.25099 8 5.24999ZM8 10.25C7.65389 10.25 7.31554 10.1474 7.02776 9.95507C6.73997 9.76277 6.51567 9.48946 6.38322 9.16969C6.25076 8.84992 6.21611 8.49805 6.28363 8.15859C6.35115 7.81912 6.51783 7.5073 6.76257 7.26256C7.00731 7.01782 7.31913 6.85114 7.6586 6.78362C7.99806 6.7161 8.34993 6.75075 8.6697 6.8832C8.98947 7.01566 9.26278 7.23996 9.45508 7.52775C9.64737 7.81553 9.75 8.15388 9.75 8.49999C9.75 8.96412 9.56563 9.40924 9.23744 9.73743C8.90925 10.0656 8.46413 10.25 8 10.25ZM15.1163 7.15187C15.0951 7.04623 15.0514 6.94639 14.9882 6.85914C14.925 6.77188 14.8438 6.69927 14.75 6.64624L13.0131 5.65562L13.0063 3.69874C13.0059 3.59017 12.9819 3.48297 12.9361 3.38456C12.8902 3.28615 12.8235 3.19886 12.7406 3.12874C12.0407 2.53654 11.2348 2.08247 10.3656 1.79062C10.2665 1.75718 10.1614 1.74485 10.0572 1.75443C9.95305 1.76401 9.85201 1.79528 9.76063 1.84624L8 2.82937L6.23938 1.84562C6.14788 1.79438 6.04664 1.7629 5.94222 1.75321C5.83779 1.74352 5.7325 1.75584 5.63313 1.78937C4.76373 2.08244 3.95781 2.53778 3.25813 3.13124C3.17551 3.20129 3.10904 3.28839 3.06329 3.38657C3.01755 3.48476 2.99361 3.59168 2.99313 3.69999L2.98438 5.65874L1.25 6.64687C1.1562 6.7001 1.07498 6.77293 1.01188 6.86041C0.948782 6.94788 0.905293 7.04794 0.88438 7.15374C0.707811 8.04319 0.707811 8.95867 0.88438 9.84812C0.905459 9.9537 0.949024 10.0535 1.01211 10.1408C1.0752 10.228 1.15634 10.3006 1.25 10.3537L2.98875 11.3444L2.99563 13.3012C2.99601 13.4098 3.01995 13.517 3.06582 13.6154C3.11168 13.7138 3.17836 13.8011 3.26125 13.8712C3.96119 14.4634 4.7671 14.9175 5.63625 15.2094C5.7354 15.2428 5.84045 15.2551 5.94464 15.2456C6.04883 15.236 6.14987 15.2047 6.24125 15.1537L8 14.1706L9.75875 15.1544C9.85026 15.2056 9.95149 15.2371 10.0559 15.2468C10.1603 15.2565 10.2656 15.2442 10.365 15.2106C11.2344 14.9176 12.0403 14.4622 12.74 13.8687C12.8226 13.7987 12.8891 13.7116 12.9348 13.6134C12.9806 13.5152 13.0045 13.4083 13.005 13.3L13.0138 11.3412L14.7519 10.3531C14.8457 10.2999 14.9269 10.2271 14.99 10.1396C15.0531 10.0521 15.0966 9.95205 15.1175 9.84624C15.2937 8.95672 15.2932 8.04123 15.1163 7.15187ZM13.7019 9.22562L12.0219 10.1806C11.9025 10.2483 11.8041 10.3475 11.7375 10.4675C11.7038 10.53 11.6681 10.5881 11.6313 10.6475C11.5572 10.7658 11.5176 10.9023 11.5169 11.0419L11.5081 12.9375C11.1038 13.2418 10.661 13.4912 10.1913 13.6794L8.49438 12.73C8.38248 12.6673 8.25638 12.6344 8.12813 12.6344H8.11C8.03875 12.6344 7.96625 12.6344 7.895 12.6344C7.76098 12.6312 7.62852 12.6638 7.51125 12.7287L5.8125 13.6762C5.34198 13.489 4.89816 13.2406 4.4925 12.9375L4.48563 11.0475C4.48505 10.9077 4.44544 10.7709 4.37125 10.6525C4.335 10.5937 4.29875 10.5331 4.265 10.4725C4.19834 10.3533 4.10018 10.2547 3.98125 10.1875L2.3 9.22687C2.23469 8.74491 2.23469 8.25633 2.3 7.77437L3.98 6.81937C4.09917 6.75172 4.19752 6.65272 4.26438 6.53312C4.29813 6.47062 4.33375 6.41187 4.37063 6.35249C4.4447 6.23424 4.48431 6.09766 4.485 5.95812L4.49188 4.06249C4.89635 3.75911 5.33915 3.5105 5.80875 3.32312L7.50563 4.27249C7.62284 4.33825 7.75566 4.37108 7.89 4.36749C7.96125 4.36749 8.03375 4.36749 8.105 4.36749C8.23903 4.37067 8.37149 4.33809 8.48876 4.27312L10.1875 3.32374C10.658 3.51097 11.1018 3.75936 11.5075 4.06249L11.5144 5.95249C11.515 6.09225 11.5546 6.22905 11.6288 6.34749C11.665 6.40624 11.7013 6.46687 11.735 6.52749C11.8017 6.64671 11.8998 6.7453 12.0188 6.81249L13.7 7.77062C13.7662 8.25332 13.7668 8.74275 13.7019 9.22562Z" fill="#252525"/>
</g>
</svg>
