<svg width="24" height="24" viewBox="0 0 24 24" fill="none" xmlns="http://www.w3.org/2000/svg">
<path d="M17.7071 13.7071C17.5196 13.8946 17.2652 14 17 14C16.7348 14 16.4804 13.8946 16.2929 13.7071C16.1054 13.5196 16 13.2652 16 13C16 12.7348 16.1054 12.4804 16.2929 12.2929C16.4804 12.1054 16.7348 12 17 12C17.2652 12 17.5196 12.1054 17.7071 12.2929C17.8946 12.4804 18 12.7348 18 13C18 13.2652 17.8946 13.5196 17.7071 13.7071Z" fill="#979797"/>
<path d="M17.7071 17.7071C17.5196 17.8946 17.2652 18 17 18C16.7348 18 16.4804 17.8946 16.2929 17.7071C16.1054 17.5196 16 17.2652 16 17C16 16.7348 16.1054 16.4804 16.2929 16.2929C16.4804 16.1054 16.7348 16 17 16C17.2652 16 17.5196 16.1054 17.7071 16.2929C17.8946 16.4804 18 16.7348 18 17C18 17.2652 17.8946 17.5196 17.7071 17.7071Z" fill="#979797"/>
<path d="M12.7071 13.7071C12.8946 13.5196 13 13.2652 13 13C13 12.7348 12.8946 12.4804 12.7071 12.2929C12.5196 12.1054 12.2652 12 12 12C11.7348 12 11.4804 12.1054 11.2929 12.2929C11.1054 12.4804 11 12.7348 11 13C11 13.2652 11.1054 13.5196 11.2929 13.7071C11.4804 13.8946 11.7348 14 12 14C12.2652 14 12.5196 13.8946 12.7071 13.7071Z" fill="#979797"/>
<path d="M12.7071 17.7071C12.8946 17.5196 13 17.2652 13 17C13 16.7348 12.8946 16.4804 12.7071 16.2929C12.5196 16.1054 12.2652 16 12 16C11.7348 16 11.4804 16.1054 11.2929 16.2929C11.1054 16.4804 11 16.7348 11 17C11 17.2652 11.1054 17.5196 11.2929 17.7071C11.4804 17.8946 11.7348 18 12 18C12.2652 18 12.5196 17.8946 12.7071 17.7071Z" fill="#979797"/>
<path d="M7.70711 13.7071C7.51957 13.8946 7.26522 14 7 14C6.73478 14 6.48043 13.8946 6.29289 13.7071C6.10536 13.5196 6 13.2652 6 13C6 12.7348 6.10536 12.4804 6.29289 12.2929C6.48043 12.1054 6.73478 12 7 12C7.26522 12 7.51957 12.1054 7.70711 12.2929C7.89464 12.4804 8 12.7348 8 13C8 13.2652 7.89464 13.5196 7.70711 13.7071Z" fill="#979797"/>
<path d="M7.70711 17.7071C7.51957 17.8946 7.26522 18 7 18C6.73478 18 6.48043 17.8946 6.29289 17.7071C6.10536 17.5196 6 17.2652 6 17C6 16.7348 6.10536 16.4804 6.29289 16.2929C6.48043 16.1054 6.73478 16 7 16C7.26522 16 7.51957 16.1054 7.70711 16.2929C7.89464 16.4804 8 16.7348 8 17C8 17.2652 7.89464 17.5196 7.70711 17.7071Z" fill="#979797"/>
<path fill-rule="evenodd" clip-rule="evenodd" d="M7.53031 1.96967C7.38965 1.82902 7.19889 1.75 6.99998 1.75C6.80124 1.75027 6.61073 1.8294 6.47029 1.97002C6.32986 2.11065 6.25098 2.30126 6.25098 2.5V3.327C5.99164 3.347 5.74531 3.37233 5.51198 3.403C4.33998 3.561 3.39098 3.893 2.64198 4.641C1.89398 5.39 1.56198 6.339 1.40398 7.511C1.25098 8.65 1.25098 10.106 1.25098 11.944V14.056C1.25098 15.894 1.25098 17.349 1.40398 18.489C1.56198 19.661 1.89398 20.61 2.64198 21.359C3.39098 22.107 4.33998 22.439 5.51198 22.597C6.65098 22.75 8.10698 22.75 9.94498 22.75H14.056C15.894 22.75 17.349 22.75 18.489 22.597C19.661 22.439 20.61 22.107 21.359 21.359C22.107 20.61 22.439 19.661 22.597 18.489C22.75 17.35 22.75 15.894 22.75 14.056V11.944C22.75 10.106 22.75 8.651 22.597 7.511C22.439 6.339 22.107 5.39 21.359 4.641C20.61 3.893 19.661 3.561 18.489 3.403C18.2563 3.37233 18.01 3.347 17.75 3.327V2.5C17.75 2.30109 17.671 2.11032 17.5303 1.96967C17.3897 1.82902 17.1989 1.75 17 1.75C16.8011 1.75 16.6103 1.82902 16.4696 1.96967C16.329 2.11032 16.25 2.30109 16.25 2.5V3.263C15.588 3.25 14.859 3.25 14.056 3.25H9.94298C9.14098 3.25 8.41198 3.25 7.74998 3.263V2.5C7.74998 2.30109 7.67096 2.11032 7.53031 1.96967ZM3.70198 5.702C4.12498 5.279 4.70498 5.025 5.70998 4.89C6.73898 4.752 8.09298 4.749 9.99998 4.749H14C15.907 4.749 17.262 4.751 18.289 4.889C19.295 5.024 19.875 5.278 20.298 5.701C20.721 6.124 20.975 6.704 21.11 7.709C21.1326 7.87967 21.152 8.05967 21.168 8.249H2.83198C2.84798 8.05967 2.86731 7.88 2.88998 7.71C3.02498 6.705 3.27898 6.125 3.70198 5.702ZM2.76298 9.75C2.74998 10.403 2.74998 11.146 2.74998 12V14C2.74998 15.907 2.75198 17.262 2.88998 18.289C3.02498 19.295 3.27898 19.875 3.70198 20.298C4.12498 20.721 4.70498 20.975 5.70998 21.11C6.73898 21.248 8.09298 21.25 9.99998 21.25H14C15.907 21.25 17.262 21.248 18.289 21.11C19.295 20.975 19.875 20.721 20.298 20.298C20.721 19.875 20.975 19.295 21.11 18.29C21.248 17.262 21.25 15.907 21.25 14V12C21.25 11.146 21.25 10.403 21.237 9.75H2.76298Z" fill="#979797"/>
</svg>
