<svg width="174" height="24" viewBox="0 0 174 24" fill="none" xmlns="http://www.w3.org/2000/svg">
<path d="M14.7266 10.0256C14.7266 12.6875 14.0918 14.7334 12.8223 16.1633C11.5527 17.5933 9.73308 18.3082 7.36329 18.3082C4.99349 18.3082 3.17383 17.5933 1.9043 16.1633C0.634766 14.7334 0 12.6801 0 10.0036C0 7.32704 0.634766 5.28479 1.9043 3.87685C3.18088 2.46158 5.0076 1.75395 7.38445 1.75395C9.76129 1.75395 11.5774 2.46525 12.8329 3.88785C14.0953 5.31046 14.7266 7.35637 14.7266 10.0256ZM3.43832 10.0256C3.43832 11.8222 3.76628 13.1751 4.4222 14.0844C5.07813 14.9937 6.05849 15.4483 7.36329 15.4483C9.97994 15.4483 11.2883 13.6408 11.2883 10.0256C11.2883 6.40308 9.98699 4.59182 7.38445 4.59182C6.07965 4.59182 5.09576 5.05014 4.43278 5.96676C3.76981 6.87606 3.43832 8.229 3.43832 10.0256Z" fill="#656565"/>
<path d="M27.4642 5.79077V8.30966H23.5921V18.0882H20.3654V8.30966H16.4828V5.79077H27.4642Z" fill="#656565"/>
<path d="M37.43 5.79077H40.9847L36.298 11.6865L41.3973 18.0882H37.7369L32.902 11.8515V18.0882H29.6753V5.79077H32.902V11.7635L37.43 5.79077Z" fill="#656565"/>
<path d="M49.5858 18.3082C48.1964 18.3082 47.1067 17.7839 46.3168 16.7353H46.1475C46.2603 17.7619 46.3168 18.3559 46.3168 18.5172V23.5H43.09V5.79077H45.7137L46.1687 7.3857H46.3168C47.0714 6.16842 48.1893 5.55978 49.6705 5.55978C51.0669 5.55978 52.1602 6.12076 52.9501 7.24271C53.74 8.36466 54.135 9.92292 54.135 11.9175C54.135 13.2301 53.9481 14.3704 53.5743 15.3384C53.2075 16.3063 52.6821 17.0433 51.9979 17.5493C51.3138 18.0552 50.5098 18.3082 49.5858 18.3082ZM48.6337 8.24366C47.8367 8.24366 47.2548 8.50032 46.8881 9.01363C46.5213 9.51961 46.3309 10.3592 46.3168 11.5325V11.8955C46.3168 13.2154 46.5037 14.1614 46.8775 14.7334C47.2583 15.3054 47.8578 15.5913 48.676 15.5913C50.1218 15.5913 50.8448 14.3521 50.8448 11.8735C50.8448 10.6636 50.6649 9.75793 50.3052 9.15662C49.9526 8.54798 49.3954 8.24366 48.6337 8.24366Z" fill="#656565"/>
<path d="M60.0277 10.5426H61.5829C63.3885 10.5426 64.725 10.8432 65.5925 11.4445C66.46 12.0458 66.8938 12.9551 66.8938 14.1724C66.8938 15.4703 66.46 16.4493 65.5925 17.1093C64.725 17.7619 63.4272 18.0882 61.6993 18.0882H56.801V5.79077H60.0277V10.5426ZM63.667 14.2164C63.667 13.7398 63.4837 13.3951 63.1169 13.1824C62.7502 12.9698 62.2036 12.8635 61.4771 12.8635H60.0277V15.7673H61.5194C62.9512 15.7673 63.667 15.2504 63.667 14.2164ZM71.8344 18.0882H68.6076V5.79077H71.8344V18.0882Z" fill="#656565"/>
<path d="M85.0163 5.79077V8.30966H81.1443V18.0882H77.9175V8.30966H74.0349V5.79077H85.0163Z" fill="#656565"/>
<path d="M90.4542 10.5426H92.0094C93.8149 10.5426 95.1515 10.8432 96.019 11.4445C96.8865 12.0458 97.3202 12.9551 97.3202 14.1724C97.3202 15.4703 96.8865 16.4493 96.019 17.1093C95.1515 17.7619 93.8537 18.0882 92.1257 18.0882H87.2274V5.79077H90.4542V10.5426ZM94.0935 14.2164C94.0935 13.7398 93.9101 13.3951 93.5434 13.1824C93.1766 12.9698 92.63 12.8635 91.9036 12.8635H90.4542V15.7673H91.9459C93.3776 15.7673 94.0935 15.2504 94.0935 14.2164ZM102.261 18.0882H99.0341V5.79077H102.261V18.0882Z" fill="#656565"/>
<path d="M108.778 5.79077V10.6526C108.778 11.1659 108.697 12.4198 108.534 14.4144L113.993 5.79077H117.876V18.0882H114.755V13.1824C114.755 12.3098 114.826 11.0779 114.967 9.48661L109.529 18.0882H105.657V5.79077H108.778ZM116.924 0.5C116.79 1.87127 116.293 2.87223 115.432 3.50287C114.572 4.12618 113.33 4.43783 111.708 4.43783C110.037 4.43783 108.799 4.13718 107.995 3.53587C107.198 2.93456 106.75 1.9226 106.651 0.5H109.539C109.589 1.2553 109.769 1.78694 110.079 2.09493C110.396 2.39558 110.961 2.54591 111.772 2.54591C112.484 2.54591 113.013 2.38092 113.359 2.05093C113.711 1.71361 113.926 1.19664 114.004 0.5H116.924Z" fill="#656565"/>
<path d="M133.703 18.0882L129.979 5.47178H129.884C130.018 8.03834 130.085 9.7506 130.085 10.6086V18.0882H127.154V2.00693H131.619L135.279 14.3044H135.343L139.225 2.00693H143.69V18.0882H140.632V10.4766C140.632 10.1172 140.636 9.70293 140.643 9.23362C140.657 8.76431 140.706 7.51769 140.791 5.49378H140.696L136.707 18.0882H133.703Z" fill="#656565"/>
<path d="M150.461 5.79077V10.6526C150.461 11.1659 150.38 12.4198 150.217 14.4144L155.676 5.79077H159.559V18.0882H156.438V13.1824C156.438 12.3098 156.509 11.0779 156.65 9.48661L151.212 18.0882H147.34V5.79077H150.461Z" fill="#656565"/>
<path d="M169.451 18.3082C168.061 18.3082 166.972 17.7839 166.182 16.7353H166.013C166.125 17.7619 166.182 18.3559 166.182 18.5172V23.5H162.955V5.79077H165.579L166.034 7.3857H166.182C166.936 6.16842 168.054 5.55978 169.535 5.55978C170.932 5.55978 172.025 6.12076 172.815 7.24271C173.605 8.36466 174 9.92292 174 11.9175C174 13.2301 173.813 14.3704 173.439 15.3384C173.073 16.3063 172.547 17.0433 171.863 17.5493C171.179 18.0552 170.375 18.3082 169.451 18.3082ZM168.499 8.24366C167.702 8.24366 167.12 8.50032 166.753 9.01363C166.386 9.51961 166.196 10.3592 166.182 11.5325V11.8955C166.182 13.2154 166.369 14.1614 166.743 14.7334C167.123 15.3054 167.723 15.5913 168.541 15.5913C169.987 15.5913 170.71 14.3521 170.71 11.8735C170.71 10.6636 170.53 9.75793 170.17 9.15662C169.818 8.54798 169.26 8.24366 168.499 8.24366Z" fill="#656565"/>
</svg>
