<svg width="96" height="48" viewBox="0 0 96 48" fill="none" xmlns="http://www.w3.org/2000/svg">
<path d="M72.4572 45.5531C72.2491 45.459 72.0186 45.4496 71.8049 45.3763C71.3459 45.2222 70.9234 44.9747 70.5638 44.6495C70.2042 44.3243 69.9153 43.9282 69.715 43.486C69.6184 43.2823 69.5903 43.0525 69.6349 42.8314C69.6795 42.6103 69.7944 42.4096 69.9624 42.2596C70.1161 42.1005 70.314 41.9914 70.5303 41.9468C70.7467 41.9022 70.9714 41.924 71.1752 42.0095C71.3732 42.1191 71.5314 42.289 71.6269 42.4948C71.7424 42.7301 71.9115 42.9348 72.1206 43.0923C72.3297 43.2498 72.5728 43.3557 72.8302 43.4014C73.6155 43.5368 74.1647 43.1606 74.5752 42.5305C74.9562 41.8981 75.2036 41.1939 75.3022 40.4616C75.3246 40.3299 75.3478 40.2001 75.368 40.0684C75.3829 39.9669 75.368 39.9349 75.2484 39.9745C74.8209 40.1348 74.3725 40.2318 73.9173 40.2622C72.5247 40.3487 71.43 39.8258 70.6541 38.6578C70.2467 38.0216 69.9973 37.2967 69.9268 36.5437C69.805 35.5356 69.865 34.5274 69.9062 33.5212C69.9381 32.7688 69.983 32.0165 70.0599 31.2642C70.1236 30.6528 70.2098 30.0453 70.2979 29.4378C70.4048 28.7175 71.0477 28.4541 71.6643 28.7212C72.281 28.9883 72.4853 29.4642 72.3504 30.2127C72.236 30.8523 72.1629 31.4973 72.1161 32.1444C72.0183 33.4406 72.0058 34.7418 72.0786 36.0397C72.0827 36.5161 72.1842 36.9865 72.3766 37.4221C72.6746 38.0315 73.3962 38.2196 73.8442 38.1838C74.4514 38.1073 75.0204 37.8445 75.4734 37.4315C75.4995 37.4084 75.5197 37.3792 75.5317 37.3464C75.5444 37.3136 75.5489 37.2782 75.5444 37.2434C75.5556 36.303 75.5556 35.3757 75.5309 34.4409C75.4883 32.8761 75.4263 31.3112 75.445 29.7387C75.4352 29.5136 75.5018 29.2917 75.6341 29.1094C75.7663 28.9271 75.9554 28.7949 76.1722 28.7344C76.4031 28.6539 76.6543 28.6521 76.886 28.7293C77.1184 28.8065 77.3187 28.9584 77.4562 29.1613C77.5512 29.3144 77.599 29.4925 77.593 29.673C77.5721 30.9087 77.6304 32.1425 77.6715 33.3783C77.7126 34.614 77.7485 35.8366 77.7186 37.0666C77.6939 38.0334 77.6715 39.0039 77.5556 39.965C77.4166 41.1142 77.1976 42.2465 76.6184 43.2678C76.3 43.8561 75.8501 44.3624 75.3037 44.7471C74.7581 45.1319 74.1308 45.3845 73.4712 45.4854C73.4319 45.4854 73.3756 45.4647 73.3551 45.5286L72.4572 45.5531Z" fill="#656565"/>
<path d="M58.8569 10.234C59.9257 10.7506 60.7701 11.6407 61.2317 12.7375C61.6636 13.7061 61.828 14.7734 61.7078 15.8278C61.6062 16.9353 61.2229 17.9981 60.5944 18.9143C60.2109 19.4885 59.7132 19.9768 59.1326 20.3487C58.552 20.7206 57.901 20.9681 57.2205 21.0754C55.9235 21.3086 54.6808 21.0754 53.4718 20.6183C53.17 20.5017 52.8758 20.3644 52.5815 20.2308C51.8674 19.9092 51.8317 19.1907 52.2591 18.6584C52.3455 18.5589 52.3957 18.433 52.4016 18.3011C52.4372 17.3908 52.4765 16.4804 52.514 15.5719C52.6303 12.6434 52.6396 9.71308 52.604 6.78267C52.615 6.1506 52.5931 5.5184 52.5384 4.88864C52.4447 4.10243 53.0445 3.40463 53.6837 3.19586C54.6354 2.85787 55.6525 2.74648 56.6545 2.87046C57.568 2.96847 58.4242 3.36498 59.0912 3.99898C59.7262 4.62599 60.1238 5.45526 60.2158 6.34442C60.3216 7.01462 60.2689 7.70037 60.0618 8.34635C59.8547 8.99232 59.4991 9.58033 59.0237 10.0629L58.8569 10.234ZM54.6826 15.0735C54.6283 16.4202 54.587 17.4867 54.5346 18.5531C54.5346 18.6829 54.5758 18.7224 54.6826 18.7506C55.095 18.8659 55.52 18.929 55.9479 18.9387C57.2505 18.9537 58.3302 18.5117 59.0255 17.3569C59.5029 16.5538 59.7007 15.6142 59.5879 14.686C59.5606 14.2792 59.4424 13.8838 59.2418 13.5292C59.0412 13.1746 58.7636 12.8699 58.4295 12.6378C57.3349 11.8741 56.1072 11.814 54.8401 12.0152C54.7501 12.0303 54.7614 12.0829 54.7595 12.1375C54.7595 12.3707 54.7445 12.6021 54.7389 12.8334C54.7183 13.6723 54.6977 14.513 54.6826 15.0735ZM55.9516 4.9507C55.5879 4.95636 55.2262 5.00498 54.8738 5.09553C54.7464 5.12374 54.7126 5.1764 54.7164 5.30618C54.7408 5.96073 54.7595 6.62279 54.7689 7.26981C54.7801 8.05415 54.7782 8.83655 54.7838 9.61903C54.7838 9.80713 54.8007 9.82588 54.9957 9.78455L55.2656 9.72808C56.05 9.5711 56.7846 9.22513 57.4061 8.71992C58.4614 7.81715 58.3077 6.43659 57.6179 5.60712C57.1812 5.08988 56.5832 4.95446 55.9516 4.9507Z" fill="#656565"/>
<path d="M95.4352 14.7806C95.4644 15.932 95.202 17.0721 94.6744 18.0947C94.0555 19.2867 93.0121 20.2014 91.752 20.6564C91.2804 20.8494 90.7811 20.9649 90.2729 20.9987C89.1166 21.0495 88.2825 20.5172 87.7145 19.5336C87.3042 18.776 87.0441 17.9455 86.9499 17.0884C86.8953 16.6691 86.8617 16.2472 86.8505 15.8244C86.8505 15.7285 86.8131 15.6947 86.7189 15.6872C86.1255 15.6354 85.5283 15.6354 84.9349 15.6872C84.813 15.6984 84.7697 15.7342 84.7645 15.8621C84.6972 17.1787 84.6165 18.4952 84.5559 19.8232C84.5059 20.9216 83.3563 21.1398 82.7928 20.7448C82.6583 20.6574 82.5506 20.5351 82.4811 20.391C82.4116 20.2467 82.3825 20.0862 82.3967 19.9266C82.4759 18.3392 82.5753 16.7536 82.6366 15.1661C82.6882 14.0071 82.6762 12.8462 82.6015 11.6885C82.5656 11.1505 82.5207 10.6126 82.4497 10.0784C82.4026 9.72667 82.4497 9.39562 82.7741 9.18315C82.9512 9.06577 83.1575 9.00014 83.3698 8.99347C83.5828 8.98687 83.7928 9.03945 83.9774 9.1455C84.1508 9.22755 84.2996 9.35362 84.4102 9.51135C84.5201 9.669 84.5873 9.85282 84.6053 10.0445C84.7443 11.1379 84.8071 12.2396 84.7921 13.3417C84.7921 13.5072 84.8414 13.5298 84.9947 13.5298C85.6008 13.4793 86.2092 13.49 86.8131 13.5617C86.9028 13.5731 86.9424 13.5617 86.9551 13.4527C87.0493 12.6587 87.2122 11.8745 87.4424 11.1092C87.5613 10.7038 87.7182 10.3108 87.911 9.93547C87.985 9.7974 88.0882 9.67732 88.213 9.58372C89.0658 8.89912 90.0703 8.81257 91.0845 8.92919C92.9591 9.14362 94.1026 10.3041 94.8335 11.9537C95.2334 12.8417 95.4389 13.8059 95.4352 14.7806ZM88.9029 15.894C88.8767 16.5606 88.9686 17.2266 89.1727 17.8614C89.4649 18.6758 90.0576 18.9636 90.8596 18.674C91.5397 18.4413 92.1182 17.9802 92.4979 17.3687C92.9359 16.7056 93.2049 15.9451 93.2819 15.1536C93.3589 14.3621 93.2416 13.5638 92.9404 12.8282C92.4045 11.4364 91.2385 10.8364 89.8401 11.1355C89.796 11.142 89.7549 11.1613 89.7213 11.1911C89.6884 11.2208 89.6645 11.2597 89.6525 11.3029C89.4985 11.7457 89.3737 12.198 89.2781 12.6571C89.0419 13.7201 88.9163 14.8049 88.9029 15.894Z" fill="#656565"/>
<path d="M87.3325 31.4425C87.346 33.0914 87.1673 34.7364 86.8019 36.344C86.624 37.2497 86.2757 38.1128 85.7749 38.8869C85.5171 39.2672 85.1845 39.5903 84.7981 39.8361C84.4109 40.082 83.9781 40.2455 83.5252 40.3164C82.5655 40.4913 81.6507 40.3879 80.8241 39.8161C80.2994 39.4512 79.9773 38.9189 79.6888 38.3678C79.2456 37.4888 78.9817 36.5294 78.9145 35.5465C78.83 34.6738 78.8756 33.7933 79.049 32.934C79.3024 31.734 79.7897 30.6563 80.7269 29.8306C81.1343 29.4671 81.6133 29.1936 82.1328 29.0277C82.6522 28.8618 83.2008 28.8073 83.7427 28.8676C84.1104 28.8997 84.4737 28.9709 84.8265 29.0801C84.8713 29.0914 84.9819 29.1704 84.9595 29.0181C84.8279 28.1134 84.6291 27.2274 84.0895 26.4638C83.5499 25.7002 82.7778 25.5027 81.8682 25.7999C81.5401 25.9174 81.2262 26.0706 80.931 26.2569C80.8203 26.3346 80.694 26.3882 80.5617 26.4142C80.4287 26.4403 80.2919 26.4384 80.1604 26.4084C80.0281 26.3785 79.904 26.3214 79.7957 26.2405C79.6865 26.1597 79.5961 26.0571 79.5288 25.9391C79.4459 25.8267 79.3861 25.6988 79.3524 25.5628C79.3188 25.4268 79.3128 25.2855 79.3345 25.1472C79.3562 25.0088 79.4048 24.8761 79.4788 24.757C79.552 24.6378 79.6477 24.5346 79.7613 24.4532C80.5894 23.8576 81.579 23.5326 82.5977 23.5221C83.5798 23.5262 84.523 23.9086 85.2331 24.5905C85.9917 25.3129 86.541 26.2281 86.822 27.2388C87.0433 28.0381 87.1883 28.8569 87.2533 29.6839C87.3131 30.3384 87.3079 30.9892 87.3325 31.4425ZM85.1224 32.2588C85.1224 32.0331 85.1224 31.8055 85.1224 31.5798C85.1224 31.5328 85.1449 31.4725 85.0679 31.4519C84.7271 31.3616 84.4266 31.166 84.0835 31.0757C83.4505 30.9046 82.8376 30.9046 82.277 31.3014C81.8256 31.6439 81.4975 32.1235 81.3398 32.6688C81.0005 33.6694 80.9915 34.6945 81.1074 35.7289C81.1485 36.2554 81.268 36.7727 81.4616 37.2638C81.6657 37.7434 81.9586 38.129 82.5207 38.2042C82.8182 38.2616 83.1261 38.2262 83.4026 38.1028C83.6792 37.9794 83.9116 37.7739 84.0686 37.5139C84.3212 37.1045 84.4991 36.6538 84.5955 36.1823C84.8945 34.8941 85.0709 33.5804 85.1224 32.2588Z" fill="#656565"/>
<path d="M76.3612 20.8854C75.8874 20.8813 75.4158 20.8182 74.9576 20.6973C74.8485 20.671 74.8186 20.6973 74.8111 20.8064C74.7461 21.8352 74.6595 22.8641 74.534 23.8873C74.4908 24.2446 74.502 24.619 74.3203 24.9519C74.1618 25.2179 73.9101 25.4152 73.6144 25.5049C73.3187 25.5946 73.0003 25.5705 72.7214 25.4371C72.5728 25.3617 72.4518 25.241 72.3757 25.0924C72.2997 24.9437 72.2724 24.7747 72.2978 24.6095C72.3372 24.2221 72.3896 23.8384 72.4272 23.4528C72.4984 22.7324 72.5696 22.0101 72.6258 21.2898C72.8133 18.9801 72.8302 16.6666 72.7983 14.3513C72.7833 13.2623 72.7514 12.1714 72.6708 11.0843C72.6258 10.4673 72.8432 10.078 73.4205 9.77889C74.1156 9.42099 74.8694 9.19164 75.6452 9.10179C77.282 8.91368 78.6595 9.41776 79.7485 10.6704C80.318 11.3362 80.7425 12.1148 80.9929 12.9557C81.3315 14.0204 81.4272 15.1479 81.2724 16.2547C81.1394 17.4772 80.6058 18.6209 79.756 19.5067C79.3157 19.9591 78.7866 20.3151 78.2021 20.5524C77.6184 20.7897 76.9913 20.903 76.3612 20.8854ZM74.9613 15.0867C74.9613 15.6209 74.9613 16.1532 74.9613 16.6873C74.9613 17.2215 74.9613 17.7557 74.9277 18.288C74.921 18.3127 74.921 18.3386 74.9262 18.3636C74.9314 18.3886 74.9419 18.4122 74.9576 18.4324C74.9725 18.4527 74.9927 18.4692 75.0151 18.4806C75.0383 18.4921 75.063 18.4983 75.0884 18.4986C75.3081 18.5457 75.5234 18.6152 75.7446 18.6547C77.1991 18.9124 78.3688 18.2917 78.8598 16.9149C79.1065 16.2523 79.2044 15.5435 79.1476 14.8386C79.0915 14.1336 78.8807 13.4498 78.5317 12.8353C77.803 11.4773 76.4703 10.9639 75.0159 11.4435C74.989 11.4467 74.9636 11.4555 74.9411 11.4693C74.918 11.4832 74.8985 11.5018 74.8836 11.5239C74.8679 11.546 74.8582 11.571 74.8537 11.5973C74.8485 11.6237 74.85 11.6507 74.8567 11.6767C74.909 12.8127 74.9576 13.9488 74.9613 15.0867Z" fill="#656565"/>
<path d="M66.5455 37.2977V35.3831C66.5455 35.195 66.5455 35.195 66.3674 35.2495C65.5302 35.5634 64.6336 35.6855 63.7433 35.6069C62.4706 35.4602 61.5747 34.7831 61.0124 33.6338C60.6757 32.9088 60.4549 32.1351 60.3582 31.3411C60.2177 30.2881 60.2064 29.2219 60.3245 28.1662C60.4404 27.1125 60.6283 26.068 60.8868 25.0401C61.0873 24.2032 61.9214 24.0621 62.5006 24.4157C62.7009 24.5256 62.8574 24.7013 62.9438 24.9133C63.0301 25.1253 63.0411 25.3608 62.9748 25.58C62.7647 26.4162 62.6039 27.264 62.4931 28.1191C62.3229 29.2922 62.3616 30.4863 62.6075 31.6458C62.698 32.1283 62.9067 32.5808 63.2148 32.9623C63.3809 33.1528 63.5902 33.3007 63.825 33.3932C64.0598 33.4858 64.3133 33.5206 64.5643 33.4946C65.2878 33.4552 65.9213 33.1467 66.5586 32.8438C66.6261 32.8119 66.6242 32.7574 66.6261 32.699C66.6617 31.8 66.6936 30.901 66.7367 30.0037C66.8004 28.6659 66.8673 27.328 66.9372 25.99C66.9522 25.7098 66.9203 25.4257 67.044 25.1511C67.1196 24.9774 67.2411 24.8276 67.3954 24.7182C67.5497 24.6087 67.7309 24.5439 67.9194 24.5304C68.3355 24.4853 68.7029 24.5793 68.954 24.9499C69.0674 25.1201 69.1215 25.3231 69.1078 25.5274C69.0403 26.9305 68.9691 28.3317 68.9053 29.7329C68.8491 30.9781 68.7966 32.2238 68.7478 33.4702C68.7066 34.5987 68.6891 35.7235 68.6954 36.8445C68.6954 37.6232 68.6954 38.4018 68.7535 39.1767C68.8134 40.0739 67.9737 40.4764 67.269 40.1981C67.0682 40.1261 66.8951 39.9926 66.7744 39.8163C66.6536 39.6401 66.5912 39.4301 66.5961 39.2162C66.5848 38.8984 66.5699 38.5787 66.5642 38.2607C66.5586 37.9429 66.5642 37.6232 66.5642 37.3034L66.5455 37.2977Z" fill="#656565"/>
<path d="M64.9147 16.5726C65.0553 17.4491 65.8069 18.5907 66.9914 18.8089C67.8162 18.9613 68.5135 18.6829 69.1358 18.1638C69.2388 18.0791 69.3231 17.9757 69.4244 17.8892C70.0579 17.2553 70.7908 17.6165 71.0944 18.128C71.2253 18.3199 71.2848 18.5518 71.2625 18.7832C71.2402 19.0145 71.1376 19.2307 70.9726 19.3939C69.7974 20.6221 68.3579 21.1863 66.6784 20.9211C64.7816 20.6202 63.5464 19.4766 62.9653 17.6484C62.595 16.4525 62.5369 15.1812 62.7966 13.9563C62.9635 13.0296 63.3265 12.1496 63.8613 11.3758C64.2418 10.803 64.7376 10.3166 65.3167 9.94762C65.8958 9.57862 66.5455 9.3354 67.2239 9.23347C68.1299 9.06577 69.0657 9.24352 69.848 9.73185C70.1964 9.94215 70.4907 10.2317 70.7072 10.577C70.9237 10.9223 71.0563 11.3138 71.0944 11.72C71.1937 12.6728 70.9801 13.6322 70.4861 14.4521C69.9921 15.272 69.2449 15.9077 68.3579 16.2623C67.2968 16.6944 66.1322 16.8024 65.0103 16.5726C64.9821 16.5669 64.9484 16.5462 64.9147 16.5726ZM66.1967 14.5337C66.6354 14.5478 67.0725 14.4743 67.4826 14.3174C67.9283 14.1547 68.3122 13.8565 68.581 13.4644C68.8497 13.0723 68.9899 12.6059 68.982 12.13C68.9861 11.9579 68.9331 11.7893 68.8313 11.6508C68.7295 11.5122 68.5847 11.4116 68.4197 11.3645C68.0153 11.2538 67.5856 11.2802 67.1977 11.4397C65.8594 11.9043 65.2652 12.9858 64.9128 14.261C64.8997 14.3118 64.8941 14.3607 64.9728 14.372C65.3832 14.4284 65.7956 14.5601 66.1967 14.5337Z" fill="#656565"/>
<path d="M51.2845 34.8133C51.2631 33.8606 51.3819 32.9099 51.6368 31.992C51.9255 30.9519 52.3866 30.0096 53.2432 29.3156C53.7151 28.9396 54.2753 28.6915 54.8701 28.5952C55.3342 28.4991 55.8155 28.5309 56.263 28.6872C56.7105 28.8435 57.1075 29.1185 57.4118 29.483C57.6701 29.759 57.8459 30.1023 57.9192 30.4738C57.9924 30.8453 57.9601 31.2299 57.826 31.5839C57.621 32.1896 57.2835 32.7417 56.8382 33.1995C56.7445 33.2973 56.7558 33.335 56.8588 33.4177C57.9835 34.3394 58.557 35.5355 58.4146 36.9914C58.2721 38.4471 57.5542 39.5098 56.214 40.1042C55.868 40.2559 55.4948 40.3355 55.1172 40.338C54.7396 40.3407 54.3654 40.2662 54.0173 40.1193C52.5459 39.5437 51.7006 38.4396 51.4232 36.8879C51.3128 36.2022 51.2663 35.5076 51.2845 34.8133ZM54.2478 34.6421C54.0267 34.6309 53.6743 34.7192 53.3107 34.7192C53.1944 34.7192 53.1963 34.7813 53.1963 34.8622C53.1844 35.4959 53.2563 36.1283 53.41 36.743C53.5974 37.4578 53.9723 37.9882 54.6901 38.2478C54.9619 38.3598 55.2668 38.3592 55.5381 38.2461C55.8093 38.1329 56.0248 37.9164 56.1372 37.644C56.2484 37.3954 56.3163 37.1294 56.3377 36.8578C56.4221 36.3339 56.3085 35.7973 56.0191 35.3531C55.6255 34.7851 55.0426 34.6214 54.2478 34.6421ZM55.8073 30.8259C55.8073 30.5738 55.6892 30.461 55.4643 30.493C55.1377 30.5364 54.8285 30.6662 54.5683 30.8691C54.0285 31.2923 53.7661 31.8829 53.5805 32.5205C53.5262 32.7086 53.5374 32.7086 53.7324 32.6898C54.1281 32.6581 54.5084 32.5218 54.8346 32.2949C55.1609 32.0679 55.4214 31.7584 55.5899 31.3976C55.6997 31.2236 55.7737 31.0292 55.8073 30.8259Z" fill="#656565"/>
<path d="M95.9973 34.3866C96.0287 35.5659 95.7873 36.7365 95.291 37.806C94.6049 39.241 93.4987 40.1307 91.9172 40.3583C90.9104 40.5013 90.0703 40.1269 89.3902 39.3802C88.879 38.7941 88.5023 38.1026 88.2863 37.3546C87.9245 36.2005 87.7915 34.9864 87.8946 33.7809C87.9918 32.5847 88.2691 31.4355 88.8857 30.3954C89.1667 29.9139 89.5412 29.4937 89.9866 29.1596C90.1563 29.0169 90.3671 28.932 90.5883 28.917C90.6167 28.9161 90.6443 28.9092 90.6697 28.8965C90.6952 28.8838 90.7183 28.8658 90.7363 28.8436C90.8327 28.7415 90.9485 28.6606 91.0778 28.6059C91.2071 28.5512 91.3454 28.5239 91.4859 28.5258C93.045 28.5051 94.1676 29.248 94.9741 30.5364C95.4711 31.3677 95.7903 32.2941 95.9113 33.2562C95.9592 33.6312 95.9876 34.0085 95.9973 34.3866ZM93.776 34.1985C93.776 33.258 93.711 32.6543 93.4785 32.0693C93.2461 31.4844 92.8619 30.9747 92.2132 30.7791C91.8678 30.6737 91.5517 30.591 91.1974 30.9032C90.6974 31.3098 90.3342 31.8606 90.157 32.4812C89.7617 33.9295 89.7818 35.3665 90.3708 36.7696C90.5419 37.2335 90.8222 37.6491 91.1877 37.9809C91.3349 38.1196 91.527 38.2008 91.7288 38.2098C91.9306 38.2188 92.1287 38.1549 92.2879 38.0298C92.5861 37.8091 92.8283 37.5202 92.9927 37.1872C93.477 36.2635 93.7446 35.2414 93.776 34.1985Z" fill="#656565"/>
<path d="M0.00374809 27.7229C0.0168686 27.7116 0.0356124 27.7022 0.0412355 27.689C0.200556 27.217 0.579177 27.0251 1.01778 26.8953C1.53698 26.7411 2.04305 26.5455 2.55476 26.3687C3.04604 26.1905 3.54661 26.0392 4.05424 25.9154C4.36164 25.8458 4.66528 25.7499 4.97643 25.6972C5.24345 25.6566 5.51639 25.6856 5.76897 25.7816C6.02155 25.8776 6.24525 26.0372 6.41852 26.245C6.59178 26.4529 6.70877 26.702 6.75822 26.9685C6.80767 27.2349 6.78791 27.5096 6.70084 27.7661C6.42906 28.5185 5.82364 28.9079 4.97643 28.8552C4.04173 28.8209 3.10579 28.8555 2.17613 28.9586C1.77304 28.9962 1.36818 29.0113 0.963425 29.0038C0.792276 29 0.625285 28.9502 0.479881 28.8596C0.334477 28.7689 0.216001 28.6407 0.136828 28.4884C0.0937184 28.4169 0.0899694 28.3191 0 28.2778L0.00374809 27.7229Z" fill="#656565"/>
<path d="M18.5394 39.1229C18.7568 38.8219 18.963 38.538 19.1673 38.2521C19.8177 37.3549 20.4119 36.4201 20.976 35.4646C21.2929 34.9248 21.5646 34.3662 21.827 33.7982C21.8416 33.757 21.8642 33.7192 21.8935 33.687C21.9228 33.6546 21.9581 33.6285 21.9976 33.6101C22.8055 33.2339 23.3677 32.5888 23.8719 31.8797C24.0594 31.6107 24.2337 31.3286 24.4343 31.0653C24.6386 30.8307 24.876 30.6273 25.139 30.4615C25.4885 30.1971 25.8527 29.9527 26.2299 29.7299C26.7172 29.4458 27.2683 29.3161 27.7837 29.0998C28.5053 28.7951 29.2476 28.5355 29.9149 28.118C30.0541 28.038 30.1637 27.9148 30.2269 27.7668C30.2902 27.6188 30.3037 27.4542 30.2654 27.2979C30.2348 27.1595 30.1674 27.0321 30.0703 26.9291C29.9733 26.8261 29.8503 26.7514 29.7144 26.713C29.5472 26.6903 29.3773 26.6998 29.2139 26.7412C28.453 26.8873 27.7019 27.0801 26.9646 27.3186C26.5789 27.426 26.1728 27.437 25.7819 27.3506C25.763 27.349 25.7446 27.3431 25.7282 27.3334C25.7118 27.3236 25.6979 27.3103 25.6875 27.2943C25.677 27.2784 25.6703 27.2603 25.6678 27.2414C25.6653 27.2224 25.6671 27.2032 25.6732 27.185C25.7005 27.0671 25.7522 26.9562 25.825 26.8597C26.0961 26.457 26.4333 26.1034 26.8222 25.8139C27.3245 25.3982 27.7837 24.9337 28.2598 24.4973C28.6157 24.1951 28.9536 23.8723 29.272 23.5305C29.4276 23.3425 29.6188 23.1882 29.6469 22.9268C29.6723 22.7566 29.6447 22.5827 29.5679 22.4288C29.491 22.2749 29.3687 22.1486 29.2176 22.0673C29.0834 21.9744 28.9242 21.9247 28.7612 21.9247C28.5982 21.9247 28.4391 21.9744 28.3048 22.0673C27.6878 22.4732 27.0933 22.9127 26.5242 23.3838C25.8773 23.8626 25.2026 24.3023 24.5036 24.7004C24.4587 24.7268 24.4005 24.8208 24.3274 24.7286C24.2926 24.6963 24.2714 24.6519 24.2678 24.6044C24.2644 24.557 24.279 24.5099 24.3086 24.4729C24.4399 24.2848 24.5711 24.0816 24.706 23.8879C25.3021 23.0284 25.8138 22.118 26.3761 21.2378C26.6048 20.8766 26.9384 20.5926 27.1465 20.2146C27.3082 19.9723 27.3866 19.6837 27.3695 19.3927C27.3516 19.2364 27.2915 19.0882 27.1956 18.9639C27.0997 18.8395 26.9717 18.7439 26.8256 18.6874C26.6794 18.6307 26.5207 18.6154 26.3664 18.6429C26.2121 18.6704 26.0683 18.7398 25.9506 18.8434C25.7286 19.0278 25.5315 19.2402 25.3639 19.4754C24.9272 20.0509 24.4155 20.5606 23.9432 21.1042C23.3977 21.7306 22.8747 22.3757 22.35 23.0189C22.2563 23.1337 22.1625 23.2522 22.0707 23.3688C22.0257 23.4252 21.9807 23.4854 21.9001 23.4534C21.8195 23.4215 21.8382 23.3444 21.8551 23.2766C22.0557 22.4678 22.1644 21.6403 22.3462 20.8315C22.4936 20.26 22.6918 19.7029 22.9385 19.1669C23.0487 18.9277 23.1262 18.6746 23.1691 18.4146C23.1911 18.3069 23.1904 18.1957 23.1671 18.0884C23.1437 17.981 23.0981 17.8797 23.0332 17.7911C22.9684 17.7025 22.8858 17.6284 22.7907 17.5738C22.6956 17.5193 22.5901 17.4853 22.4812 17.4742C21.9189 17.3876 21.6321 17.5494 21.3772 18.1249C21.0716 18.8114 20.8036 19.5111 20.4812 20.1939C20.2488 20.6791 20.0051 21.1588 19.7727 21.644C19.4928 22.2716 19.2634 22.9208 19.0867 23.5851C19.0767 23.6846 19.0375 23.7788 18.9742 23.8559C18.8899 23.414 18.7428 22.9864 18.5375 22.5863C18.3305 22.1287 17.9619 21.7642 17.5029 21.5632C16.9893 21.3581 16.5394 21.6911 16.547 22.2478C16.5481 22.4679 16.596 22.6853 16.6875 22.8854C16.8999 23.3765 16.9967 23.91 16.9705 24.4446C16.9705 25.022 16.9855 25.6052 16.7588 26.1581C16.4668 26.8511 16.253 27.5747 16.1215 28.3154C15.9969 29.0412 15.9798 29.7815 16.0709 30.5123C16.0755 30.5436 16.0706 30.5756 16.0569 30.6041C16.0432 30.6326 16.0213 30.6563 15.994 30.6722C15.8057 30.8232 15.6072 30.9609 15.3998 31.0841C14.996 31.3308 14.6239 31.6264 14.2921 31.9644C13.6135 32.6001 12.9388 33.2396 12.2677 33.8828C12.1422 34.0013 12.0222 34.1254 11.9041 34.259C11.8348 34.3342 11.786 34.3437 11.7167 34.259C10.9577 33.3066 10.3053 32.2735 9.77109 31.1781C9.44163 30.496 9.16046 29.7914 8.92951 29.0696C8.73743 28.4643 8.58338 27.8474 8.46843 27.2227C8.25296 26.0837 8.16491 24.9242 8.20602 23.7656C8.31955 20.5986 9.37833 17.5388 11.2451 14.9827C13.112 12.4266 15.7008 10.492 18.6762 9.42972C19.6989 9.05509 20.7591 8.79334 21.8382 8.64911C22.6451 8.53316 23.4603 8.48659 24.2749 8.50999C25.0761 8.54171 25.8743 8.62526 26.6647 8.76011C27.3783 8.88469 28.0827 9.05689 28.7734 9.27544C29.6632 9.56194 30.5246 9.93034 31.3469 10.3758C32.1944 10.8312 32.9993 11.3625 33.7517 11.9632C35.4853 13.3525 36.9054 15.0949 37.9184 17.0754C38.2834 17.7787 38.5966 18.508 38.8556 19.2572C39.149 20.1232 39.3642 21.014 39.4985 21.9186C39.6385 22.8414 39.6956 23.7749 39.669 24.7079C39.6365 25.7971 39.4952 26.8802 39.2473 27.9412C38.9266 29.3164 38.4222 30.6419 37.7478 31.8816C37.3018 32.7028 36.7804 33.4805 36.1902 34.2045C35.5854 34.9529 34.9148 35.6453 34.1866 36.2734C33.1447 37.1685 31.991 37.9234 30.7546 38.5191C30.0402 38.8687 29.2994 39.1611 28.5391 39.3937C26.9471 39.8766 25.2892 40.105 23.6264 40.0708C22.3897 40.0565 21.1597 39.8891 19.9639 39.5724C19.4972 39.4389 19.0267 39.2997 18.5394 39.1229Z" fill="#656565"/>
<path d="M13.6827 9.40746C13.6898 9.76761 13.5749 10.1195 13.3568 10.4056C13.1386 10.6918 12.8302 10.8951 12.4819 10.9825C12.1336 11.0698 11.7661 11.036 11.4395 10.8866C11.1129 10.7371 10.8465 10.4809 10.6837 10.1598C10.3623 9.55986 10.0107 8.97666 9.63034 8.41243C9.13182 7.69963 8.62949 6.99054 8.15152 6.26264C7.81601 5.75292 7.84037 5.215 8.24151 4.84635C8.42545 4.66626 8.67112 4.56376 8.92808 4.55991C9.18504 4.55607 9.4337 4.65117 9.62287 4.82565C10.009 5.17174 10.3726 5.53663 10.7644 5.88458C11.3116 6.37925 11.8703 6.86075 12.3857 7.38927C12.7118 7.72408 13.0243 8.06886 13.3228 8.42376C13.4444 8.55583 13.5388 8.71078 13.6006 8.87961C13.6623 9.04836 13.6903 9.22776 13.6827 9.40746Z" fill="#656565"/>
<path d="M18.1588 40.6657C19.4127 40.6564 20.1587 41.9485 19.5477 43.0714C19.1728 43.771 18.7735 44.4632 18.4062 45.1704C18.0669 45.8193 17.7521 46.487 17.4334 47.1434C17.1729 47.6776 16.7792 47.8619 16.2338 47.7623C16.1073 47.7367 15.9871 47.6863 15.88 47.614C15.7729 47.5416 15.6811 47.4488 15.6099 47.3408C15.5387 47.2328 15.4894 47.1118 15.4649 46.9846C15.4405 46.8574 15.4412 46.7267 15.4672 46.5999C15.561 46.094 15.6921 45.5955 15.7971 45.0952C15.9958 44.1378 16.2844 43.2011 16.5281 42.2551C16.6256 41.8789 16.7156 41.5027 16.9873 41.2075C17.1319 41.0374 17.3115 40.901 17.5138 40.8075C17.716 40.714 17.9361 40.6656 18.1588 40.6657Z" fill="#656565"/>
<path d="M30.6009 7.8194C29.7762 7.79307 29.3132 7.51092 29.0227 6.96923C28.8874 6.73097 28.8195 6.46014 28.8264 6.18599C28.8334 5.91184 28.9149 5.64482 29.062 5.41376C29.5306 4.60687 30.0161 3.80939 30.4828 2.99873C30.8127 2.42507 31.122 1.83824 31.4387 1.25516C31.5614 1.0469 31.7527 0.888068 31.9795 0.806025C32.2063 0.723974 32.4545 0.723839 32.6814 0.805643C32.9049 0.886681 33.0926 1.04443 33.2113 1.25096C33.3299 1.45749 33.372 1.6995 33.3299 1.93416C33.1931 2.56613 32.9944 3.18305 32.8257 3.81503C32.5671 4.78743 32.2278 5.73351 31.9317 6.69463C31.7386 7.32284 31.107 7.85135 30.6009 7.8194Z" fill="#656565"/>
<path d="M40.3362 42.0984C40.3353 42.305 40.2725 42.5065 40.1561 42.6768C40.0396 42.8471 39.8748 42.9785 39.6831 43.0537C39.4913 43.1288 39.2816 43.1445 39.0808 43.0986C38.8801 43.0527 38.6978 42.9473 38.5575 42.7962C37.7252 41.9498 36.8706 41.1278 36.0852 40.2288C35.7796 39.8752 35.4273 39.5592 35.148 39.1811C34.9975 38.9685 34.9017 38.7218 34.8688 38.4631C34.836 38.2043 34.8674 37.9415 34.9601 37.6978C35.0528 37.4541 35.204 37.237 35.4003 37.0661C35.5965 36.895 35.8317 36.7752 36.0852 36.7172C36.4246 36.632 36.7826 36.6637 37.1018 36.8074C37.421 36.951 37.6828 37.1981 37.8452 37.5091C38.4938 38.679 39.1329 39.8564 39.8489 40.9906C39.9689 41.1786 40.0776 41.3667 40.1956 41.568C40.2959 41.726 40.345 41.9113 40.3362 42.0984Z" fill="#656565"/>
<path d="M10.3503 35.3199C10.3619 35.6081 10.2907 35.8936 10.1451 36.1424C9.99958 36.3912 9.78582 36.5927 9.52931 36.723C8.52554 37.2822 7.56168 37.9107 6.64469 38.6038C6.32417 38.839 5.98679 39.0496 5.65127 39.2622C5.45094 39.3814 5.2158 39.4278 4.9854 39.3935C4.755 39.3593 4.54337 39.2465 4.38608 39.0741C4.04682 38.6979 3.98872 38.1148 4.32235 37.7575C5.15457 36.8603 5.90244 35.8879 6.75903 35.0246C7.10231 34.6506 7.47872 34.3089 7.88367 34.0032C8.08853 33.8649 8.32284 33.7765 8.56784 33.7453C8.81284 33.7141 9.06166 33.7409 9.29455 33.8235C9.52737 33.9062 9.73769 34.0424 9.90862 34.2212C10.0796 34.4001 10.2065 34.6165 10.2791 34.8534C10.3244 35.0048 10.3484 35.1618 10.3503 35.3199Z" fill="#656565"/>
<path d="M41.159 20.8164C41.1521 20.3992 41.3104 19.9962 41.5992 19.6961C41.8882 19.3959 42.284 19.2232 42.6998 19.2158C43.7157 19.2158 44.7297 19.2854 45.7438 19.3456C46.293 19.3775 46.8421 19.37 47.3913 19.3456C47.6436 19.3367 47.8902 19.4216 48.084 19.5839C48.2779 19.7462 48.4052 19.9745 48.4416 20.2252C48.4781 20.4758 48.4211 20.7312 48.2816 20.9423C48.1421 21.1535 47.9299 21.3055 47.6856 21.3694C47.0614 21.5368 46.4392 21.7004 45.8112 21.8132C45.232 21.9167 44.6566 22.0352 44.0793 22.1424C43.7045 22.2101 43.3296 22.3061 42.9547 22.3643C42.5889 22.4143 42.2171 22.3348 41.9034 22.1395C41.5897 21.9442 41.3537 21.6452 41.2359 21.2942C41.1787 21.1416 41.1525 20.9792 41.159 20.8164Z" fill="#656565"/>
<path d="M18.6649 1.14258C18.637 0.891317 18.7024 0.638558 18.8484 0.432535C18.9944 0.226513 19.2109 0.0816542 19.4566 0.0256048C19.7022 -0.0304448 19.9599 0.00623829 20.1804 0.128654C20.4008 0.25107 20.5686 0.450648 20.6517 0.6893C20.9704 1.69556 21.4558 2.63223 21.812 3.62345C21.9469 3.99962 22.0312 4.38896 22.1381 4.77454C22.2157 4.99787 22.263 5.23069 22.2787 5.4667C22.2848 5.79695 22.1889 6.12101 22.0042 6.39441C21.8194 6.66783 21.555 6.8772 21.247 6.99381C20.939 7.11042 20.6026 7.12857 20.2839 7.04575C19.9653 6.96294 19.68 6.78323 19.4671 6.53127C19.2324 6.2621 19.1032 5.91652 19.1035 5.55886C19.1246 4.79956 19.0731 4.03998 18.9498 3.29054C18.8486 2.70935 18.7624 2.12816 18.7043 1.53945C18.6855 1.40779 18.6761 1.27425 18.6649 1.14258Z" fill="#656565"/>
<path d="M41.8488 29.2788C42.1418 29.2708 42.4314 29.343 42.6866 29.4876C43.7006 30.0612 44.6716 30.7026 45.6725 31.2951C46.0305 31.5057 46.4072 31.6713 46.7708 31.88C46.9809 31.9985 47.1415 32.189 47.2231 32.4165C47.3046 32.6442 47.3018 32.8935 47.2151 33.1192C47.1284 33.3449 46.9636 33.5316 46.7509 33.6453C46.5382 33.759 46.2918 33.792 46.0568 33.7383C45.305 33.5625 44.5624 33.3491 43.8319 33.0988C43.0822 32.8449 42.3324 32.5891 41.5826 32.3766C41.3409 32.3179 41.1157 32.2048 40.9241 32.0457C40.7325 31.8867 40.5795 31.686 40.4768 31.4587C40.3953 31.2671 40.3526 31.0612 40.3514 30.8529C40.35 30.6447 40.39 30.4382 40.4691 30.2456C40.5481 30.053 40.6646 29.8782 40.8117 29.7312C40.9588 29.5842 41.1336 29.4681 41.3258 29.3898C41.4926 29.3233 41.6695 29.2857 41.8488 29.2788Z" fill="#656565"/>
<path d="M42.4562 8.50021C42.6611 8.49414 42.8631 8.55009 43.0359 8.66079C43.2087 8.77149 43.3444 8.93184 43.4252 9.12092C43.5132 9.30347 43.541 9.50942 43.5047 9.70892C43.4683 9.90842 43.3695 10.0911 43.2228 10.2306C42.473 10.9829 41.7233 11.7353 40.9154 12.4256C40.5406 12.7397 40.1976 13.0764 39.832 13.3923C39.663 13.5369 39.4656 13.6441 39.2526 13.7071C39.0396 13.7701 38.8157 13.7874 38.5956 13.758C38.3755 13.7285 38.164 13.653 37.9748 13.5361C37.7857 13.4193 37.6231 13.2639 37.4977 13.08C37.3723 12.8961 37.2869 12.6878 37.2469 12.4686C37.207 12.2494 37.2133 12.0242 37.2657 11.8076C37.3181 11.591 37.4154 11.388 37.551 11.2115C37.6867 11.0351 37.8578 10.8893 38.0533 10.7836C38.9623 10.2983 39.8883 9.84317 40.7824 9.32589C41.1703 9.10209 41.5546 8.87079 41.9444 8.64692C42.0927 8.53959 42.2737 8.48769 42.4562 8.50021Z" fill="#656565"/>
<path d="M29.733 44.0863C29.6937 45.0268 29.733 45.9767 29.7649 46.919C29.7737 47.1164 29.7261 47.3122 29.6275 47.4833C29.529 47.6543 29.3837 47.7935 29.2088 47.8843C29.0339 47.9751 28.8367 48.0137 28.6406 47.9957C28.4446 47.9776 28.2577 47.9036 28.1023 47.7823C27.9015 47.6154 27.7629 47.3855 27.7087 47.1296C27.5512 46.5653 27.3881 46.0199 27.2326 45.4631C27.0658 44.8631 26.9365 44.2519 26.7959 43.6425C26.6983 43.2922 26.6231 42.936 26.5709 42.576C26.5549 42.3603 26.583 42.1435 26.6534 41.939C26.7238 41.7346 26.8351 41.5466 26.9805 41.3869C27.1258 41.227 27.3021 41.0986 27.4986 41.0096C27.6951 40.9206 27.9076 40.8727 28.1232 40.8691C28.3388 40.8653 28.5528 40.9058 28.7522 40.988C28.9517 41.0702 29.1323 41.1924 29.283 41.3471C29.4337 41.5018 29.5513 41.6857 29.6287 41.8877C29.7061 42.0896 29.7416 42.3053 29.733 42.5215V44.0863Z" fill="#656565"/>
<path d="M7.78047 17.8539C7.7789 18.0945 7.72284 18.3316 7.61656 18.5473C7.51028 18.763 7.35661 18.9517 7.16709 19.0991C6.97758 19.2466 6.75718 19.3489 6.52251 19.3984C6.28785 19.4479 6.04505 19.4433 5.81242 19.3849C5.47785 19.2722 5.16195 19.1098 4.87524 18.9034C4.1911 18.4933 3.47509 18.151 2.75721 17.8087C2.39171 17.6376 2.02808 17.4607 1.67382 17.2689C0.959698 16.8814 0.877221 15.973 1.50701 15.5028C1.63107 15.4115 1.77376 15.349 1.9248 15.3197C2.07583 15.2905 2.23146 15.2952 2.38046 15.3335C3.73188 15.6288 5.10203 15.8376 6.43096 16.2363C6.93329 16.3887 7.35127 16.6238 7.60431 17.1015C7.72367 17.334 7.78421 17.5924 7.78047 17.8539Z" fill="#656565"/>
</svg>
