<svg width="158" height="48" viewBox="0 0 158 48" fill="none" xmlns="http://www.w3.org/2000/svg">
<g clip-path="url(#clip0_342_1515)">
<path d="M35.5148 0.0787499C35.4371 0.314816 35.3595 0.472193 35.3595 0.550881C35.4371 1.02302 35.5925 1.49515 35.6701 1.96728C36.136 4.40662 36.6019 6.92465 37.0678 9.36402C37.6891 12.5116 38.3879 15.7378 39.0091 18.8853C39.5527 21.5607 40.0186 24.2361 40.5622 26.9116C41.0281 29.4296 41.494 31.9476 42.0376 34.4657C42.4258 36.5902 42.8917 38.7148 43.28 40.9181C43.28 41.0755 43.3577 41.3116 43.4353 41.3902C43.513 41.4689 43.7459 41.4689 43.8236 41.3902C43.9789 41.2329 44.0565 40.9968 44.0565 40.8394C44.7554 38.7935 45.4543 36.8263 46.1531 34.7804C47.085 31.9476 48.0944 29.0361 49.0263 26.2034C49.8028 23.8427 50.5793 21.5607 51.4335 19.2001C51.5888 18.728 51.5111 18.4132 51.2005 18.0198C49.8028 16.3673 48.405 14.7935 47.0073 13.1411C44.7554 10.5443 42.5035 7.94762 40.2516 5.35088C38.8538 3.77711 37.4561 2.20334 36.136 0.62957C35.9807 0.393504 35.7478 0.314816 35.5148 0.0787499Z" fill="#656565"/>
<path d="M35.5148 0.0787499C35.7478 0.314816 35.9807 0.472193 36.136 0.62957C37.5338 2.20334 38.9315 3.77711 40.2516 5.35088C42.5035 7.94762 44.7554 10.5443 47.0073 13.1411C48.405 14.7935 49.8028 16.3673 51.2005 18.0198C51.5111 18.4132 51.5888 18.728 51.4335 19.2001C50.657 21.5607 49.8028 23.8427 49.0263 26.2034C48.0944 29.0361 47.085 31.9476 46.1531 34.7804C45.4543 36.8263 44.7554 38.8722 44.0565 40.8394C43.9789 41.0755 43.9012 41.2329 43.8236 41.3902C43.7459 41.4689 43.513 41.4689 43.4353 41.3902C43.3577 41.2329 43.28 41.0755 43.28 40.9181C42.8141 38.7935 42.4258 36.6689 42.0376 34.4657C41.5717 31.9476 41.0281 29.4296 40.5622 26.9116C40.0186 24.2361 39.5527 21.5607 39.0091 18.8853C38.3879 15.7378 37.6891 12.5116 37.0678 9.36402C36.6019 6.92465 36.136 4.48531 35.6701 1.96728C35.5925 1.49515 35.4371 1.02302 35.3595 0.550881C35.3595 0.393504 35.4371 0.236127 35.5148 0.0787499Z" fill="#656565"/>
<path fill-rule="evenodd" clip-rule="evenodd" d="M40.3683 38.8721C40.5431 39.7377 40.7178 40.6033 40.8731 41.4689C41.106 42.4918 41.0284 42.5705 40.2519 42.8853C39.1259 43.1213 37.9805 43.3377 36.8352 43.5541C35.6898 43.7705 34.5444 43.9869 33.4185 44.223C31.7878 44.5377 30.2347 44.8525 28.6817 45.1672L22.3919 46.3475C20.9942 46.5836 19.5964 46.8984 18.1987 47.2131C18.0434 47.2525 17.9075 47.2721 17.7716 47.2918C17.6357 47.3115 17.4998 47.3312 17.3445 47.3705C16.7804 47.442 16.4723 47.124 16.1297 46.7703C16.0951 46.7346 16.0601 46.6985 16.0244 46.6623C12.6855 42.728 9.34658 38.8724 6.00769 35.0169C4.94137 33.7305 3.84147 32.4774 2.75217 31.2363C2.17563 30.5794 1.60196 29.9258 1.03758 29.2721C0.494015 28.6426 0.494015 28.0918 0.726972 27.3836C1.96941 23.9213 3.13419 20.459 4.29897 16.9967C5.16673 14.3001 6.07759 11.6034 6.99944 8.87426C7.31497 7.94007 7.63179 7.00213 7.94861 6.05905C8.25922 4.95741 8.88043 4.48528 9.88991 4.3279C11.0159 4.13118 12.1418 3.91479 13.2678 3.69839C14.3937 3.482 15.5197 3.26561 16.6456 3.06889C17.6481 2.85627 18.6576 2.65073 19.6741 2.44378C22.0432 1.96142 24.4504 1.47131 26.8957 0.865607C28.3711 0.550855 29.9241 0.236101 31.4772 -0.0786534C32.7196 -0.314719 32.9526 -0.157342 33.1855 1.10167C33.2699 1.70005 33.3772 2.27521 33.4825 2.83977C33.571 3.31458 33.6581 3.7819 33.7291 4.24921C33.8067 5.0361 33.4185 5.50823 32.5643 5.27216C31.7878 5.0361 31.1666 4.56397 30.7783 3.85577C30.7692 3.83738 30.7601 3.81872 30.7511 3.79994C30.6038 3.4972 30.4405 3.16137 30.0018 3.38364C29.5359 3.61971 29.5359 4.09184 29.7688 4.40659C30.0794 4.95741 30.4677 5.42954 30.9336 5.82298C31.3219 6.13774 31.4772 6.3738 31.0889 6.84593C30.4677 7.63282 30.2347 8.57705 30.2347 9.6C30.3124 11.6459 31.6325 13.0623 33.6514 13.0623C33.7809 13.0623 33.9102 13.0536 34.0397 13.0448C34.2985 13.0274 34.5574 13.0099 34.8162 13.0623C34.9094 13.0623 35.0026 13.1473 35.0958 13.2323C35.1579 13.2889 35.22 13.3456 35.2821 13.3771C35.2173 13.4428 35.166 13.5222 35.117 13.5982C35.0485 13.7041 34.9843 13.8034 34.8939 13.8492C34.7745 13.9097 34.6323 13.9469 34.4935 13.9833C34.2711 14.0414 34.0577 14.0973 33.962 14.2426C33.8067 14.6361 33.8067 15.1082 33.8067 15.5016C33.8067 17.6262 33.8844 19.8294 33.962 22.0326L33.9635 22.0505C34.0398 22.9781 34.0461 23.0548 35.0492 22.8984C35.321 22.859 35.5733 22.8393 35.8257 22.8197C36.0781 22.8 36.3304 22.7803 36.6022 22.741C36.9905 22.741 37.3011 22.8197 37.3011 23.2918C37.3011 23.3456 37.3021 23.3982 37.3031 23.4497C37.3107 23.8504 37.3169 24.1753 36.8352 24.3148C36.5001 24.3997 36.1424 24.4617 35.7744 24.5255C35.46 24.5799 35.1382 24.6357 34.8162 24.7082C33.8067 24.8656 33.5738 25.1803 33.5738 26.2033C33.5738 26.9902 33.6514 27.0689 34.3503 26.9115C34.7774 26.8328 35.2239 26.7344 35.6704 26.6361C36.1169 26.5377 36.5634 26.4393 36.9905 26.3607C37.3787 26.282 37.6893 26.282 37.9223 26.7541C38.2329 27.4623 38.0776 27.8557 37.3011 28.0131C36.7575 28.1312 36.2334 28.2295 35.7092 28.3279C35.1851 28.4262 34.6609 28.5246 34.1173 28.6426C33.2632 28.8787 32.7973 29.4295 32.642 30.2951C32.642 30.6885 32.7196 30.8459 33.1079 30.7672L35.6704 30.2951C36.0198 30.2164 36.3887 30.1574 36.7575 30.0984C37.1264 30.0393 37.4952 29.9803 37.8446 29.9016C38.3882 29.823 38.6212 30.1377 38.6988 30.6098C38.7765 31.082 38.6988 31.4754 38.1553 31.5541C37.5729 31.6721 36.9905 31.7705 36.4081 31.8689C35.8257 31.9672 35.2433 32.0656 34.6609 32.1836C34.5444 32.223 34.428 32.2426 34.3115 32.2623C34.195 32.282 34.0785 32.3016 33.962 32.341C33.2632 32.5771 33.2632 32.6557 33.8067 33.2066C34.2008 33.5793 34.5948 33.9609 34.9919 34.3456C35.7685 35.0978 36.5566 35.8613 37.3787 36.5902C38 37.2197 38.2329 37.141 38.6212 36.2754C38.6212 36.2754 38.6212 36.1967 38.6988 36.118L39.4753 35.3312C39.6306 35.6459 39.7859 35.9607 39.8636 36.2754C40.0189 37.141 40.1936 38.0066 40.3683 38.8721ZM22.9354 34.0721C24.9544 35.9607 27.6722 35.4885 29.3029 33.9148C30.4677 32.7344 31.3219 31.3967 31.9431 29.823C33.1079 26.518 33.4185 23.0557 33.4185 19.5148C33.3797 18.8066 33.3408 18.0787 33.302 17.3508C33.2632 16.623 33.2243 15.8951 33.1855 15.1869C33.1079 14.4 32.8749 14.2426 32.176 14.5574L31.7101 14.7934C31.1454 15.1549 30.5692 15.4933 29.9947 15.8307C29.0685 16.3748 28.1467 16.9162 27.284 17.5475C24.7991 19.2787 22.6248 21.2459 21.2271 24.0787C19.5188 27.541 20.3729 31.5541 22.9354 34.0721ZM29.9241 12.9051C30.4677 13.2198 31.0113 13.6133 31.4772 14.0067C31.4772 14.0067 31.4772 14.0854 31.5548 14.2428C31.516 14.2821 31.4578 14.3215 31.3995 14.3608C31.3413 14.4002 31.283 14.4395 31.2442 14.4788C30.4677 14.951 29.6912 15.3444 28.9147 15.7379C28.5264 15.8952 28.2934 15.6592 28.4487 15.3444C28.7594 14.5575 29.07 13.7706 29.4582 13.0625C29.5359 12.9838 29.8465 12.8264 29.9241 12.9051Z" fill="#656565"/>
<path d="M64.5567 1.96731C64.8673 2.20338 65.0226 2.59682 65.0226 3.06895C65.0226 3.54108 64.8673 3.93452 64.5567 4.17059C64.2461 4.40665 63.7801 4.56403 63.2366 4.56403H61.9942V5.98042H61.5282V1.49518H63.2366C63.7801 1.49518 64.2461 1.65256 64.5567 1.96731ZM64.2461 3.93452C64.479 3.69846 64.6343 3.46239 64.6343 3.06895C64.6343 2.67551 64.479 2.43944 64.2461 2.20338C64.0131 1.96731 63.7025 1.88862 63.2366 1.88862H62.0718V4.17059H63.2366C63.6248 4.24928 64.0131 4.0919 64.2461 3.93452Z" fill="#656565"/>
<path d="M69.2935 6.05911H66.1098V1.49518H69.2158V1.88862H66.5757V3.54108H68.9052V3.93452H66.5757V5.58698H69.2935V6.05911Z" fill="#656565"/>
<path d="M73.176 1.96731H70.7688V6.05911H70.3029V1.49518H73.176V1.96731Z" fill="#656565"/>
<path d="M74.0303 1.49518H74.4962V5.27223L77.3693 1.49518H77.8352V6.05911H77.3693V2.28206L74.4962 6.05911H74.0303V1.49518Z" fill="#656565"/>
<path d="M80.0871 5.82307C79.6989 5.587 79.4659 5.35094 79.2329 4.95749C79 4.64274 78.9223 4.2493 78.9223 3.77717C78.9223 3.30504 79 2.91159 79.2329 2.59684C79.4659 2.28209 79.6989 1.96733 80.0871 1.73127C80.4754 1.4952 80.8636 1.41651 81.3296 1.41651C81.7955 1.41651 82.1837 1.4952 82.4943 1.73127C82.8826 1.96733 83.1155 2.2034 83.3485 2.59684C83.5815 2.91159 83.6591 3.38372 83.6591 3.77717C83.6591 4.17061 83.5815 4.64274 83.3485 4.95749C83.1155 5.27225 82.8826 5.587 82.4943 5.82307C82.1061 6.05913 81.7178 6.13782 81.3296 6.13782C80.8636 6.13782 80.4754 5.98045 80.0871 5.82307ZM82.2614 5.42963C82.572 5.27225 82.8049 5.03618 82.9602 4.72143C83.1155 4.40668 83.1932 4.09192 83.1932 3.77717C83.1932 3.46241 83.1155 3.06897 82.9602 2.83291C82.8049 2.51815 82.572 2.28209 82.2614 2.12471C81.9508 1.96733 81.6402 1.88864 81.3296 1.88864C80.9413 1.88864 80.6307 1.96733 80.3977 2.12471C80.0871 2.28209 79.8542 2.51815 79.6989 2.83291C79.5435 3.14766 79.4659 3.46241 79.4659 3.77717C79.4659 4.09192 79.5435 4.48536 79.6989 4.72143C79.8542 5.03618 80.0871 5.27225 80.3977 5.42963C80.7083 5.587 81.0189 5.66569 81.3296 5.66569C81.6402 5.66569 81.9508 5.587 82.2614 5.42963Z" fill="#656565"/>
<path d="M88.4735 1.49518V6.05911H88.0076V4.01321H85.2122V6.1378H84.7462V1.49518H85.2122V3.54108H88.0076V1.49518H88.4735Z" fill="#656565"/>
<path d="M92.8997 4.87879H90.4148L89.8712 6.05911H89.4053L91.4243 1.49518H91.8902L93.9091 6.05911H93.4432L92.8997 4.87879ZM92.6667 4.48534L91.5796 2.046L90.4925 4.48534H92.6667Z" fill="#656565"/>
<path d="M98.2576 1.49518V6.05911H97.7917V1.96731H95.6175L95.5398 3.46239C95.5398 4.0919 95.4622 4.56403 95.3845 4.95747C95.3069 5.35092 95.1516 5.66567 94.9963 5.82305C94.841 5.98043 94.608 6.1378 94.375 6.1378C94.2974 6.1378 94.1421 6.1378 93.9868 6.05911V5.66567C94.0644 5.66567 94.1421 5.66567 94.2197 5.66567C94.375 5.66567 94.5303 5.58698 94.6856 5.42961C94.841 5.27223 94.9186 5.03616 94.9186 4.72141C94.9963 4.40665 94.9963 4.01321 95.0739 3.46239L95.1516 1.49518H98.2576Z" fill="#656565"/>
<path d="M102.839 3.54108C103.15 3.77715 103.227 4.17059 103.227 4.64272C103.227 5.11485 103.072 5.50829 102.762 5.74436C102.451 5.98043 102.063 6.1378 101.441 6.1378H99.6555V1.49518H100.121V3.14764H101.519C102.14 3.14764 102.529 3.30502 102.839 3.54108ZM102.451 5.42961C102.684 5.27223 102.762 4.95747 102.762 4.64272C102.762 3.93452 102.373 3.61977 101.519 3.61977H100.199V5.74436H101.519C101.907 5.66567 102.218 5.58698 102.451 5.42961Z" fill="#656565"/>
<path d="M108.042 1.49518V6.05911H107.576V4.01321H104.78V6.1378H104.315V1.49518H104.78V3.54108H107.576V1.49518H108.042Z" fill="#656565"/>
<path d="M112.623 3.54108C112.934 3.77715 113.012 4.17059 113.012 4.64272C113.012 5.11485 112.856 5.50829 112.546 5.74436C112.235 5.98043 111.847 6.1378 111.226 6.1378H109.44V1.49518H109.905V3.14764H111.303C111.924 3.14764 112.313 3.30502 112.623 3.54108ZM112.235 5.42961C112.468 5.27223 112.546 4.95747 112.546 4.64272C112.546 3.93452 112.157 3.61977 111.303 3.61977H109.983V5.74436H111.303C111.691 5.66567 112.002 5.58698 112.235 5.42961ZM113.788 1.49518H114.254V6.05911H113.788V1.49518Z" fill="#656565"/>
<path d="M115.807 1.49518H116.273V5.27223L119.146 1.49518H119.612V6.05911H119.146V2.28206L116.273 6.05911H115.807V1.49518ZM116.894 0.94436C116.739 0.786983 116.584 0.629609 116.584 0.314855H116.972C116.972 0.472232 117.049 0.629609 117.127 0.708297C117.282 0.786983 117.438 0.865671 117.593 0.865671C117.826 0.865671 117.981 0.786983 118.059 0.708297C118.214 0.629609 118.214 0.472232 118.292 0.314855H118.68C118.68 0.55092 118.603 0.786983 118.37 0.94436C118.214 1.10174 117.904 1.18043 117.593 1.18043C117.36 1.18043 117.127 1.10174 116.894 0.94436Z" fill="#656565"/>
<path d="M62.3048 14.6361C61.9165 14.4001 61.6836 14.164 61.4506 13.7706C61.2176 13.4558 61.14 13.0624 61.14 12.5902C61.14 12.1181 61.2176 11.7247 61.4506 11.4099C61.6836 11.0952 61.9165 10.7804 62.3048 10.5443C62.693 10.3083 63.0813 10.2296 63.5472 10.2296C64.0131 10.2296 64.4014 10.3083 64.712 10.5443C65.1002 10.7804 65.3332 11.0165 65.5662 11.4099C65.7991 11.7247 65.8768 12.1968 65.8768 12.5902C65.8768 13.0624 65.7991 13.4558 65.5662 13.7706C65.3332 14.0853 65.1002 14.4001 64.712 14.6361C64.3237 14.8722 63.9355 14.9509 63.5472 14.9509C63.0813 14.9509 62.693 14.8722 62.3048 14.6361ZM64.479 14.2427C64.7896 14.0853 65.0226 13.8493 65.1779 13.5345C65.3332 13.2197 65.4109 12.905 65.4109 12.5902C65.4109 12.1968 65.3332 11.882 65.1779 11.646C65.0226 11.3312 64.7896 11.0952 64.479 10.9378C64.1684 10.7804 63.8578 10.7017 63.5472 10.7017C63.1589 10.7017 62.8483 10.7804 62.6154 10.9378C62.3048 11.0952 62.0718 11.3312 61.9165 11.646C61.7612 11.9607 61.6836 12.2755 61.6836 12.5902C61.6836 12.9837 61.7612 13.2984 61.9165 13.5345C62.0718 13.8493 62.3048 14.0853 62.6154 14.2427C62.926 14.4001 63.2366 14.4788 63.5472 14.4788C63.8578 14.4788 64.1684 14.4001 64.479 14.2427Z" fill="#656565"/>
<path d="M66.9639 10.387H70.2253V10.7804H67.4298V12.2755H68.9052C69.4488 12.2755 69.837 12.3542 70.1476 12.5902C70.4582 12.8263 70.5359 13.1411 70.5359 13.5345C70.5359 14.0066 70.3806 14.3214 70.07 14.5574C69.7594 14.7935 69.3711 14.8722 68.8275 14.8722H66.9639V10.387ZM68.7499 14.5574C69.1382 14.5574 69.4488 14.4788 69.6817 14.3214C69.9147 14.164 69.9923 13.9279 69.9923 13.6132C69.9923 13.2984 69.9147 13.0624 69.6817 12.905C69.4488 12.7476 69.1382 12.6689 68.7499 12.6689H67.4298V14.5574H68.7499Z" fill="#656565"/>
<path d="M77.1363 10.387V14.9509H71.623V10.387H72.0889V14.4788H74.1078V10.387H74.5738V14.4788H76.6704V10.387H77.1363ZM77.8351 14.4788V15.8952H77.3692V14.8722H76.6704V14.4788H77.8351Z" fill="#656565"/>
<path d="M81.9507 14.8722H78.767V10.3083H81.8731V10.7017H79.2329V12.3542H81.5625V12.7476H79.2329V14.4001H81.9507V14.8722Z" fill="#656565"/>
<path d="M83.8144 14.6361C83.4262 14.4001 83.1932 14.164 82.9603 13.7706C82.7273 13.4558 82.6496 12.9837 82.6496 12.5902C82.6496 12.1181 82.7273 11.7247 82.9603 11.4099C83.1932 11.0952 83.4262 10.7804 83.8144 10.5443C84.2027 10.3083 84.5909 10.2296 85.0568 10.2296C85.3675 10.2296 85.6781 10.3083 85.9887 10.387C86.2993 10.4657 86.5322 10.7017 86.6875 10.8591L86.3769 11.1738C85.9887 10.7804 85.6004 10.623 85.0568 10.623C84.6686 10.623 84.358 10.7017 84.125 10.8591C83.8144 11.0165 83.5815 11.2525 83.4262 11.5673C83.2709 11.882 83.1932 12.1968 83.1932 12.5116C83.1932 12.905 83.2709 13.2197 83.4262 13.4558C83.5815 13.7706 83.8144 13.9279 84.125 14.164C84.4356 14.3214 84.7462 14.4001 85.0568 14.4001C85.6004 14.4001 86.0663 14.2427 86.3769 13.8493L86.6875 14.164C86.4546 14.4001 86.2216 14.5575 85.9887 14.6361C85.6781 14.7148 85.3675 14.7935 85.0568 14.7935C84.5133 14.9509 84.125 14.8722 83.8144 14.6361Z" fill="#656565"/>
<path d="M88.9394 10.7804V14.8722H88.4735V10.7804H86.9205V10.387H90.5701V10.7804H88.9394Z" fill="#656565"/>
<path d="M94.6856 12.905C94.8409 13.0624 94.9186 13.3771 94.9186 13.6132C94.9186 14.0066 94.7633 14.3214 94.5303 14.5575C94.2197 14.7935 93.8315 14.8722 93.2879 14.8722H91.269V10.3083H93.1326C93.5985 10.3083 93.9868 10.387 94.2197 10.623C94.4527 10.8591 94.608 11.0952 94.608 11.4886C94.608 11.7247 94.5303 11.9607 94.4527 12.1181C94.2974 12.2755 94.1421 12.4329 93.9091 12.5116C94.2974 12.5903 94.5303 12.7476 94.6856 12.905ZM91.7349 12.4329H93.1326C93.4432 12.4329 93.7538 12.3542 93.9091 12.1968C94.0644 12.0394 94.2197 11.8821 94.2197 11.5673C94.2197 11.3312 94.1421 11.0952 93.9091 10.9378C93.7538 10.7804 93.4432 10.7017 93.1326 10.7017H91.7349V12.4329ZM94.4527 13.6132C94.4527 13.0624 94.0644 12.7476 93.2879 12.7476H91.7349V14.4788H93.2879C94.0644 14.5575 94.4527 14.2427 94.4527 13.6132Z" fill="#656565"/>
<path d="M99.3448 14.8722H96.1611V10.3083H99.2672V10.7017H96.627V12.3542H98.9566V12.7476H96.627V14.4001H99.3448V14.8722Z" fill="#656565"/>
<path d="M104.159 10.387V14.9509H103.693V12.8263H100.898V14.9509H100.432V10.387H100.898V12.4329H103.693V10.387H104.159Z" fill="#656565"/>
<path d="M109.44 10.387V14.9509H108.974V12.8263H106.178V14.9509H105.712V10.387H106.178V12.4329H108.974V10.387H109.44Z" fill="#656565"/>
<path d="M114.021 12.3542C114.332 12.5902 114.409 12.9837 114.409 13.4558C114.409 13.9279 114.254 14.3214 113.943 14.5574C113.633 14.7935 113.244 14.9509 112.623 14.9509H110.837V10.387H111.303V12.0394H112.701C113.322 11.9607 113.71 12.1181 114.021 12.3542ZM113.633 14.2427C113.866 14.0853 113.943 13.7706 113.943 13.4558C113.943 12.7476 113.555 12.4329 112.701 12.4329H111.381V14.5574H112.701C113.089 14.5574 113.4 14.4001 113.633 14.2427ZM115.186 10.387H115.652V14.9509H115.186V10.387Z" fill="#656565"/>
<path d="M117.205 10.387H117.671V14.164L120.544 10.387H121.01V14.9509H120.544V11.1738L117.671 14.9509H117.205V10.387ZM118.292 9.83614C118.137 9.67876 117.981 9.52139 117.981 9.20663H118.37C118.37 9.36401 118.447 9.52139 118.525 9.60007C118.68 9.67876 118.835 9.75745 118.991 9.75745C119.224 9.75745 119.379 9.67876 119.457 9.60007C119.612 9.52139 119.612 9.36401 119.69 9.20663H120.078C120.078 9.4427 120 9.67876 119.767 9.83614C119.612 9.99352 119.301 10.0722 118.991 10.0722C118.758 9.99352 118.525 9.99352 118.292 9.83614Z" fill="#656565"/>
<path d="M128.076 14.0066C127.688 14.3214 127.067 14.5575 126.29 14.5575V15.0296H125.824V14.5575C125.048 14.5575 124.504 14.3214 124.038 14.0066C123.65 13.6919 123.417 13.2197 123.417 12.5902C123.417 11.9607 123.65 11.4886 124.038 11.1738C124.426 10.8591 125.048 10.623 125.824 10.623V10.2296H126.29V10.7017C127.067 10.7017 127.61 10.9378 128.076 11.2525C128.464 11.5673 128.697 12.0394 128.697 12.6689C128.697 13.2198 128.464 13.6919 128.076 14.0066ZM124.426 13.7706C124.737 14.0066 125.281 14.164 125.824 14.2427V11.0952C125.203 11.0952 124.737 11.2525 124.349 11.5673C124.038 11.8034 123.883 12.1968 123.883 12.6689C123.96 13.1411 124.116 13.4558 124.426 13.7706ZM127.765 13.7706C128.076 13.5345 128.309 13.1411 128.309 12.6689C128.309 12.1968 128.154 11.8034 127.765 11.5673C127.377 11.3312 126.911 11.1738 126.368 11.0952V14.2427C126.911 14.164 127.377 14.0066 127.765 13.7706Z" fill="#656565"/>
<path d="M130.483 14.6361C130.095 14.4001 129.862 14.164 129.629 13.7706C129.396 13.4558 129.318 13.0624 129.318 12.5902C129.318 12.1181 129.396 11.7247 129.629 11.4099C129.862 11.0952 130.095 10.7804 130.483 10.5443C130.872 10.3083 131.26 10.2296 131.726 10.2296C132.192 10.2296 132.58 10.3083 132.89 10.5443C133.279 10.7804 133.512 11.0165 133.745 11.4099C133.978 11.7247 134.055 12.1968 134.055 12.5902C134.055 13.0624 133.978 13.4558 133.745 13.7706C133.512 14.0853 133.279 14.4001 132.89 14.6361C132.502 14.8722 132.114 14.9509 131.726 14.9509C131.26 14.9509 130.872 14.8722 130.483 14.6361ZM132.658 14.2427C132.968 14.0853 133.201 13.8493 133.356 13.5345C133.512 13.2197 133.589 12.905 133.589 12.5902C133.589 12.1968 133.512 11.882 133.356 11.646C133.201 11.3312 132.968 11.0952 132.658 10.9378C132.347 10.7804 132.036 10.7017 131.726 10.7017C131.337 10.7017 131.027 10.7804 130.794 10.9378C130.483 11.0952 130.25 11.3312 130.095 11.646C129.94 11.9607 129.862 12.2755 129.862 12.5902C129.862 12.9837 129.94 13.2984 130.095 13.5345C130.25 13.8493 130.483 14.0853 130.794 14.2427C131.104 14.4001 131.415 14.4788 131.726 14.4788C132.114 14.4788 132.425 14.4001 132.658 14.2427Z" fill="#656565"/>
<path d="M138.947 10.387V14.9509H138.481V12.8263H135.686V14.9509H135.22V10.387H135.686V12.4329H138.481V10.387H138.947Z" fill="#656565"/>
<path d="M144.538 15.8952H144.072V14.8722H140.19V15.8952H139.724V14.4788H139.957C140.267 14.4788 140.423 14.2427 140.578 13.7706C140.656 13.2985 140.733 12.6689 140.811 11.8034L140.889 10.3083H143.917V14.4001H144.538V15.8952ZM141.044 13.6132C140.966 14.0853 140.811 14.4001 140.656 14.4788H143.451V10.7804H141.277V11.8821C141.199 12.5903 141.122 13.1411 141.044 13.6132Z" fill="#656565"/>
<path d="M64.4014 19.5935H61.9942V23.6853H61.5282V19.1214H64.4014V19.5935Z" fill="#656565"/>
<path d="M68.7499 19.2001L66.7309 23.0558C66.5756 23.2919 66.4203 23.5279 66.1874 23.6853C65.9544 23.8427 65.7991 23.9214 65.5661 23.9214C65.4108 23.9214 65.1779 23.8427 65.0226 23.764L65.1779 23.3706C65.3332 23.4493 65.4885 23.4492 65.5661 23.4492C65.8768 23.4492 66.1097 23.2919 66.265 22.9771L66.4203 22.7411L64.6343 19.2788H65.1779L66.7309 22.3476L68.3616 19.2788H68.7499V19.2001Z" fill="#656565"/>
<path d="M74.2632 19.2001V23.764H73.7972V20.1443L72.0112 23.2132H71.7783L69.9923 20.1443V23.764H69.5264V19.2001H69.9146L71.8559 22.5837L73.7972 19.2001H74.2632Z" fill="#656565"/>
<path d="M78.6117 22.505H76.1268L75.5832 23.6853H75.1173L77.1363 19.1214H77.6022L79.6211 23.6853H79.1552L78.6117 22.505ZM78.4564 22.1116L77.3692 19.6722L76.2821 22.1116H78.4564Z" fill="#656565"/>
<path d="M84.2027 19.2001V23.764H83.7368V21.6394H80.9413V23.764H80.4754V19.2001H80.9413V21.246H83.7368V19.2001H84.2027Z" fill="#656565"/>
<path d="M85.7557 19.2001H86.2216V22.9771L89.0947 19.2001H89.5607V23.764H89.0947V19.987L86.2216 23.764H85.7557V19.2001Z" fill="#656565"/>
<path d="M92.3561 19.5935V23.6853H91.8902V19.5935H90.3372V19.2001H93.9868V19.5935H92.3561Z" fill="#656565"/>
<path d="M97.5588 22.505H95.0739L94.5304 23.6853H94.0645L96.0834 19.1214H96.5493L98.5683 23.6853H98.1024L97.5588 22.505ZM97.4035 22.1116L96.3164 19.6722L95.2293 22.1116H97.4035Z" fill="#656565"/>
<path d="M102.451 19.5935C102.761 19.9083 102.917 20.223 102.917 20.7739C102.917 21.246 102.761 21.6394 102.451 21.8755C102.14 22.1116 101.674 22.2689 101.131 22.2689H99.8883V23.6853H99.4224V19.1214H101.131C101.674 19.2001 102.14 19.2788 102.451 19.5935ZM102.063 21.5607C102.296 21.3247 102.451 21.0886 102.451 20.6952C102.451 20.3017 102.296 20.0657 102.063 19.8297C101.83 19.5936 101.519 19.5148 101.053 19.5148H99.8883V21.7969H101.053C101.519 21.8756 101.83 21.7968 102.063 21.5607Z" fill="#656565"/>
<path d="M107.731 19.2001V23.764H107.265V21.6394H104.47V23.764H104.004V19.2001H104.47V21.246H107.265V19.2001H107.731Z" fill="#656565"/>
<path d="M109.983 23.4493C109.595 23.2133 109.362 22.9772 109.129 22.5838C108.896 22.269 108.818 21.8756 108.818 21.4034C108.818 20.9313 108.896 20.5379 109.129 20.2231C109.362 19.9084 109.595 19.5936 109.983 19.3575C110.371 19.1215 110.76 19.0428 111.226 19.0428C111.691 19.0428 112.08 19.1215 112.39 19.3575C112.779 19.5936 113.012 19.8297 113.245 20.2231C113.477 20.5379 113.555 21.01 113.555 21.4034C113.555 21.7969 113.477 22.269 113.245 22.5838C113.012 22.8985 112.779 23.2133 112.39 23.4493C112.002 23.6854 111.614 23.7641 111.226 23.7641C110.76 23.7641 110.371 23.6854 109.983 23.4493ZM112.157 23.0559C112.468 22.8985 112.701 22.6625 112.856 22.3477C113.012 22.0329 113.089 21.7182 113.089 21.4034C113.089 21.0887 113.012 20.6952 112.856 20.4592C112.701 20.1444 112.468 19.9084 112.157 19.751C111.847 19.5936 111.536 19.5149 111.226 19.5149C110.837 19.5149 110.527 19.5936 110.294 19.751C109.983 19.9084 109.75 20.1444 109.595 20.4592C109.44 20.7739 109.362 21.0887 109.362 21.4034C109.362 21.7182 109.44 22.1116 109.595 22.3477C109.75 22.6625 109.983 22.8985 110.294 23.0559C110.604 23.2133 110.915 23.292 111.226 23.292C111.536 23.292 111.847 23.2133 112.157 23.0559Z" fill="#656565"/>
<path d="M114.642 19.2001H115.108V22.9771L117.981 19.2001H118.447V23.764H117.981V19.987L115.108 23.764H114.642V19.2001ZM115.807 18.6493C115.652 18.4919 115.496 18.3345 115.496 18.0197H115.885C115.885 18.1771 115.962 18.3345 116.04 18.4132C116.195 18.4919 116.351 18.5706 116.506 18.5706C116.739 18.5706 116.894 18.4919 116.972 18.4132C117.127 18.3345 117.127 18.1771 117.205 18.0197H117.593C117.593 18.2558 117.515 18.4919 117.282 18.6493C117.127 18.8066 116.817 18.8853 116.506 18.8853C116.195 18.8066 115.962 18.7279 115.807 18.6493Z" fill="#656565"/>
<path d="M125.514 19.2001V23.764H125.048V19.6722H122.174V23.764H121.709V19.2001H125.514Z" fill="#656565"/>
<path d="M127.843 23.4493C127.455 23.2133 127.222 22.9772 126.989 22.5838C126.756 22.269 126.678 21.8756 126.678 21.4034C126.678 20.9313 126.756 20.5379 126.989 20.2231C127.222 19.9084 127.455 19.5936 127.843 19.3575C128.231 19.1215 128.62 19.0428 129.086 19.0428C129.551 19.0428 129.94 19.1215 130.25 19.3575C130.639 19.5936 130.872 19.8297 131.105 20.2231C131.337 20.5379 131.415 21.01 131.415 21.4034C131.415 21.7969 131.337 22.269 131.105 22.5838C130.872 22.8985 130.639 23.2133 130.25 23.4493C129.862 23.6854 129.474 23.7641 129.086 23.7641C128.62 23.7641 128.154 23.6854 127.843 23.4493ZM130.017 23.0559C130.328 22.8985 130.561 22.6625 130.716 22.3477C130.872 22.0329 130.949 21.7182 130.949 21.4034C130.949 21.0887 130.872 20.6952 130.716 20.4592C130.561 20.1444 130.328 19.9084 130.017 19.751C129.707 19.5936 129.396 19.5149 129.086 19.5149C128.697 19.5149 128.387 19.5936 128.154 19.751C127.843 19.9084 127.61 20.1444 127.455 20.4592C127.3 20.7739 127.222 21.0887 127.222 21.4034C127.222 21.7182 127.3 22.1116 127.455 22.3477C127.61 22.6625 127.843 22.8985 128.154 23.0559C128.464 23.2133 128.775 23.292 129.086 23.292C129.396 23.292 129.707 23.2133 130.017 23.0559Z" fill="#656565"/>
<path d="M137.084 19.2001V23.764H136.618V20.1443L134.832 23.2132H134.599L132.813 20.1443V23.764H132.347V19.2001H132.735L134.676 22.5837L136.618 19.2001H137.084Z" fill="#656565"/>
<path d="M139.336 23.4493C138.947 23.2133 138.714 22.9772 138.481 22.5838C138.248 22.269 138.171 21.8756 138.171 21.4034C138.171 20.9313 138.248 20.5379 138.481 20.2231C138.714 19.9084 138.947 19.5936 139.336 19.3575C139.724 19.1215 140.112 19.0428 140.578 19.0428C141.044 19.0428 141.432 19.1215 141.743 19.3575C142.131 19.5936 142.364 19.8297 142.597 20.2231C142.83 20.5379 142.908 21.01 142.908 21.4034C142.908 21.7969 142.83 22.269 142.597 22.5838C142.364 22.8985 142.131 23.2133 141.743 23.4493C141.355 23.6854 140.966 23.7641 140.578 23.7641C140.112 23.7641 139.724 23.6854 139.336 23.4493ZM141.51 23.0559C141.82 22.8985 142.053 22.6625 142.209 22.3477C142.364 22.0329 142.442 21.7182 142.442 21.4034C142.442 21.0887 142.364 20.6952 142.209 20.4592C142.053 20.1444 141.82 19.9084 141.51 19.751C141.199 19.5936 140.889 19.5149 140.578 19.5149C140.19 19.5149 139.879 19.5936 139.646 19.751C139.336 19.9084 139.103 20.1444 138.947 20.4592C138.792 20.7739 138.714 21.0887 138.714 21.4034C138.714 21.7182 138.792 22.1116 138.947 22.3477C139.103 22.6625 139.336 22.8985 139.646 23.0559C139.957 23.2133 140.267 23.292 140.578 23.292C140.889 23.292 141.199 23.2133 141.51 23.0559Z" fill="#656565"/>
<path d="M149.508 19.2001V23.764H143.995V19.2001H144.461V23.2919H146.48V19.2001H146.945V23.2919H148.964V19.2001H149.508ZM150.207 23.2919V24.7083H149.741V23.6853H149.042V23.2919H150.207Z" fill="#656565"/>
<path d="M151.139 19.2001H151.605V22.9771L154.478 19.2001H154.944V23.764H154.478V19.987L151.605 23.764H151.139V19.2001Z" fill="#656565"/>
<path d="M75.428 46.1115H72.0113V33.9148H65.3332V46.0329H61.9165V31.0821H75.428V46.1115Z" fill="#656565"/>
<path d="M91.3466 31.1608V46.1116H88.0076V40.7608C86.7652 41.2329 85.5228 41.469 84.4356 41.469C82.4943 41.469 80.9413 40.9969 79.8542 40.0526C78.767 39.1084 78.3011 37.692 78.3011 35.8821V31.2395H81.6402V35.41C81.6402 36.4329 81.8731 37.2198 82.4167 37.692C82.9602 38.2428 83.7368 38.4788 84.7462 38.4788C85.8334 38.4788 86.9205 38.2428 87.93 37.8493V31.1608H91.3466Z" fill="#656565"/>
<path d="M106.644 43.2788V46.0329H95.2292V31.0821H106.333V33.8361H98.5683V37.0624H105.402V39.7378H98.5683V43.2788H106.644ZM97.6365 29.4297C97.3258 29.1149 97.2482 28.8001 97.2482 28.4066C97.2482 28.0132 97.4035 27.6198 97.6365 27.3837C97.9471 27.0689 98.2577 26.9902 98.7236 26.9902C99.1895 26.9902 99.5001 27.1476 99.733 27.3837C100.044 27.6984 100.121 28.0132 100.121 28.4066C100.121 28.8001 99.966 29.1936 99.733 29.4297C99.4224 29.7444 99.1118 29.8231 98.7236 29.8231C98.3353 29.8231 97.9471 29.6657 97.6365 29.4297ZM101.907 29.4297C101.597 29.1149 101.519 28.8001 101.519 28.4066C101.519 28.0132 101.674 27.6198 101.907 27.3837C102.218 27.0689 102.529 26.9902 102.917 26.9902C103.305 26.9902 103.693 27.1476 104.004 27.3837C104.315 27.6984 104.392 28.0132 104.392 28.4066C104.392 28.8001 104.237 29.1936 104.004 29.4297C103.693 29.7444 103.383 29.8231 102.917 29.8231C102.451 29.8231 102.218 29.6657 101.907 29.4297Z" fill="#656565"/>
<path d="M122.796 46.1115H119.379V33.9148H114.332L114.254 37.0624C114.176 39.187 114.021 40.9181 113.71 42.1771C113.478 43.5148 113.012 44.5378 112.39 45.1673C111.769 45.8755 110.915 46.1902 109.75 46.1902C109.284 46.1902 108.741 46.1115 108.042 45.9542L108.275 43.0427C108.43 43.1214 108.663 43.1214 108.896 43.1214C109.673 43.1214 110.294 42.6493 110.604 41.6263C110.915 40.682 111.148 39.1083 111.226 37.0624L111.459 31.0034H122.796V46.1115Z" fill="#656565"/>
<path d="M132.347 40.0525H130.017V46.0329H126.601V31.0821H130.017V37.1411H132.425L136.307 31.0821H139.879L135.065 38.3214L140.034 46.0329H136.152L132.347 40.0525Z" fill="#656565"/>
<path d="M152.303 42.8854H145.47L144.15 46.1116H140.656L147.256 31.1608H150.595L157.196 46.1116H153.624L152.303 42.8854ZM151.216 40.21L148.887 34.4657L146.557 40.21H151.216Z" fill="#656565"/>
</g>
<defs>
<clipPath id="clip0_342_1515">
<rect width="156.857" height="48" fill="white" transform="translate(0.571289)"/>
</clipPath>
</defs>
</svg>
