<svg width="28" height="28" viewBox="0 0 28 28" fill="none" xmlns="http://www.w3.org/2000/svg">
<rect width="28" height="28" rx="6.22222" fill="#419FD9"/>
<g clip-path="url(#clip0_464_8471)">
<path fill-rule="evenodd" clip-rule="evenodd" d="M19.7559 7.86479C19.9344 7.78736 20.1298 7.76066 20.3217 7.78746C20.5136 7.81426 20.695 7.89358 20.8471 8.01718C20.9992 8.14078 21.1164 8.30412 21.1864 8.49022C21.2564 8.67632 21.2768 8.87836 21.2454 9.07532L19.6071 19.3172C19.4481 20.3051 18.3964 20.8717 17.5173 20.3796C16.7819 19.9679 15.6897 19.3336 14.7073 18.6717C14.2161 18.3404 12.7114 17.2795 12.8963 16.5246C13.0553 15.8792 15.5835 13.4536 17.0282 12.0116C17.5953 11.445 17.3367 11.1182 16.6671 11.6393C15.0042 12.9332 12.3344 14.9009 11.4516 15.4548C10.6729 15.9432 10.267 16.0266 9.78154 15.9432C8.89592 15.7913 8.0746 15.5561 7.40425 15.2694C6.49842 14.8823 6.54248 13.5988 7.40353 13.2251L19.7559 7.86479Z" fill="white"/>
</g>
<defs>
<clipPath id="clip0_464_8471">
<rect width="17.6296" height="17.6296" fill="white" transform="translate(5.18506 5.18555)"/>
</clipPath>
</defs>
</svg>
