<svg width="28" height="28" viewBox="0 0 28 28" fill="none" xmlns="http://www.w3.org/2000/svg">
<rect width="28" height="28" rx="6.22222" fill="#0077FF"/>
<path d="M21.1517 18.6666H19.4484C18.8043 18.6666 18.6103 18.1396 17.4556 16.9727C16.4465 15.9905 16.0203 15.8684 15.7651 15.8684C15.4121 15.8684 15.3158 15.9664 15.3158 16.4571V18.004C15.3158 18.4223 15.1814 18.6673 14.0992 18.6673C13.0492 18.5961 12.0311 18.2739 11.1286 17.7274C10.2261 17.1809 9.46503 16.4257 8.90814 15.5239C7.58632 13.8615 6.66634 11.9108 6.22119 9.82657C6.22119 9.56877 6.31822 9.33508 6.80486 9.33508H8.50659C8.94397 9.33508 9.10145 9.53183 9.27312 9.98638C10.0994 12.4423 11.5093 14.5786 12.0817 14.5786C12.3012 14.5786 12.3967 14.4806 12.3967 13.9281V11.3983C12.3243 10.2442 11.7175 10.1469 11.7175 9.72933C11.7252 9.61915 11.7751 9.51634 11.8566 9.44272C11.9381 9.36911 12.0449 9.3305 12.1541 9.33508H14.8291C15.1949 9.33508 15.3158 9.51901 15.3158 9.96075V13.3755C15.3158 13.7442 15.4725 13.8663 15.583 13.8663C15.8024 13.8663 15.9711 13.7441 16.3734 13.3386C17.2354 12.2762 17.9398 11.0929 18.4647 9.82582C18.5182 9.67352 18.6196 9.54313 18.7535 9.45463C18.8874 9.36613 19.0463 9.3244 19.2059 9.33584H20.9084C21.4189 9.33584 21.5271 9.59364 21.4189 9.9615C20.7995 11.3623 20.0333 12.6921 19.1335 13.9281C18.9499 14.2108 18.8767 14.3578 19.1335 14.6894C19.3022 14.9472 19.8993 15.4508 20.3001 15.9295C20.8837 16.5174 21.3681 17.1974 21.7346 17.9421C21.8809 18.4216 21.6376 18.6666 21.1517 18.6666Z" fill="white"/>
</svg>
