<svg width="28" height="28" viewBox="0 0 28 28" fill="none" xmlns="http://www.w3.org/2000/svg">
<rect width="28" height="28" rx="6.22222" fill="#252525"/>
<g clip-path="url(#clip0_722_2225)">
<path fill-rule="evenodd" clip-rule="evenodd" d="M19.7554 7.86522C19.9339 7.78779 20.1293 7.76108 20.3212 7.78788C20.5131 7.81468 20.6946 7.89401 20.8466 8.01761C20.9987 8.1412 21.1159 8.30455 21.1859 8.49065C21.2559 8.67675 21.2763 8.87879 21.2449 9.07575L19.6066 19.3176C19.4476 20.3055 18.3959 20.8721 17.5168 20.38C16.7814 19.9683 15.6892 19.334 14.7068 18.6721C14.2156 18.3408 12.7109 17.28 12.8959 16.5251C13.0548 15.8796 15.583 13.4541 17.0277 12.012C17.5948 11.4454 17.3362 11.1186 16.6666 11.6398C15.0037 12.9337 12.3339 14.9013 11.4511 15.4552C10.6724 15.9436 10.2665 16.027 9.78105 15.9436C8.89544 15.7917 8.07412 15.5565 7.40377 15.2699C6.49793 14.8827 6.54199 13.5992 7.40304 13.2255L19.7554 7.86522Z" fill="white"/>
</g>
<defs>
<clipPath id="clip0_722_2225">
<rect width="17.6296" height="17.6296" fill="white" transform="translate(5.18506 5.18518)"/>
</clipPath>
</defs>
</svg>
