<svg width="28" height="28" viewBox="0 0 28 28" fill="none" xmlns="http://www.w3.org/2000/svg">
<rect width="28" height="28" rx="6.22222" fill="#252525"/>
<path d="M21.1527 18.6655H19.4494C18.8053 18.6655 18.6112 18.1386 17.4566 16.9717C16.4475 15.9895 16.0213 15.8674 15.7661 15.8674C15.413 15.8674 15.3167 15.9654 15.3167 16.4561V18.0029C15.3167 18.4213 15.1824 18.6663 14.1002 18.6663C13.0502 18.595 12.0321 18.2729 11.1296 17.7264C10.227 17.1799 9.46601 16.4246 8.90912 15.5229C7.5873 13.8604 6.66731 11.9097 6.22217 9.82553C6.22217 9.56773 6.3192 9.33405 6.80583 9.33405H8.50757C8.94494 9.33405 9.10243 9.53079 9.2741 9.98534C10.1003 12.4413 11.5102 14.5776 12.0827 14.5776C12.3021 14.5776 12.3977 14.4796 12.3977 13.927V11.3972C12.3253 10.2431 11.7185 10.1459 11.7185 9.72829C11.7261 9.61811 11.7761 9.5153 11.8576 9.44169C11.9391 9.36807 12.0458 9.32946 12.1551 9.33405H14.8301C15.1958 9.33405 15.3167 9.51798 15.3167 9.95971V13.3745C15.3167 13.7431 15.4735 13.8652 15.584 13.8652C15.8034 13.8652 15.9721 13.7431 16.3744 13.3376C17.2363 12.2752 17.9408 11.0919 18.4657 9.82478C18.5192 9.67248 18.6206 9.54209 18.7545 9.45359C18.8884 9.36509 19.0473 9.32336 19.2069 9.3348H20.9093C21.4199 9.3348 21.5281 9.5926 21.4199 9.96047C20.8005 11.3613 20.0343 12.6911 19.1345 13.927C18.9508 14.2097 18.8777 14.3567 19.1345 14.6884C19.3031 14.9462 19.9002 15.4497 20.301 15.9284C20.8847 16.5164 21.3691 17.1963 21.7356 17.9411C21.8819 18.4205 21.6385 18.6655 21.1527 18.6655Z" fill="white"/>
</svg>
