<svg width="22" height="22" viewBox="0 0 22 22" fill="none" xmlns="http://www.w3.org/2000/svg">
<path d="M4.30807 9.29221C4.7456 9.12206 4.96235 8.62945 4.79221 8.19193C4.62206 7.7544 4.12945 7.53765 3.69193 7.70779L4.30807 9.29221ZM0.156299 12.8967C0.0992523 13.3627 0.430744 13.7867 0.896707 13.8437C1.36267 13.9007 1.78665 13.5693 1.8437 13.1033L0.156299 12.8967ZM18.3081 7.70779C17.8705 7.53765 17.3779 7.7544 17.2078 8.19193C17.0376 8.62945 17.2544 9.12206 17.6919 9.29221L18.3081 7.70779ZM20.1563 13.1033C20.2133 13.5693 20.6373 13.9007 21.1033 13.8437C21.5693 13.7867 21.9007 13.3627 21.8437 12.8967L20.1563 13.1033ZM8.20081 7.67406C7.74465 7.56316 7.28496 7.84304 7.17406 8.29919C7.06316 8.75535 7.34304 9.21504 7.79919 9.32594L8.20081 7.67406ZM14.2008 9.32594C14.657 9.21504 14.9368 8.75535 14.8259 8.29919C14.715 7.84304 14.2553 7.56316 13.7992 7.67406L14.2008 9.32594ZM9.14942 16.8368C9.61155 16.7542 9.91929 16.3127 9.83676 15.8506C9.75424 15.3884 9.31271 15.0807 8.85058 15.1632L9.14942 16.8368ZM5.19595 18.7243C5.04369 19.1684 5.28026 19.6518 5.72432 19.8041C6.16839 19.9563 6.6518 19.7197 6.80405 19.2757L5.19595 18.7243ZM13.1494 15.1632C12.6873 15.0807 12.2458 15.3884 12.1632 15.8506C12.0807 16.3127 12.3884 16.7542 12.8506 16.8368L13.1494 15.1632ZM15.1959 19.2757C15.3482 19.7197 15.8316 19.9563 16.2757 19.8041C16.7197 19.6518 16.9563 19.1684 16.8041 18.7243L15.1959 19.2757ZM4 8.5C3.69193 7.70779 3.69148 7.70797 3.69103 7.70814C3.69086 7.70821 3.69039 7.70839 3.69006 7.70852C3.6894 7.70878 3.6887 7.70905 3.68796 7.70935C3.68648 7.70993 3.68483 7.71058 3.68303 7.7113C3.67943 7.71274 3.67519 7.71445 3.67034 7.71644C3.66065 7.72041 3.64849 7.72549 3.63403 7.73174C3.60511 7.74423 3.5669 7.76139 3.52061 7.78362C3.42812 7.82805 3.30286 7.893 3.15468 7.98177C2.85885 8.159 2.4678 8.43352 2.06354 8.83259C1.24664 9.63901 0.396418 10.9354 0.156299 12.8967L1.8437 13.1033C2.03208 11.5646 2.68186 10.611 3.25783 10.0424C3.55002 9.75398 3.82862 9.55975 4.02834 9.4401C4.12793 9.38043 4.20692 9.33991 4.25673 9.31599C4.28159 9.30404 4.29905 9.2963 4.30801 9.29243C4.31248 9.2905 4.31482 9.28954 4.31488 9.28951C4.31491 9.2895 4.31437 9.28972 4.31324 9.29017C4.31268 9.2904 4.31196 9.29068 4.3111 9.29102C4.31067 9.29119 4.31021 9.29137 4.3097 9.29157C4.30945 9.29167 4.30904 9.29183 4.30891 9.29188C4.3085 9.29204 4.30807 9.29221 4 8.5ZM18 8.5C17.6919 9.29221 17.6915 9.29204 17.6911 9.29188C17.691 9.29183 17.6906 9.29167 17.6903 9.29157C17.6898 9.29137 17.6893 9.29119 17.6889 9.29102C17.688 9.29068 17.6873 9.2904 17.6868 9.29017C17.6856 9.28972 17.6851 9.2895 17.6851 9.28951C17.6852 9.28954 17.6875 9.2905 17.692 9.29243C17.701 9.2963 17.7184 9.30404 17.7433 9.31599C17.7931 9.33991 17.8721 9.38043 17.9717 9.4401C18.1714 9.55975 18.45 9.75398 18.7422 10.0424C19.3181 10.611 19.9679 11.5646 20.1563 13.1033L21.8437 12.8967C21.6036 10.9354 20.7534 9.63901 19.9365 8.83259C19.5322 8.43352 19.1412 8.159 18.8453 7.98177C18.6971 7.893 18.5719 7.82805 18.4794 7.78362C18.4331 7.76139 18.3949 7.74423 18.366 7.73174C18.3515 7.72549 18.3394 7.72041 18.3297 7.71644C18.3248 7.71445 18.3206 7.71274 18.317 7.7113C18.3152 7.71058 18.3135 7.70993 18.312 7.70935C18.3113 7.70905 18.3106 7.70878 18.3099 7.70852C18.3096 7.70839 18.3091 7.70821 18.309 7.70814C18.3085 7.70797 18.3081 7.70779 18 8.5ZM8 8.5C7.79919 9.32594 7.79876 9.32584 7.79834 9.32573C7.79821 9.3257 7.7978 9.3256 7.79754 9.32554C7.79702 9.32541 7.79654 9.32529 7.7961 9.32518C7.7952 9.32496 7.79445 9.32477 7.79383 9.32461C7.79259 9.3243 7.79189 9.32412 7.79173 9.32408C7.7914 9.32399 7.79317 9.32445 7.79694 9.32551C7.80447 9.32763 7.81988 9.33212 7.8422 9.33935C7.88695 9.35386 7.95874 9.37917 8.05003 9.41822C8.23345 9.4967 8.4897 9.62814 8.76231 9.83429C9.29676 10.2384 9.91472 10.9428 10.1674 12.1713L11.8326 11.8287C11.4853 10.1407 10.6032 9.09506 9.78769 8.47834C9.3853 8.17405 9.00405 7.97733 8.71872 7.85526C8.57563 7.79404 8.45524 7.75098 8.36639 7.72218C8.32191 7.70777 8.28518 7.69687 8.25726 7.68902C8.2433 7.68509 8.23153 7.68192 8.22208 7.67945C8.21735 7.67821 8.21321 7.67715 8.20966 7.67625C8.20788 7.67581 8.20625 7.6754 8.20478 7.67504C8.20404 7.67485 8.20334 7.67468 8.20268 7.67452C8.20235 7.67444 8.20188 7.67432 8.20171 7.67428C8.20126 7.67417 8.20081 7.67406 8 8.5ZM14 8.5C13.7992 7.67406 13.7987 7.67417 13.7983 7.67428C13.7981 7.67432 13.7977 7.67444 13.7973 7.67452C13.7967 7.67468 13.796 7.67485 13.7952 7.67504C13.7937 7.6754 13.7921 7.67581 13.7903 7.67625C13.7868 7.67715 13.7826 7.67821 13.7779 7.67945C13.7685 7.68192 13.7567 7.68509 13.7427 7.68902C13.7148 7.69687 13.6781 7.70777 13.6336 7.72218C13.5448 7.75098 13.4244 7.79404 13.2813 7.85526C12.996 7.97733 12.6147 8.17405 12.2123 8.47834C11.3968 9.09506 10.5147 10.1407 10.1674 11.8287L11.8326 12.1713C12.0853 10.9428 12.7032 10.2384 13.2377 9.83429C13.5103 9.62814 13.7665 9.4967 13.95 9.41822C14.0413 9.37917 14.113 9.35386 14.1578 9.33935C14.1801 9.33212 14.1955 9.32763 14.2031 9.32551C14.2068 9.32445 14.2086 9.32399 14.2083 9.32408C14.2081 9.32412 14.2074 9.3243 14.2062 9.32461C14.2056 9.32477 14.2048 9.32496 14.2039 9.32518C14.2035 9.32529 14.203 9.32541 14.2025 9.32554C14.2022 9.3256 14.2018 9.3257 14.2017 9.32573C14.2012 9.32584 14.2008 9.32594 14 8.5ZM9 16C8.85058 15.1632 8.8501 15.1633 8.84962 15.1634C8.84945 15.1634 8.84896 15.1635 8.84862 15.1636C8.84793 15.1637 8.84721 15.1638 8.84646 15.164C8.84495 15.1643 8.84331 15.1646 8.84154 15.1649C8.838 15.1656 8.83394 15.1663 8.82936 15.1672C8.82021 15.1691 8.80899 15.1714 8.79583 15.1742C8.76952 15.1799 8.73536 15.1879 8.6942 15.1986C8.61195 15.2199 8.50126 15.2524 8.36911 15.3001C8.10532 15.3954 7.7522 15.5528 7.36841 15.8068C6.5914 16.321 5.71301 17.2162 5.19595 18.7243L6.80405 19.2757C7.18699 18.1588 7.8086 17.554 8.30659 17.2245C8.5603 17.0566 8.78843 16.9562 8.94651 16.8991C9.0253 16.8706 9.0857 16.8533 9.12182 16.8439C9.13984 16.8392 9.15167 16.8366 9.15656 16.8355C9.159 16.835 9.15969 16.8348 9.15854 16.8351C9.15796 16.8352 9.15692 16.8354 9.15541 16.8357C9.15465 16.8358 9.15377 16.836 9.15277 16.8362C9.15228 16.8362 9.15175 16.8363 9.15119 16.8364C9.15091 16.8365 9.15047 16.8366 9.15033 16.8366C9.14988 16.8367 9.14942 16.8368 9 16ZM13 16C12.8506 16.8368 12.8501 16.8367 12.8497 16.8366C12.8495 16.8366 12.8491 16.8365 12.8488 16.8364C12.8483 16.8363 12.8477 16.8362 12.8472 16.8362C12.8462 16.836 12.8454 16.8358 12.8446 16.8357C12.8431 16.8354 12.842 16.8352 12.8415 16.8351C12.8403 16.8348 12.841 16.835 12.8434 16.8355C12.8483 16.8366 12.8602 16.8392 12.8782 16.8439C12.9143 16.8533 12.9747 16.8706 13.0535 16.8991C13.2116 16.9562 13.4397 17.0566 13.6934 17.2245C14.1914 17.554 14.813 18.1588 15.1959 19.2757L16.8041 18.7243C16.287 17.2162 15.4086 16.321 14.6316 15.8068C14.2478 15.5528 13.8947 15.3954 13.6309 15.3001C13.4987 15.2524 13.388 15.2199 13.3058 15.1986C13.2646 15.1879 13.2305 15.1799 13.2042 15.1742C13.191 15.1714 13.1798 15.1691 13.1706 15.1672C13.1661 15.1663 13.162 15.1656 13.1585 15.1649C13.1567 15.1646 13.155 15.1643 13.1535 15.164C13.1528 15.1638 13.1521 15.1637 13.1514 15.1636C13.151 15.1635 13.1505 15.1634 13.1504 15.1634C13.1499 15.1633 13.1494 15.1632 13 16ZM12.65 14.5C12.65 15.4113 11.9113 16.15 11 16.15V17.85C12.8502 17.85 14.35 16.3502 14.35 14.5H12.65ZM11 16.15C10.0887 16.15 9.35 15.4113 9.35 14.5H7.65C7.65 16.3502 9.14985 17.85 11 17.85V16.15ZM9.35 14.5C9.35 13.5887 10.0887 12.85 11 12.85V11.15C9.14985 11.15 7.65 12.6498 7.65 14.5H9.35ZM11 12.85C11.9113 12.85 12.65 13.5887 12.65 14.5H14.35C14.35 12.6498 12.8502 11.15 11 11.15V12.85ZM18.15 6C18.15 7.18741 17.1874 8.15 16 8.15V9.85C18.1263 9.85 19.85 8.1263 19.85 6H18.15ZM16 8.15C14.8126 8.15 13.85 7.18741 13.85 6H12.15C12.15 8.1263 13.8737 9.85 16 9.85V8.15ZM13.85 6C13.85 4.81259 14.8126 3.85 16 3.85V2.15C13.8737 2.15 12.15 3.8737 12.15 6H13.85ZM16 3.85C17.1874 3.85 18.15 4.81259 18.15 6H19.85C19.85 3.8737 18.1263 2.15 16 2.15V3.85ZM8.15 6C8.15 7.18741 7.18741 8.15 6 8.15V9.85C8.1263 9.85 9.85 8.1263 9.85 6H8.15ZM6 8.15C4.81259 8.15 3.85 7.18741 3.85 6H2.15C2.15 8.1263 3.8737 9.85 6 9.85V8.15ZM3.85 6C3.85 4.81259 4.81259 3.85 6 3.85V2.15C3.8737 2.15 2.15 3.8737 2.15 6H3.85ZM6 3.85C7.18741 3.85 8.15 4.81259 8.15 6H9.85C9.85 3.8737 8.1263 2.15 6 2.15V3.85Z" fill="#252525"/>
</svg>
