<svg width="20" height="18" viewBox="0 0 20 18" fill="none" xmlns="http://www.w3.org/2000/svg">
<path fill-rule="evenodd" clip-rule="evenodd" d="M7.03541 2.29305C5.7381 1.70362 4.10812 2.00636 3.13268 3.29048L2.82847 3.69045C2.19907 4.51905 1.89483 5.55766 1.97522 6.60323C2.05562 7.64879 2.51487 8.62614 3.2632 9.3442L10 15.8089L16.7368 9.3442C17.4851 8.62614 17.9444 7.64879 18.0248 6.60323C18.1052 5.55766 17.8009 4.51905 17.1715 3.69045L16.8673 3.29048C15.7103 1.76677 13.6348 1.62443 12.2816 2.71307L11.0677 1.13925C13.2227 -0.594971 16.5533 -0.394483 18.4178 2.06149L18.722 2.46146C19.651 3.68439 20.1 5.21728 19.9813 6.76043C19.8626 8.30358 19.1847 9.74603 18.0802 10.8058L11.2571 17.3527L11.2375 17.3717C11.1383 17.467 11.0176 17.5822 10.9028 17.6735C10.7223 17.8214 10.5101 17.9237 10.2836 17.9722C10.0972 18.0093 9.90383 18.0093 9.7164 17.9722C9.49022 17.9236 9.27842 17.8212 9.09816 17.6735C8.98236 17.5832 8.86264 17.467 8.76255 17.3717L8.74292 17.3527L1.91976 10.8058C0.81526 9.74603 0.137401 8.30358 0.0187119 6.76043C-0.0999767 5.21728 0.34904 3.68439 1.27797 2.46146L1.58218 2.06149C3.50068 -0.464654 6.96672 -0.605998 9.11484 1.29162L9.82434 1.91914L9.2434 2.67097L8.22674 3.98717C7.88622 4.42825 7.69683 4.67585 7.58888 4.86431L7.58496 4.87233L7.59182 4.87734C7.75865 5.01467 8.02165 5.17807 8.49268 5.46777L9.7213 6.2206L9.76841 6.24968C10.1413 6.47823 10.5024 6.69977 10.7743 6.92131C11.0795 7.17192 11.3945 7.51976 11.5093 8.04103C11.6241 8.5623 11.4847 9.0134 11.313 9.37327C11.1619 9.69405 10.9283 10.0509 10.6869 10.4208L10.6565 10.4679L9.83514 11.726L8.20221 10.6133L9.02358 9.35523C9.30718 8.92117 9.46223 8.67858 9.54859 8.49714L9.55153 8.49012L9.54565 8.48611C9.39158 8.3588 9.15017 8.20844 8.71152 7.93979L7.48192 7.18696L7.43285 7.15688C7.03051 6.90928 6.64485 6.67371 6.35732 6.43613C6.0374 6.17148 5.70572 5.79958 5.60562 5.24323C5.50553 4.68487 5.68707 4.21773 5.89413 3.85385C6.08058 3.52806 6.35928 3.16818 6.64975 2.79126L6.68606 2.74515L7.03541 2.29305Z" fill="#252525"/>
</svg>
