<svg width="18" height="19" viewBox="0 0 18 19" fill="none" xmlns="http://www.w3.org/2000/svg">
<path d="M15.5454 4.80424C16.0086 4.80424 16.3819 4.9717 16.6767 5.29868C16.9817 5.64509 17.1409 6.0232 17.1409 6.48582V15.9595C17.1409 16.4221 16.9817 16.8002 16.6767 17.1466C16.382 17.4736 16.0086 17.6411 15.5454 17.6411H2.45454C1.9914 17.6411 1.61803 17.4736 1.32325 17.1466C1.01831 16.8002 0.859085 16.4221 0.859085 15.9595V6.48582C0.859085 6.02321 1.01832 5.64509 1.32326 5.29869C1.61804 4.9717 1.99141 4.80424 2.45454 4.80424H5.72727H5.76818V4.76334V3.04085C5.76818 2.55123 5.92816 2.15693 6.23109 1.84645L6.2311 1.84646L6.23184 1.84566C6.52673 1.52686 6.90035 1.35927 7.36363 1.35927H10.6364C11.0996 1.35927 11.4733 1.52686 11.7681 1.84566L11.7681 1.84567L11.7689 1.84645C12.0718 2.15693 12.2318 2.55123 12.2318 3.04085V4.76334V4.80424H12.2727H15.5454ZM2.45454 6.44491H2.41363V6.48582V15.9595V16.0004H2.45454H15.5454H15.5864V15.9595V6.48582V6.44491H15.5454H2.45454ZM10.6364 4.80424H10.6773V4.76334V3.04085V2.99994H10.6364H7.36363H7.32272V3.04085V4.76334V4.80424H7.36363H10.6364Z" fill="#252525" stroke="white" stroke-width="0.0818182"/>
</svg>
