<svg width="20" height="19" viewBox="0 0 20 19" fill="none" xmlns="http://www.w3.org/2000/svg">
<path d="M6.53282 15.2271C6.36561 15.2271 6.20624 15.1562 6.08928 15.0311C5.91343 14.8443 5.85454 14.56 5.94718 14.3107L8.25837 8.17338C8.29212 8.09333 8.33373 8.01328 8.40046 7.95073L13.6006 2.43636C13.8432 2.1787 14.2451 2.1787 14.4885 2.43636L17.9553 6.10955C18.0723 6.23379 18.1398 6.40307 18.1398 6.58068C18.1398 6.75828 18.0731 6.92757 17.9553 7.05181L12.7551 12.5754C12.6963 12.6379 12.6209 12.6913 12.5455 12.7263L6.76756 15.1812C6.69219 15.2171 6.60819 15.2254 6.53282 15.2254V15.2271ZM9.3802 8.79628L7.66329 13.3592L11.9591 11.5355L16.623 6.58152L14.0442 3.85059L9.3802 8.79628Z" fill="#252525"/>
<path d="M4.22164 17.682C4.06227 17.682 3.9037 17.6195 3.77809 17.486C3.53552 17.2284 3.53552 16.8014 3.77809 16.5429L6.08928 14.088C6.33185 13.8304 6.7338 13.8304 6.97717 14.088C7.21975 14.3457 7.21975 14.7726 6.97717 15.0311L4.66599 17.486C4.54038 17.6195 4.38101 17.682 4.22244 17.682H4.22164Z" fill="#252525"/>
<path d="M18.3737 8.17423C18.2144 8.17423 18.0558 8.11169 17.9302 7.97827L12.73 2.45472C12.4874 2.19706 12.4874 1.77012 12.73 1.5116C12.9726 1.25394 13.3745 1.25394 13.6179 1.5116L18.8181 7.03516C19.0606 7.29281 19.0606 7.71976 18.8181 7.97827C18.6925 8.11169 18.5331 8.17423 18.3745 8.17423H18.3737Z" fill="#252525"/>
<path d="M12.3108 12.7722C12.1514 12.7722 11.9928 12.7096 11.8672 12.5762L8.40046 8.89384C8.15789 8.63618 8.15789 8.20924 8.40046 7.95073C8.64303 7.69307 9.04498 7.69307 9.28836 7.95073L12.7551 11.6331C12.9977 11.8908 12.9977 12.3177 12.7551 12.5762C12.6295 12.7096 12.4702 12.7722 12.3116 12.7722H12.3108Z" fill="#252525"/>
<path d="M7.5212 12.5946C7.35399 12.5946 7.19462 12.5237 7.07766 12.3986L2.04471 7.05266C1.92773 6.92841 1.86022 6.75914 1.86022 6.58153C1.86022 6.40392 1.92695 6.23464 2.04471 6.1104L5.51148 2.43721C5.75405 2.17955 6.156 2.17955 6.39938 2.43721L10.4439 6.72413C10.5609 6.84838 10.6284 7.01765 10.6284 7.19526C10.6284 7.37287 10.5617 7.54215 10.4439 7.66639L9.3802 8.79628L8.10764 12.176C8.03228 12.3803 7.85643 12.532 7.64681 12.5854C7.60521 12.5946 7.56281 12.6029 7.5212 12.6029V12.5946ZM3.37615 6.58152L7.28647 10.7442L8.25757 8.17337C8.29133 8.09332 8.33293 8.01327 8.39966 7.95072L9.11171 7.1944L5.95503 3.84974L3.37615 6.58067L3.37615 6.58152Z" fill="#252525"/>
<path d="M15.7776 17.682C15.6182 17.682 15.4596 17.6195 15.334 17.486L13.0228 15.0311C12.7803 14.7735 12.7803 14.3465 13.0228 14.088C13.2654 13.8304 13.6673 13.8304 13.9107 14.088L16.2219 16.5429C16.4645 16.8006 16.4645 17.2275 16.2219 17.486C16.0963 17.6195 15.9369 17.682 15.7784 17.682H15.7776Z" fill="#252525"/>
<path d="M1.62548 8.17423C1.46611 8.17423 1.30754 8.11169 1.18193 7.97827C0.939357 7.72061 0.939357 7.29367 1.18193 7.03516L6.38209 1.5116C6.62467 1.25394 7.02661 1.25394 7.26999 1.5116C7.51256 1.76926 7.51256 2.1962 7.26999 2.45472L2.06983 7.97827C1.94422 8.11169 1.78485 8.17423 1.62628 8.17423H1.62548Z" fill="#252525"/>
<path d="M8.40046 7.95073C8.33373 8.01328 8.29212 8.09333 8.25837 8.17338L5.94718 14.3107C5.85454 14.56 5.91343 14.8443 6.08928 15.0311C6.20624 15.1562 6.36561 15.2271 6.53282 15.2271V15.2254C6.60819 15.2254 6.69219 15.2171 6.76756 15.1812L12.5455 12.7263C12.6209 12.6913 12.6963 12.6379 12.7551 12.5754L17.9553 7.05181C18.0731 6.92757 18.1398 6.75828 18.1398 6.58068C18.1398 6.40307 18.0723 6.23379 17.9553 6.10955L14.4885 2.43636C14.2451 2.1787 13.8432 2.1787 13.6006 2.43636L8.40046 7.95073ZM8.40046 7.95073C8.15789 8.20924 8.15789 8.63618 8.40046 8.89384L11.8672 12.5762C11.9928 12.7096 12.1514 12.7722 12.3108 12.7722H12.3116C12.4702 12.7722 12.6295 12.7096 12.7551 12.5762C12.9977 12.3177 12.9977 11.8908 12.7551 11.6331L9.28836 7.95073C9.04498 7.69307 8.64303 7.69307 8.40046 7.95073ZM9.3802 8.79628L7.66329 13.3592L11.9591 11.5355L16.623 6.58152L14.0442 3.85059L9.3802 8.79628ZM9.3802 8.79628L10.4439 7.66639C10.5617 7.54215 10.6284 7.37287 10.6284 7.19526C10.6284 7.01765 10.5609 6.84838 10.4439 6.72413L6.39938 2.43721C6.156 2.17955 5.75405 2.17955 5.51148 2.43721L2.04471 6.1104C1.92695 6.23464 1.86022 6.40392 1.86022 6.58153C1.86022 6.75914 1.92773 6.92841 2.04471 7.05266L7.07766 12.3986C7.19462 12.5237 7.35399 12.5946 7.52121 12.5946V12.6029C7.56281 12.6029 7.60521 12.5946 7.64681 12.5854C7.85643 12.532 8.03228 12.3803 8.10764 12.176L9.3802 8.79628ZM4.22164 17.682C4.06227 17.682 3.9037 17.6195 3.77809 17.486C3.53552 17.2284 3.53552 16.8014 3.77809 16.5429L6.08928 14.088C6.33185 13.8304 6.7338 13.8304 6.97717 14.088C7.21975 14.3457 7.21975 14.7726 6.97717 15.0311L4.66599 17.486C4.54038 17.6195 4.38101 17.682 4.22244 17.682H4.22164ZM18.3737 8.17423C18.2144 8.17423 18.0558 8.11169 17.9302 7.97827L12.73 2.45472C12.4874 2.19706 12.4874 1.77012 12.73 1.5116C12.9726 1.25394 13.3745 1.25394 13.6179 1.5116L18.8181 7.03516C19.0606 7.29281 19.0606 7.71976 18.8181 7.97827C18.6925 8.11169 18.5331 8.17423 18.3745 8.17423H18.3737ZM3.37615 6.58152L7.28647 10.7442L8.25757 8.17337C8.29133 8.09332 8.33293 8.01327 8.39966 7.95072L9.11171 7.1944L5.95503 3.84974L3.37615 6.58067L3.37615 6.58152ZM15.7776 17.682C15.6182 17.682 15.4596 17.6195 15.334 17.486L13.0228 15.0311C12.7803 14.7735 12.7803 14.3465 13.0228 14.088C13.2654 13.8304 13.6673 13.8304 13.9107 14.088L16.2219 16.5429C16.4645 16.8006 16.4645 17.2275 16.2219 17.486C16.0963 17.6195 15.9369 17.682 15.7784 17.682H15.7776ZM1.62548 8.17423C1.46611 8.17423 1.30754 8.11169 1.18193 7.97827C0.939357 7.72061 0.939357 7.29367 1.18193 7.03516L6.38209 1.5116C6.62467 1.25394 7.02661 1.25394 7.26999 1.5116C7.51256 1.76926 7.51256 2.1962 7.26999 2.45472L2.06983 7.97827C1.94422 8.11169 1.78485 8.17423 1.62628 8.17423H1.62548Z" stroke="#252525" stroke-width="0.0818182"/>
</svg>
