<svg width="18" height="19" viewBox="0 0 18 19" fill="none" xmlns="http://www.w3.org/2000/svg">
<path d="M7.77272 3.77291H11.0454M13.0909 9.09109H9.40908V15.2275H13.0909M13.0909 16.0456V8.27291M7.77272 4.59109V2.95472M11.0454 4.59109V2.95472M5.72726 8.502C5.72728 7.80834 5.9069 7.1265 6.24865 6.52287C6.5904 5.91924 7.08262 5.41438 7.6774 5.05745C7.70644 5.04002 7.73048 5.01538 7.74718 4.98592C7.76388 4.95646 7.77268 4.92318 7.77272 4.88931V1.31836H11.0454V4.88931C11.0454 4.95804 11.0814 5.02186 11.1408 5.05704C11.7356 5.41401 12.2279 5.91893 12.5696 6.52264C12.9114 7.12635 13.091 7.80827 13.0909 8.502V16.8638C13.0909 17.0808 13.0047 17.2889 12.8513 17.4424C12.6978 17.5958 12.4897 17.682 12.2727 17.682H6.54545C6.32845 17.682 6.12034 17.5958 5.9669 17.4424C5.81347 17.2889 5.72726 17.0808 5.72726 16.8638V8.502Z" stroke="#252525" stroke-width="1.39091" stroke-linecap="round" stroke-linejoin="round"/>
</svg>
