<svg width="18" height="19" viewBox="0 0 18 19" fill="none" xmlns="http://www.w3.org/2000/svg">
<path d="M9 14.0456C7.35545 14.0456 5.94 12.9275 5.31818 11.3184H12.6818C12.06 12.9275 10.6445 14.0456 9 14.0456Z" fill="#252525"/>
<path d="M6.95455 9.2729C7.51938 9.2729 7.97727 8.76414 7.97727 8.13654C7.97727 7.50894 7.51938 7.00018 6.95455 7.00018C6.38971 7.00018 5.93182 7.50894 5.93182 8.13654C5.93182 8.76414 6.38971 9.2729 6.95455 9.2729Z" fill="#252525"/>
<path d="M11.0455 9.2729C11.6103 9.2729 12.0682 8.76414 12.0682 8.13654C12.0682 7.50894 11.6103 7.00018 11.0455 7.00018C10.4806 7.00018 10.0227 7.50894 10.0227 8.13654C10.0227 8.76414 10.4806 9.2729 11.0455 9.2729Z" fill="#252525"/>
<path fill-rule="evenodd" clip-rule="evenodd" d="M18 9.50018C18 9.70927 17.9836 9.90927 17.9509 10.1002C17.8496 10.7704 17.5812 11.3957 17.1763 11.905C16.7714 12.4144 16.2461 12.7875 15.66 12.982C15.2345 13.982 14.6209 14.882 13.8845 15.6093C12.5836 16.9002 10.8736 17.682 9 17.682C7.12636 17.682 5.41636 16.9002 4.12364 15.6093C3.37803 14.8759 2.77403 13.9821 2.34818 12.982C1.76105 12.788 1.23452 12.4152 0.828202 11.9059C0.421881 11.3966 0.151993 10.7711 0.0490909 10.1002C0.0163636 9.90927 0 9.81381 0 9.50018C0 9.29109 0.0163636 9.09109 0.0490909 8.90018C0.150175 8.22845 0.41942 7.60191 0.826012 7.09226C1.2326 6.58261 1.76012 6.21045 2.34818 6.01836C2.77364 5.00927 3.38727 4.10927 4.14 3.37291C5.43273 2.09109 7.13455 1.31836 9 1.31836C10.8655 1.31836 12.5673 2.09109 13.86 3.37291C14.6116 4.11156 15.2211 5.01139 15.6518 6.01836C16.2389 6.21236 16.7655 6.58511 17.1718 7.09442C17.5781 7.60372 17.848 8.22925 17.9509 8.90018C17.9836 9.09109 18 9.18654 18 9.50018ZM14.573 11.3027C14.624 11.3106 14.6739 11.3184 14.7273 11.3184C15.6273 11.3184 16.3636 10.5002 16.3636 9.50018C16.3636 8.50018 15.6273 7.682 14.7273 7.682C14.6739 7.682 14.624 7.68974 14.573 7.69764C14.5459 7.70185 14.5184 7.70611 14.49 7.70927C14.3264 7.10018 14.0891 6.53654 13.7864 6.01836C12.7636 4.282 11.0045 3.13654 9 3.13654C6.99545 3.13654 5.23636 4.282 4.21364 6.01836C3.91091 6.53654 3.67364 7.10018 3.51 7.70927C3.48157 7.70611 3.45412 7.70185 3.42698 7.69764C3.37601 7.68974 3.32611 7.682 3.27273 7.682C2.37273 7.682 1.63636 8.50018 1.63636 9.50018C1.63636 10.5002 2.37273 11.3184 3.27273 11.3184C3.32611 11.3184 3.37601 11.3106 3.42698 11.3027C3.45412 11.2985 3.48157 11.2942 3.51 11.2911C3.67364 11.9002 3.91091 12.4638 4.21364 12.982C5.23636 14.7184 6.99545 15.8638 9 15.8638C11.0045 15.8638 12.7636 14.7184 13.7864 12.982C14.0891 12.4638 14.3264 11.9002 14.49 11.2911C14.5184 11.2942 14.5459 11.2985 14.573 11.3027Z" fill="#252525"/>
</svg>
