<svg width="18" height="19" viewBox="0 0 18 19" fill="none" xmlns="http://www.w3.org/2000/svg">
<path d="M1.22787 1.73651C1.41818 0.966407 2.07999 0.501004 2.77575 0.501004C3.20484 0.501004 3.59515 0.671995 3.89212 0.950979C4.21954 0.65967 4.63324 0.5 5.0606 0.5C5.48796 0.5 5.90166 0.65967 6.22909 0.950979C6.53633 0.660401 6.9338 0.50019 7.34545 0.501004C8.04121 0.501004 8.70303 0.966407 8.89333 1.73651C9.07515 2.47189 9.30302 3.65726 9.30302 5.00075C9.30299 5.751 9.1261 6.48933 8.78845 7.14857C8.45079 7.80782 7.96308 8.36705 7.36969 8.7754C7.04121 9.00296 6.87878 9.29609 6.87878 9.54679V10.0559C6.87878 10.085 6.8804 10.1133 6.88363 10.1408C6.92484 10.4596 7.07393 11.6437 7.21333 12.8715C7.3503 14.0761 7.48484 15.39 7.48484 15.9287C7.48484 16.6107 7.22943 17.2647 6.7748 17.7469C6.32017 18.2291 5.70355 18.5 5.0606 18.5C4.41765 18.5 3.80104 18.2291 3.3464 17.7469C2.89177 17.2647 2.63636 16.6107 2.63636 15.9287C2.63636 15.3887 2.7709 14.0774 2.90787 12.8715C3.04727 11.6437 3.19636 10.4596 3.23757 10.1408L3.24242 10.0559V9.54679C3.24242 9.29609 3.07999 9.00296 2.75151 8.7754C2.15812 8.36705 1.67041 7.80782 1.33276 7.14857C0.995097 6.48933 0.818207 5.751 0.818176 5.00075C0.818176 3.65726 1.04606 2.47189 1.22787 1.73651ZM6.87878 5.64357C6.87878 5.81406 6.81493 5.97757 6.70127 6.09812C6.58761 6.21867 6.43346 6.2864 6.27272 6.2864C6.11198 6.2864 5.95783 6.21867 5.84417 6.09812C5.73051 5.97757 5.66666 5.81406 5.66666 5.64357V2.42947C5.66666 2.25898 5.60281 2.09548 5.48915 1.97492C5.37549 1.85437 5.22134 1.78665 5.0606 1.78665C4.89986 1.78665 4.74571 1.85437 4.63205 1.97492C4.51839 2.09548 4.45454 2.25898 4.45454 2.42947V5.64357C4.45454 5.81406 4.39069 5.97757 4.27703 6.09812C4.16337 6.21867 4.00922 6.2864 3.84848 6.2864C3.68774 6.2864 3.53359 6.21867 3.41993 6.09812C3.30627 5.97757 3.24242 5.81406 3.24242 5.64357V2.28162C3.24242 2.15034 3.19325 2.02445 3.10574 1.93162C3.01822 1.8388 2.89952 1.78665 2.77575 1.78665C2.57454 1.78665 2.43636 1.91393 2.39999 2.06306C2.16112 3.02198 2.03692 4.00895 2.0303 5.00075C2.03024 5.53691 2.15664 6.06457 2.39799 6.53567C2.63933 7.00678 2.98796 7.40636 3.41212 7.69803C3.94424 8.06444 4.45454 8.70855 4.45454 9.54679V10.0559C4.45454 10.1416 4.44929 10.2273 4.43878 10.313C4.39757 10.6293 4.24969 11.8057 4.11151 13.0257C3.9709 14.2664 3.84848 15.4865 3.84848 15.9287C3.84848 16.2697 3.97618 16.5967 4.2035 16.8378C4.43082 17.0789 4.73913 17.2144 5.0606 17.2144C5.38207 17.2144 5.69038 17.0789 5.9177 16.8378C6.14502 16.5967 6.27272 16.2697 6.27272 15.9287C6.27272 15.4865 6.15151 14.2664 6.00969 13.0244C5.87151 11.8057 5.72363 10.6293 5.68242 10.3117C5.6732 10.2272 5.66794 10.1423 5.66666 10.0572V9.54807C5.66666 8.70983 6.17696 8.06572 6.70908 7.69932C7.13341 7.40753 7.48215 7.00774 7.7235 6.5364C7.96486 6.06505 8.09116 5.53713 8.0909 5.00075C8.0909 3.80253 7.88727 2.73288 7.72121 2.06306C7.68484 1.91521 7.54545 1.78665 7.34545 1.78665C7.22168 1.78665 7.10298 1.8388 7.01547 1.93162C6.92795 2.02445 6.87878 2.15034 6.87878 2.28162V5.64357ZM10.5151 6.2864C10.5151 4.75201 11.0898 3.28048 12.1127 2.19551C13.1357 1.11053 14.5231 0.501004 15.9697 0.501004C16.1304 0.501004 16.2846 0.56873 16.3982 0.689282C16.5119 0.809835 16.5758 0.973339 16.5758 1.14383V8.82297L16.5988 9.05053C16.6952 10.01 16.7877 10.97 16.8764 11.9304C17.0254 13.5451 17.1818 15.3553 17.1818 15.9287C17.1818 16.6107 16.9264 17.2647 16.4718 17.7469C16.0171 18.2291 15.4005 18.5 14.7576 18.5C14.1146 18.5 13.498 18.2291 13.0434 17.7469C12.5887 17.2647 12.3333 16.6107 12.3333 15.9287C12.3333 15.3553 12.4897 13.5451 12.6388 11.9304C12.7151 11.1114 12.7915 10.3272 12.8485 9.74606L12.8727 9.5005H11.7273C11.4058 9.5005 11.0975 9.36505 10.8702 9.12395C10.6429 8.88284 10.5151 8.55583 10.5151 8.21486V6.2864ZM14.1479 8.92582L14.1224 9.18552C14.0277 10.1422 13.9356 11.0991 13.8461 12.0564C13.6921 13.711 13.5454 15.4376 13.5454 15.9287C13.5454 16.2697 13.6732 16.5967 13.9005 16.8378C14.1278 17.0789 14.4361 17.2144 14.7576 17.2144C15.079 17.2144 15.3874 17.0789 15.6147 16.8378C15.842 16.5967 15.9697 16.2697 15.9697 15.9287C15.9697 15.4363 15.823 13.711 15.6691 12.0564C15.5802 11.0991 15.4881 10.1421 15.3927 9.18552L15.3673 8.92711L15.3636 8.85768V1.83164C14.3538 1.98625 13.4302 2.52172 12.7624 3.3399C12.0945 4.15808 11.727 5.20416 11.7273 6.2864V8.21486H13.5454C13.6304 8.21489 13.7145 8.23388 13.7921 8.2706C13.8697 8.30732 13.9392 8.36094 13.996 8.42799C14.0528 8.49504 14.0957 8.57401 14.1218 8.65977C14.148 8.74554 14.1569 8.83618 14.1479 8.92582Z" fill="#252525" stroke="#252525" stroke-width="0.0818182"/>
</svg>
