<svg width="18" height="19" viewBox="0 0 18 19" fill="none" xmlns="http://www.w3.org/2000/svg">
<path d="M14.626 7.98614C14.2198 7.98594 13.8169 8.06471 13.437 8.21865L11.6714 4.97637H13.5023C13.6513 4.97637 13.7942 5.03979 13.8996 5.15268C14.005 5.26557 14.0642 5.41868 14.0642 5.57832C14.0642 5.73797 14.1234 5.89108 14.2287 6.00397C14.3341 6.11686 14.477 6.18028 14.626 6.18028C14.775 6.18028 14.9179 6.11686 15.0233 6.00397C15.1286 5.89108 15.1878 5.73797 15.1878 5.57832C15.1878 5.09938 15.0103 4.64005 14.6942 4.30139C14.3781 3.96272 13.9493 3.77246 13.5023 3.77246H10.6931C10.5946 3.7727 10.4979 3.80069 10.4127 3.85362C10.3274 3.90655 10.2567 3.98256 10.2075 4.07403C10.1584 4.1655 10.1325 4.26921 10.1326 4.37476C10.1326 4.48031 10.1586 4.58398 10.2078 4.67539L11.026 6.18028H6.98922L5.84097 4.07344C5.79177 3.98213 5.72104 3.90627 5.63588 3.85345C5.55071 3.80063 5.45409 3.7727 5.35568 3.77246H3.38925C3.24024 3.77246 3.09734 3.83588 2.99197 3.94877C2.88661 4.06166 2.82742 4.21477 2.82742 4.37442C2.82742 4.53406 2.88661 4.68717 2.99197 4.80006C3.09734 4.91295 3.24024 4.97637 3.38925 4.97637H5.03333L5.99618 6.74536L4.89287 8.36688C4.13482 7.96044 3.26191 7.87399 2.44718 8.12467C1.63244 8.37535 0.935347 8.94485 0.49409 9.7203C0.0528329 10.4957 -0.100379 11.4205 0.064825 12.3113C0.230029 13.2021 0.701589 13.9938 1.38603 14.5296C2.07047 15.0654 2.91782 15.3061 3.76012 15.204C4.60241 15.102 5.37816 14.6645 5.93359 13.9785C6.48902 13.2924 6.78358 12.4078 6.75888 11.5C6.73418 10.5922 6.39202 9.72742 5.80024 9.07718L6.6142 7.8808L8.80326 11.8988C8.83746 11.9725 8.88539 12.0378 8.94407 12.0908C9.00275 12.1438 9.07094 12.1833 9.14444 12.207C9.21794 12.2307 9.29519 12.238 9.37142 12.2284C9.44765 12.2189 9.52125 12.1927 9.58767 12.1515C9.6541 12.1103 9.71194 12.055 9.75763 11.9889C9.80332 11.9228 9.83589 11.8474 9.85334 11.7674C9.87078 11.6873 9.87272 11.6042 9.85905 11.5233C9.84538 11.4424 9.81637 11.3653 9.77383 11.2969L7.64447 7.38419H11.6813L12.4671 8.82662C11.8587 9.37145 11.449 10.1286 11.3101 10.965C11.1712 11.8015 11.3119 12.6636 11.7075 13.3999C12.1031 14.1361 12.7283 14.6994 13.4732 14.9907C14.2181 15.282 15.035 15.2826 15.7802 14.9924C16.5255 14.7023 17.1515 14.14 17.5481 13.4043C17.9447 12.6686 18.0865 11.8067 17.9487 10.9701C17.8108 10.1334 17.4022 9.37564 16.7945 8.8299C16.1868 8.28415 15.4189 7.98539 14.626 7.98614ZM5.6366 11.5979C5.63673 12.1129 5.48274 12.6144 5.19723 13.0287C4.91173 13.443 4.50975 13.7483 4.05033 13.8998C3.59091 14.0513 3.09826 14.041 2.64472 13.8704C2.19118 13.6998 1.80065 13.3778 1.53048 12.9519C1.2603 12.5259 1.12472 12.0184 1.14365 11.5038C1.16257 10.9891 1.335 10.4946 1.63561 10.0927C1.93622 9.69085 2.34918 9.40284 2.81385 9.27098C3.27851 9.13912 3.77039 9.17035 4.21726 9.3601L2.93557 11.2412C2.88891 11.3048 2.85468 11.3778 2.83494 11.4559C2.81521 11.534 2.81036 11.6155 2.82069 11.6956C2.83102 11.7758 2.85631 11.8528 2.89507 11.9222C2.93382 11.9917 2.98523 12.052 3.04624 12.0997C3.10724 12.1473 3.17659 12.1813 3.25013 12.1996C3.32367 12.2179 3.3999 12.2201 3.47426 12.2062C3.54862 12.1922 3.6196 12.1623 3.68294 12.1183C3.74629 12.0743 3.8007 12.0171 3.84294 11.95L5.12463 10.0689C5.45605 10.4993 5.6371 11.0399 5.6366 11.5979ZM14.626 14.0057C14.1809 14.0053 13.7459 13.8633 13.3762 13.5978C13.0065 13.3322 12.7187 12.9549 12.5493 12.5139C12.38 12.0728 12.3367 11.5879 12.425 11.1204C12.5133 10.653 12.7291 10.2242 13.0451 9.88832L14.1407 11.8988C14.1749 11.9725 14.2228 12.0378 14.2815 12.0908C14.3402 12.1438 14.4084 12.1833 14.4819 12.207C14.5554 12.2307 14.6326 12.238 14.7089 12.2284C14.7851 12.2189 14.8587 12.1927 14.9251 12.1515C14.9916 12.1103 15.0494 12.055 15.0951 11.9889C15.1408 11.9228 15.1733 11.8474 15.1908 11.7674C15.2082 11.6873 15.2102 11.6042 15.1965 11.5233C15.1828 11.4424 15.1538 11.3653 15.1113 11.2969L14.015 9.2811C14.3241 9.18734 14.6484 9.16568 14.966 9.21759C15.2836 9.26949 15.5872 9.39376 15.8562 9.582C16.1251 9.77025 16.3533 10.0181 16.5253 10.3088C16.6973 10.5996 16.8091 10.9264 16.8532 11.2674C16.8973 11.6084 16.8727 11.9555 16.7809 12.2854C16.6892 12.6153 16.5325 12.9203 16.3214 13.1798C16.1104 13.4393 15.8498 13.6473 15.5573 13.7898C15.2649 13.9322 14.9473 14.0059 14.626 14.0057Z" fill="#252525"/>
</svg>
