<svg width="18" height="19" viewBox="0 0 18 19" fill="none" xmlns="http://www.w3.org/2000/svg">
<path d="M11.4545 16.864V10.6629C11.4545 10.4573 11.3683 10.2601 11.2149 10.1148C11.0615 9.96939 10.8533 9.88772 10.6364 9.88772H7.36363C7.14663 9.88772 6.93852 9.96939 6.78508 10.1148C6.63164 10.2601 6.54544 10.4573 6.54544 10.6629V16.864M1.63635 8.33744C1.6363 8.11193 1.68817 7.88912 1.78836 7.68455C1.88855 7.47999 2.03464 7.2986 2.21644 7.15303L7.94372 2.50296C8.23907 2.26647 8.61328 2.13672 8.99999 2.13672C9.3867 2.13672 9.76091 2.26647 10.0563 2.50296L15.7835 7.15303C15.9653 7.2986 16.1114 7.47999 16.2116 7.68455C16.3118 7.88912 16.3637 8.11193 16.3636 8.33744V15.3137C16.3636 15.7249 16.1912 16.1192 15.8843 16.4099C15.5775 16.7007 15.1613 16.864 14.7273 16.864H3.27272C2.83873 16.864 2.42251 16.7007 2.11563 16.4099C1.80875 16.1192 1.63635 15.7249 1.63635 15.3137V8.33744Z" stroke="#252525" stroke-width="1.47273" stroke-linecap="round" stroke-linejoin="round"/>
</svg>
