<svg width="22" height="22" viewBox="0 0 22 22" fill="none" xmlns="http://www.w3.org/2000/svg">
<path d="M16.0147 14.5404C13.8341 13.7287 11.8801 12.4058 10.3165 10.6827C8.59375 9.11903 7.27119 7.16501 6.45977 4.98458M10.5567 4.98458C10.825 4.71438 11.1442 4.49993 11.4957 4.3536C11.8473 4.20726 12.2243 4.13192 12.6052 4.13192C12.986 4.13192 13.363 4.20726 13.7146 4.3536C14.0661 4.49993 14.3853 4.71438 14.6536 4.98458M8.51556 2.92885L3.05188 8.3935C2.40884 9.01738 1.89629 9.7629 1.54407 10.5867C1.19184 11.4105 1.00696 12.2961 1.00019 13.192C0.993423 14.0879 1.1649 14.9762 1.50463 15.8052C1.84437 16.6342 2.34559 17.3874 2.97913 18.0209C3.61266 18.6545 4.36586 19.1557 5.19491 19.4954C6.02395 19.8351 6.91228 20.0066 7.80821 19.9998C8.70414 19.993 9.58978 19.8082 10.4136 19.4559C11.2374 19.1037 11.983 18.5912 12.6068 17.9482L18.0705 12.4847C19.3158 11.2131 20.0092 9.50159 19.9999 7.72186C19.9907 5.94212 19.2796 4.2379 18.0212 2.97935C16.7627 1.72079 15.0585 1.00955 13.2787 1.0001C11.499 0.990641 9.78731 1.68374 8.51556 2.92885Z" stroke="#252525" stroke-width="1.8" stroke-linecap="round" stroke-linejoin="round"/>
</svg>
