<svg width="18" height="19" viewBox="0 0 18 19" fill="none" xmlns="http://www.w3.org/2000/svg">
<path d="M16.3643 13.5911L13.9097 7.86381L11.4552 13.5911M6.54608 13.5911L4.09154 7.86381L1.63699 13.5911M2.45517 7.86381H3.31263C4.34681 7.86381 5.3499 7.287 6.15663 6.22745C7.81917 4.04536 10.1821 4.04536 11.8446 6.22745C12.6514 7.287 13.6544 7.86381 14.6886 7.86381H15.5461M13.9097 17.682C15.1861 17.682 16.2972 16.8213 16.8699 15.5523C17.1587 14.9141 17.3027 14.5942 17.0581 14.0926C16.8134 13.5911 16.4068 13.5911 15.5952 13.5911H12.2226C11.411 13.5911 11.006 13.5911 10.7605 14.0926C10.5151 14.5942 10.6599 14.9133 10.9487 15.5523C11.5223 16.8213 12.6334 17.682 13.9097 17.682ZM4.09154 17.682C5.3679 17.682 6.47899 16.8213 7.05172 15.5523C7.34054 14.9141 7.48454 14.5942 7.2399 14.0926C6.99526 13.5911 6.58945 13.5911 5.77699 13.5911H2.40526C1.59363 13.5911 1.18863 13.5911 0.943174 14.0926C0.697719 14.5942 0.842538 14.9133 1.13136 15.5523C1.70408 16.8213 2.81517 17.682 4.09154 17.682ZM10.637 2.95472C10.637 3.38871 10.4646 3.80493 10.1577 4.11181C9.85083 4.41868 9.43462 4.59109 9.00063 4.59109C8.56664 4.59109 8.15042 4.41868 7.84354 4.11181C7.53667 3.80493 7.36426 3.38871 7.36426 2.95472C7.36426 2.52073 7.53667 2.10452 7.84354 1.79764C8.15042 1.49076 8.56664 1.31836 9.00063 1.31836C9.43462 1.31836 9.85083 1.49076 10.1577 1.79764C10.4646 2.10452 10.637 2.52073 10.637 2.95472Z" stroke="#252525" stroke-width="1.30909" stroke-linecap="round" stroke-linejoin="round"/>
</svg>
