<svg width="18" height="19" viewBox="0 0 18 19" fill="none" xmlns="http://www.w3.org/2000/svg">
<path d="M8.93737 3.13496L9 3.20948L9.06263 3.13496C9.98385 2.03887 11.344 1.40019 12.8793 1.40018C14.2137 1.40189 15.494 1.96163 16.439 2.95816C17.3842 3.95484 17.9166 5.30703 17.9182 6.71832C17.9181 9.6414 15.8887 12.2825 13.796 14.2264C11.707 16.1668 9.57398 17.395 9.40106 17.4935C9.27754 17.5636 9.13975 17.6002 9 17.6002C8.86025 17.6002 8.72246 17.5636 8.59894 17.4935C8.42602 17.395 6.29296 16.1668 4.20402 14.2264C2.11129 12.2825 0.0818406 9.64137 0.0818182 6.71828C0.0834488 5.307 0.615853 3.95483 1.561 2.95816C2.506 1.96163 3.78628 1.40189 5.12074 1.40018C6.656 1.40019 8.01615 2.03887 8.93737 3.13496ZM12.5079 13.0267L12.5083 13.0264C13.3517 12.2633 14.2782 11.2981 14.9943 10.2195C15.71 9.14156 16.2197 7.94406 16.2197 6.71823C16.2197 5.78653 15.8688 4.89218 15.2429 4.23211C14.6168 3.5719 13.7667 3.20013 12.8793 3.20013C11.4663 3.20013 10.2788 3.98832 9.7857 5.26014L9.78568 5.26018C9.7214 5.42623 9.61195 5.56764 9.47194 5.66684C9.33199 5.766 9.1677 5.81864 9 5.81864C8.8323 5.81864 8.66801 5.766 8.52806 5.66684C8.38805 5.56764 8.2786 5.42623 8.21432 5.26018L8.2143 5.26014C7.7212 3.98832 6.53371 3.20013 5.12069 3.20013C4.23331 3.20013 3.38321 3.5719 2.75713 4.23211C2.13119 4.89218 1.78025 5.78653 1.78025 6.71823C1.78025 7.94406 2.29003 9.14156 3.00571 10.2195C3.7218 11.2981 4.64826 12.2633 5.49175 13.0264L5.49208 13.0267C6.57606 13.9967 7.73487 14.8697 8.95649 15.6368L9 15.6641L9.04351 15.6368C10.2651 14.8697 11.4239 13.9967 12.5079 13.0267Z" fill="#252525" stroke="#F6F6F6" stroke-width="0.163636"/>
</svg>
