<svg width="22" height="22" viewBox="0 0 22 22" fill="none" xmlns="http://www.w3.org/2000/svg">
<path d="M10.9999 4.07472C10.7772 4.07454 10.5591 4.14874 10.3708 4.28872C10.1826 4.42869 10.0319 4.62868 9.93641 4.86544C9.88786 4.99092 9.81856 5.10377 9.73256 5.19739C9.64657 5.29101 9.54559 5.36354 9.43554 5.41074C9.32548 5.45795 9.20854 5.47888 9.09153 5.47232C8.97453 5.46576 8.85981 5.43184 8.75406 5.37254C8.64831 5.31324 8.55365 5.22975 8.4756 5.12693C8.39755 5.02411 8.33768 4.90403 8.29947 4.77368C8.26126 4.64333 8.24548 4.50534 8.25305 4.36774C8.26063 4.23014 8.2914 4.09569 8.34358 3.97224C8.53626 3.49644 8.8187 3.07871 9.16935 2.75091C9.52 2.42311 9.92961 2.19389 10.3669 2.08072C10.8043 1.96756 11.2578 1.97345 11.6929 2.09793C12.128 2.22241 12.5332 2.46221 12.8776 2.79903C13.2221 3.13585 13.4966 3.56081 13.6803 4.04149C13.8641 4.52218 13.9521 5.04591 13.9378 5.57274C13.9235 6.09957 13.8072 6.6156 13.5977 7.08148C13.3883 7.54735 13.0912 7.95078 12.7292 8.26099C12.4551 8.49502 12.2269 8.71798 12.0704 8.9437C11.9151 9.1625 11.8822 9.30929 11.8822 9.40484C11.8822 9.5821 11.9645 9.74412 12.0951 9.82859L19.7746 14.7862C20.234 15.0827 20.5965 15.5507 20.805 16.1165C21.0136 16.6823 21.0562 17.3137 20.9263 17.9111C20.7963 18.5086 20.5011 19.0381 20.0873 19.4163C19.6735 19.7946 19.1645 19.9999 18.6406 20H3.3592C2.83459 20.0008 2.32478 19.7954 1.91054 19.4165C1.4963 19.0376 1.20131 18.5068 1.07233 17.9082C0.94335 17.3096 0.987747 16.6775 1.19849 16.112C1.40923 15.5464 1.77426 15.0799 2.23574 14.7862L8.52239 10.7786C8.62441 10.7114 8.73676 10.6687 8.8529 10.653C8.96905 10.6374 9.08668 10.6491 9.19897 10.6874C9.31125 10.7257 9.41594 10.7899 9.50696 10.8763C9.59797 10.9627 9.6735 11.0695 9.72916 11.1905C9.78481 11.3115 9.81948 11.4443 9.83114 11.5813C9.84281 11.7182 9.83124 11.8565 9.79711 11.9881C9.76298 12.1197 9.70697 12.2421 9.63233 12.348C9.55769 12.4539 9.46591 12.5413 9.36233 12.6051L3.07686 16.6128C2.96064 16.6863 2.86864 16.8035 2.8155 16.9457C2.76235 17.0879 2.75111 17.2469 2.78357 17.3975C2.81602 17.5481 2.8903 17.6816 2.9946 17.7768C3.0989 17.8719 3.22723 17.9233 3.3592 17.9228H18.6406C18.7728 17.9229 18.9013 17.8711 19.0058 17.7757C19.1103 17.6802 19.1848 17.5466 19.2176 17.3957C19.2504 17.2449 19.2395 17.0855 19.1868 16.9427C19.1341 16.7999 19.0425 16.6819 18.9264 16.6072L11.2481 11.6496C10.9065 11.4289 10.6215 11.1043 10.4228 10.7097C10.2242 10.3151 10.1191 9.86493 10.1188 9.40623C10.1188 8.6612 10.4011 8.06158 10.7081 7.62259C11.0116 7.18915 11.3881 6.84156 11.6916 6.58122C11.893 6.40957 12.043 6.1672 12.1201 5.88892C12.1972 5.61064 12.1974 5.31075 12.1207 5.03232C12.044 4.75389 11.8943 4.51123 11.6932 4.33919C11.492 4.16714 11.2497 4.07455 11.0011 4.07472" fill="#252525"/>
</svg>
