<svg width="20" height="19" viewBox="0 0 20 19" fill="none" xmlns="http://www.w3.org/2000/svg">
<path d="M5.12435 9.50006C5.53851 9.50006 5.87426 9.13377 5.87426 8.68191C5.87426 8.23006 5.53851 7.86376 5.12435 7.86376C4.71019 7.86376 4.37445 8.23006 4.37445 8.68191C4.37445 9.13377 4.71019 9.50006 5.12435 9.50006Z" fill="#252525"/>
<path d="M8.12411 9.50006C8.53827 9.50006 8.87402 9.13377 8.87402 8.68191C8.87402 8.23006 8.53827 7.86376 8.12411 7.86376C7.70995 7.86376 7.3742 8.23006 7.3742 8.68191C7.3742 9.13377 7.70995 9.50006 8.12411 9.50006Z" fill="#252525"/>
<path d="M11.8736 8.68191C11.8736 9.13377 11.5379 9.50006 11.1237 9.50006C10.7095 9.50006 10.3738 9.13377 10.3738 8.68191C10.3738 8.23006 10.7095 7.86376 11.1237 7.86376C11.5379 7.86376 11.8736 8.23006 11.8736 8.68191Z" fill="#252525"/>
<path fill-rule="evenodd" clip-rule="evenodd" d="M15.2482 8.68192C15.2482 5.07388 12.0536 2.13672 8.1241 2.13672C4.1946 2.13672 1 5.07388 1 8.68192C1.00523 10.0264 1.43716 11.3274 2.22235 12.3636L1.37495 15.5257C1.35522 15.6031 1.35679 15.6851 1.37946 15.7614C1.40213 15.8378 1.4449 15.9052 1.50244 15.9553C1.57239 16.0166 1.6602 16.0485 1.74991 16.0453C1.81432 16.045 1.87759 16.0267 1.93363 15.9921L4.6108 14.3558C5.70779 14.9281 6.90813 15.2258 8.1241 15.2271C12.0536 15.2271 15.2482 12.29 15.2482 8.68192ZM8.1241 14.409C6.96003 14.4133 5.81148 14.1175 4.77203 13.5458C4.71778 13.5143 4.65726 13.4978 4.5958 13.4978C4.53434 13.4978 4.47382 13.5143 4.41957 13.5458L2.35733 14.818L2.9985 12.3636C3.01594 12.2984 3.01821 12.2294 3.00512 12.163C2.99203 12.0966 2.96398 12.0348 2.92351 11.9832C2.17802 11.0746 1.76089 9.90126 1.74991 8.68192C1.74991 5.52386 4.6108 2.95487 8.1241 2.95487C11.6374 2.95487 14.4983 5.52386 14.4983 8.68192C14.4983 11.84 11.6374 14.409 8.1241 14.409Z" fill="#252525"/>
<path d="M18.7565 9.89707C19.1484 11.2112 19.0561 12.6401 18.4991 13.8813L18.9902 16.3562C19.0061 16.4305 19.0026 16.5083 18.98 16.5806C18.9575 16.6528 18.9169 16.7168 18.8628 16.7652C18.7958 16.8277 18.7109 16.8624 18.6228 16.8634C18.579 16.8626 18.5358 16.8529 18.4953 16.8348L16.7143 16.0575C15.9251 16.5948 15.0115 16.8746 14.0814 16.8637C13.1512 16.8528 12.2434 16.5518 11.4649 15.9962C11.4234 15.9668 11.3876 15.9287 11.3597 15.8841C11.3317 15.8396 11.3121 15.7894 11.302 15.7366C11.2919 15.6837 11.2915 15.6292 11.3008 15.5762C11.3101 15.5231 11.3289 15.4726 11.3562 15.4276C11.4112 15.3379 11.4964 15.2755 11.5933 15.2541C11.6902 15.2326 11.791 15.2538 11.8736 15.313C12.5427 15.7897 13.3243 16.0441 14.1234 16.0453C14.9526 16.0497 15.7635 15.7786 16.4481 15.268C16.4992 15.23 16.5581 15.2064 16.6196 15.1993C16.6811 15.1921 16.7432 15.2017 16.8005 15.2271L18.1166 15.7916L17.7416 13.9099C17.7234 13.817 17.7353 13.7201 17.7754 13.6358C18.2828 12.5805 18.3858 11.3486 18.0618 10.2105C17.7377 9.0724 17.0131 8.12104 16.0469 7.56514C16.0033 7.53989 15.9647 7.50552 15.9333 7.464C15.9019 7.42248 15.8783 7.37462 15.8638 7.32315C15.8494 7.27168 15.8444 7.21761 15.8491 7.16402C15.8538 7.11043 15.8681 7.05838 15.8913 7.01084C15.9144 6.9633 15.9459 6.92119 15.984 6.88693C16.022 6.85267 16.0659 6.82692 16.1131 6.81116C16.1602 6.79539 16.2098 6.78992 16.2589 6.79506C16.308 6.80019 16.3557 6.81583 16.3993 6.84107C17.5191 7.48691 18.3646 8.58296 18.7565 9.89707Z" fill="#252525"/>
<path d="M5.12435 9.50006C5.53851 9.50006 5.87426 9.13377 5.87426 8.68191C5.87426 8.23006 5.53851 7.86376 5.12435 7.86376C4.71019 7.86376 4.37445 8.23006 4.37445 8.68191C4.37445 9.13377 4.71019 9.50006 5.12435 9.50006Z" stroke="#252525" stroke-width="0.572727"/>
<path d="M8.12411 9.50006C8.53827 9.50006 8.87402 9.13377 8.87402 8.68191C8.87402 8.23006 8.53827 7.86376 8.12411 7.86376C7.70995 7.86376 7.3742 8.23006 7.3742 8.68191C7.3742 9.13377 7.70995 9.50006 8.12411 9.50006Z" stroke="#252525" stroke-width="0.572727"/>
<path d="M11.8736 8.68191C11.8736 9.13377 11.5379 9.50006 11.1237 9.50006C10.7095 9.50006 10.3738 9.13377 10.3738 8.68191C10.3738 8.23006 10.7095 7.86376 11.1237 7.86376C11.5379 7.86376 11.8736 8.23006 11.8736 8.68191Z" stroke="#252525" stroke-width="0.572727"/>
<path fill-rule="evenodd" clip-rule="evenodd" d="M15.2482 8.68192C15.2482 5.07388 12.0536 2.13672 8.1241 2.13672C4.1946 2.13672 1 5.07388 1 8.68192C1.00523 10.0264 1.43716 11.3274 2.22235 12.3636L1.37495 15.5257C1.35522 15.6031 1.35679 15.6851 1.37946 15.7614C1.40213 15.8378 1.4449 15.9052 1.50244 15.9553C1.57239 16.0166 1.6602 16.0485 1.74991 16.0453C1.81432 16.045 1.87759 16.0267 1.93363 15.9921L4.6108 14.3558C5.70779 14.9281 6.90813 15.2258 8.1241 15.2271C12.0536 15.2271 15.2482 12.29 15.2482 8.68192ZM8.1241 14.409C6.96003 14.4133 5.81148 14.1175 4.77203 13.5458C4.71778 13.5143 4.65726 13.4978 4.5958 13.4978C4.53434 13.4978 4.47382 13.5143 4.41957 13.5458L2.35733 14.818L2.9985 12.3636C3.01594 12.2984 3.01821 12.2294 3.00512 12.163C2.99203 12.0966 2.96398 12.0348 2.92351 11.9832C2.17802 11.0746 1.76089 9.90126 1.74991 8.68192C1.74991 5.52386 4.6108 2.95487 8.1241 2.95487C11.6374 2.95487 14.4983 5.52386 14.4983 8.68192C14.4983 11.84 11.6374 14.409 8.1241 14.409Z" stroke="#252525" stroke-width="0.572727"/>
<path d="M18.7565 9.89707C19.1484 11.2112 19.0561 12.6401 18.4991 13.8813L18.9902 16.3562C19.0061 16.4305 19.0026 16.5083 18.98 16.5806C18.9575 16.6528 18.9169 16.7168 18.8628 16.7652C18.7958 16.8277 18.7109 16.8624 18.6228 16.8634C18.579 16.8626 18.5358 16.8529 18.4953 16.8348L16.7143 16.0575C15.9251 16.5948 15.0115 16.8746 14.0814 16.8637C13.1512 16.8528 12.2434 16.5518 11.4649 15.9962C11.4234 15.9668 11.3876 15.9287 11.3597 15.8841C11.3317 15.8396 11.3121 15.7894 11.302 15.7366C11.2919 15.6837 11.2915 15.6292 11.3008 15.5762C11.3101 15.5231 11.3289 15.4726 11.3562 15.4276C11.4112 15.3379 11.4964 15.2755 11.5933 15.2541C11.6902 15.2326 11.791 15.2538 11.8736 15.313C12.5427 15.7897 13.3243 16.0441 14.1234 16.0453C14.9526 16.0497 15.7635 15.7786 16.4481 15.268C16.4992 15.23 16.5581 15.2064 16.6196 15.1993C16.6811 15.1921 16.7432 15.2017 16.8005 15.2271L18.1166 15.7916L17.7416 13.9099C17.7234 13.817 17.7353 13.7201 17.7754 13.6358C18.2828 12.5805 18.3858 11.3486 18.0618 10.2105C17.7377 9.0724 17.0131 8.12104 16.0469 7.56514C16.0033 7.53989 15.9647 7.50552 15.9333 7.464C15.9019 7.42248 15.8783 7.37462 15.8638 7.32315C15.8494 7.27168 15.8444 7.21761 15.8491 7.16402C15.8538 7.11043 15.8681 7.05838 15.8913 7.01084C15.9144 6.9633 15.9459 6.92119 15.984 6.88693C16.022 6.85267 16.0659 6.82692 16.1131 6.81116C16.1602 6.79539 16.2098 6.78992 16.2589 6.79506C16.308 6.80019 16.3557 6.81583 16.3993 6.84107C17.5191 7.48691 18.3646 8.58296 18.7565 9.89707Z" stroke="#252525" stroke-width="0.572727"/>
</svg>
