<svg width="20" height="19" viewBox="0 0 20 19" fill="none" xmlns="http://www.w3.org/2000/svg">
<path d="M14.412 5.1931C15.1901 5.54199 16.0912 5.17041 16.4276 4.36164C16.7611 3.55314 16.4045 2.61665 15.6266 2.26748C14.8513 1.91886 13.9516 2.29125 13.6152 3.10002C13.2801 3.90636 13.6367 4.84556 14.412 5.1931Z" fill="#252525"/>
<path d="M14.1149 6.34941C14.2296 6.26084 14.3689 6.21277 14.5108 6.21277H15.4035C15.6196 6.21277 15.8224 6.32267 15.9467 6.50819L17.3623 8.61666L18.6729 9.45055C19.4295 9.93149 18.7365 11.1126 17.9799 10.6317L16.5518 9.72194C16.4734 9.67279 16.4057 9.6069 16.3518 9.5294L15.8302 8.75196L15.8222 10.8164L17.3405 12.829C17.4217 12.9376 17.4744 13.064 17.4959 13.199L17.9148 15.8743C18.1417 16.9839 16.5043 17.2623 16.3801 16.137L15.9882 13.6672L13.9917 11.0119C13.8849 10.8699 13.8242 10.6941 13.8242 10.514V8.30045L13.3638 8.65744L12.845 10.6139C12.6775 11.5193 11.371 11.2593 11.5386 10.3536L12.1061 8.1314C12.1372 7.96101 12.229 7.80951 12.3629 7.70501L14.1149 6.34941Z" fill="#252525"/>
<path d="M13.9311 11.7051L13.6015 12.9889L11.9415 15.5513C11.285 16.4616 12.6682 17.4332 13.2316 16.457L14.9663 13.7833C15.0649 13.6313 15.1339 13.5133 15.1339 13.3021L13.9311 11.7051Z" fill="#252525"/>
<path d="M7.26563 9.61203C7.31984 9.47026 7.43734 9.39842 7.54135 9.39842C7.64406 9.40004 7.73458 9.47026 7.73484 9.61176V10.0225L7.79813 9.85506C7.89021 9.61581 8.19134 9.61743 8.19134 9.85506V10.2588C8.3602 10.322 8.48469 10.4543 8.62087 10.6792C8.8141 10.9987 8.9316 11.0549 9.39484 11.1845C9.56369 11.2304 9.64592 11.3854 9.56369 11.619C9.4947 11.8199 9.34764 12.1717 8.94898 12.222L8.17889 12.2309C7.88839 12.2336 7.74911 12.3743 7.68841 12.6079C8.11794 12.8352 8.61386 12.9945 9.11498 13.0129C10.0487 13.0461 10.9983 12.647 11.6885 11.3349L12.11 11.5741C11.3466 13.024 10.1849 13.55 9.10019 13.5103C8.09511 13.4739 7.16162 12.99 6.56169 12.388L6.42137 12.5214C6.74792 12.8946 7.20883 13.2292 7.73692 13.4628C7.7613 13.6062 7.7709 13.7539 7.72473 13.9227C7.68672 14.0645 7.62371 14.2088 7.55566 14.3647C7.42544 14.663 7.27672 15.0036 7.24929 15.45L7.18575 16.491C7.32892 16.5556 7.42074 16.7019 7.42074 16.8634H6.63846L6.46702 15.0336C6.3669 15.0352 6.26548 15.0366 6.16977 15.0336L6.07795 16.5345C6.17937 16.6107 6.24006 16.733 6.24006 16.8637H5.45779L5.26611 14.955C4.74866 14.8751 4.29734 14.7331 3.91243 14.5305C3.80687 14.9143 3.47461 15.4543 3.11926 15.5543L3.33688 16.4756C3.50029 16.5272 3.61259 16.6849 3.61259 16.8637H2.83162L2.47368 15.5783L2.56135 14.8354C2.40728 15.1646 2.0317 15.4587 1.71293 15.5543L1.95078 16.4308C2.11418 16.484 2.22649 16.6417 2.22649 16.8202H1.44422L1.0051 15.5321C0.988757 15.4687 1.01314 15.4025 1.05775 15.356C1.60942 14.8017 1.65848 14.1243 1.69379 13.6367C1.7005 13.5441 1.70672 13.4583 1.71578 13.3815C1.77103 12.9046 1.91161 12.5028 2.36837 12.2282C2.02807 11.9805 1.72927 11.656 1.48338 11.2566C1.37678 11.0905 1.44422 10.8639 1.62267 10.7894C1.7591 10.7319 1.91576 10.7851 1.99409 10.9158C2.32402 11.4507 2.71438 11.798 3.19526 11.9835C3.45447 11.9688 3.70529 11.9983 3.98585 12.0313C4.39983 12.08 4.87855 12.1363 5.54442 12.0694C6.27145 12.0116 6.55235 11.5744 6.67918 11.1918L7.26563 9.61203Z" fill="#252525"/>
<path d="M14.412 5.1931C15.1901 5.54199 16.0912 5.17041 16.4276 4.36164C16.7611 3.55314 16.4045 2.61665 15.6266 2.26748C14.8513 1.91886 13.9516 2.29125 13.6152 3.10002C13.2801 3.90636 13.6367 4.84556 14.412 5.1931Z" stroke="#252525" stroke-width="0.0818182"/>
<path d="M14.1149 6.34941C14.2296 6.26084 14.3689 6.21277 14.5108 6.21277H15.4035C15.6196 6.21277 15.8224 6.32267 15.9467 6.50819L17.3623 8.61666L18.6729 9.45055C19.4295 9.93149 18.7365 11.1126 17.9799 10.6317L16.5518 9.72194C16.4734 9.67279 16.4057 9.6069 16.3518 9.5294L15.8302 8.75196L15.8222 10.8164L17.3405 12.829C17.4217 12.9376 17.4744 13.064 17.4959 13.199L17.9148 15.8743C18.1417 16.9839 16.5043 17.2623 16.3801 16.137L15.9882 13.6672L13.9917 11.0119C13.8849 10.8699 13.8242 10.6941 13.8242 10.514V8.30045L13.3638 8.65744L12.845 10.6139C12.6775 11.5193 11.371 11.2593 11.5386 10.3536L12.1061 8.1314C12.1372 7.96101 12.229 7.80951 12.3629 7.70501L14.1149 6.34941Z" stroke="#252525" stroke-width="0.0818182"/>
<path d="M13.9311 11.7051L13.6015 12.9889L11.9415 15.5513C11.285 16.4616 12.6682 17.4332 13.2316 16.457L14.9663 13.7833C15.0649 13.6313 15.1339 13.5133 15.1339 13.3021L13.9311 11.7051Z" stroke="#252525" stroke-width="0.0818182"/>
<path d="M7.26563 9.61203C7.31984 9.47026 7.43734 9.39842 7.54135 9.39842C7.64406 9.40004 7.73458 9.47026 7.73484 9.61176V10.0225L7.79813 9.85506C7.89021 9.61581 8.19134 9.61743 8.19134 9.85506V10.2588C8.3602 10.322 8.48469 10.4543 8.62087 10.6792C8.8141 10.9987 8.9316 11.0549 9.39484 11.1845C9.56369 11.2304 9.64592 11.3854 9.56369 11.619C9.4947 11.8199 9.34764 12.1717 8.94898 12.222L8.17889 12.2309C7.88839 12.2336 7.74911 12.3743 7.68841 12.6079C8.11794 12.8352 8.61386 12.9945 9.11498 13.0129C10.0487 13.0461 10.9983 12.647 11.6885 11.3349L12.11 11.5741C11.3466 13.024 10.1849 13.55 9.10019 13.5103C8.09511 13.4739 7.16162 12.99 6.56169 12.388L6.42137 12.5214C6.74792 12.8946 7.20883 13.2292 7.73692 13.4628C7.7613 13.6062 7.7709 13.7539 7.72473 13.9227C7.68672 14.0645 7.62371 14.2088 7.55566 14.3647C7.42544 14.663 7.27672 15.0036 7.24929 15.45L7.18575 16.491C7.32892 16.5556 7.42074 16.7019 7.42074 16.8634H6.63846L6.46702 15.0336C6.3669 15.0352 6.26548 15.0366 6.16977 15.0336L6.07795 16.5345C6.17937 16.6107 6.24006 16.733 6.24006 16.8637H5.45779L5.26611 14.955C4.74866 14.8751 4.29734 14.7331 3.91243 14.5305C3.80687 14.9143 3.47461 15.4543 3.11926 15.5543L3.33688 16.4756C3.50029 16.5272 3.61259 16.6849 3.61259 16.8637H2.83162L2.47368 15.5783L2.56135 14.8354C2.40728 15.1646 2.0317 15.4587 1.71293 15.5543L1.95078 16.4308C2.11418 16.484 2.22649 16.6417 2.22649 16.8202H1.44422L1.0051 15.5321C0.988757 15.4687 1.01314 15.4025 1.05775 15.356C1.60942 14.8017 1.65848 14.1243 1.69379 13.6367C1.7005 13.5441 1.70672 13.4583 1.71578 13.3815C1.77103 12.9046 1.91161 12.5028 2.36837 12.2282C2.02807 11.9805 1.72927 11.656 1.48338 11.2566C1.37678 11.0905 1.44422 10.8639 1.62267 10.7894C1.7591 10.7319 1.91576 10.7851 1.99409 10.9158C2.32402 11.4507 2.71438 11.798 3.19526 11.9835C3.45447 11.9688 3.70529 11.9983 3.98585 12.0313C4.39983 12.08 4.87855 12.1363 5.54442 12.0694C6.27145 12.0116 6.55235 11.5744 6.67918 11.1918L7.26563 9.61203Z" stroke="#252525" stroke-width="0.0818182"/>
</svg>
