<svg width="16" height="16" viewBox="0 0 16 16" fill="none" xmlns="http://www.w3.org/2000/svg">
<g opacity="0.9">
<path d="M13.8955 5.07212C13.7916 5.0245 13.681 5.00021 13.5694 5.00053H13.5577C12.9683 5.01076 12.3074 5.65474 11.9605 6.62871C11.5447 7.79394 11.7361 8.9861 12.3912 9.29258C12.495 9.34024 12.6055 9.36454 12.717 9.36417C13.3093 9.36417 13.9794 8.71644 14.3291 7.73599C14.742 6.57076 14.5477 5.3786 13.8955 5.07212ZM10.0927 9.61917C9.28037 8.04656 8.92972 7.45508 8.0005 7.45508C7.07127 7.45508 6.7177 8.05031 5.90536 9.61917C5.2099 10.961 3.80438 11.0728 3.45373 12.2125C3.38259 12.4212 3.34686 12.6441 3.34854 12.8687C3.34854 13.7956 3.95633 14.546 4.70438 14.546C5.63361 14.546 6.89887 13.6804 8.00342 13.6804C9.10797 13.6804 10.3674 14.546 11.2966 14.546C12.0447 14.546 12.6495 13.796 12.6495 12.8687C12.6502 12.6439 12.6135 12.421 12.5414 12.2125C12.1908 11.0687 10.7882 10.961 10.0927 9.61917ZM6.14526 5.95508C6.18439 5.95512 6.22346 5.9517 6.26215 5.94485C6.94036 5.82997 7.36377 4.7336 7.21007 3.49542C7.06543 2.32815 6.45822 1.45508 5.82325 1.45508C5.78412 1.45504 5.74505 1.45846 5.70637 1.46531C5.02815 1.58019 4.60474 2.67656 4.75844 3.91474C4.90309 5.0786 5.51029 5.95508 6.14526 5.95508ZM11.2417 3.91474C11.3954 2.67656 10.972 1.58019 10.2937 1.46531C10.2551 1.45846 10.216 1.45504 10.1769 1.45508C9.5419 1.45508 8.93586 2.32815 8.79092 3.49542C8.63722 4.7336 9.06063 5.82997 9.73884 5.94485C9.77753 5.9517 9.8166 5.95512 9.85573 5.95508C10.4907 5.95508 11.0979 5.0786 11.2417 3.91474ZM3.61065 9.29258C4.2649 8.98576 4.45601 7.79258 4.04078 6.62871C3.6913 5.64826 3.02185 5.00053 2.43042 5.00053C2.31891 5.00017 2.20836 5.02446 2.1046 5.07212C1.45035 5.37894 1.25924 6.57212 1.67447 7.73599C2.02395 8.71644 2.6934 9.36417 3.28483 9.36417C3.39634 9.36454 3.5069 9.34024 3.61065 9.29258Z" stroke="#3DAC47" stroke-width="1.09091" stroke-miterlimit="10"/>
</g>
</svg>
