<svg width="255" height="82" viewBox="0 0 255 82" fill="none" xmlns="http://www.w3.org/2000/svg">
<path d="M44.914 25.552H48.486V51.962H45.218V36.382C44.686 37.218 44.116 38.016 43.432 38.738C43.166 43.488 40.43 49.378 33.514 51.582C28.536 53.178 23.064 50.518 22.722 50.366L24.166 47.402C24.204 47.44 28.764 49.644 32.526 48.466C36.364 47.25 38.53 44.59 39.518 41.778C38.644 42.234 37.77 42.614 36.858 42.88C33.476 43.906 30.056 43.45 27.206 41.588C22.95 38.776 22.722 33.76 24.318 30.454C26.218 26.464 30.55 24.336 35.642 25.932C40.734 27.528 42.406 32.164 42.9 33.798C44.686 30.492 44.914 25.552 44.914 25.552ZM35.946 39.764C37.466 39.308 38.948 38.434 40.164 37.37C40.088 35.508 39.556 33.722 38.682 32.278C37.694 30.682 36.288 29.58 34.654 29.048C33.856 28.82 29.334 27.528 27.282 31.86C25.838 34.9 27.168 37.598 29.03 38.852C31.576 40.562 34.198 40.296 35.946 39.764ZM53.0538 25.396H71.8098V52H67.6338V29.356H57.2298V52H53.0538V25.396ZM75.8415 38.716C75.8415 36.772 76.2015 34.972 76.9215 33.316C77.6655 31.636 78.6615 30.172 79.9095 28.924C81.1815 27.676 82.6815 26.704 84.4095 26.008C86.1375 25.288 87.9855 24.928 89.9535 24.928C91.8495 24.928 93.6255 25.288 95.2815 26.008C96.9615 26.728 98.4135 27.712 99.6375 28.96C100.886 30.208 101.87 31.672 102.59 33.352C103.31 35.008 103.67 36.784 103.67 38.68C103.67 40.6 103.31 42.4 102.59 44.08C101.87 45.76 100.886 47.224 99.6375 48.472C98.4135 49.696 96.9615 50.668 95.2815 51.388C93.6015 52.108 91.7895 52.468 89.8455 52.468C87.9015 52.468 86.0775 52.108 84.3735 51.388C82.6695 50.668 81.1815 49.696 79.9095 48.472C78.6615 47.224 77.6655 45.76 76.9215 44.08C76.2015 42.4 75.8415 40.612 75.8415 38.716ZM80.0535 38.68C80.0535 40.048 80.3055 41.332 80.8095 42.532C81.3375 43.708 82.0335 44.74 82.8975 45.628C83.7855 46.516 84.8175 47.212 85.9935 47.716C87.1935 48.22 88.4775 48.472 89.8455 48.472C91.1895 48.472 92.4495 48.22 93.6255 47.716C94.8015 47.212 95.8215 46.528 96.6855 45.664C97.5495 44.8 98.2215 43.78 98.7015 42.604C99.2055 41.404 99.4575 40.12 99.4575 38.752C99.4575 37.36 99.2055 36.064 98.7015 34.864C98.1975 33.664 97.5015 32.632 96.6135 31.768C95.7495 30.88 94.7175 30.184 93.5175 29.68C92.3175 29.176 91.0215 28.924 89.6295 28.924C88.3095 28.924 87.0615 29.188 85.8855 29.716C84.7335 30.22 83.7255 30.916 82.8615 31.804C81.9975 32.668 81.3135 33.7 80.8095 34.9C80.3055 36.076 80.0535 37.336 80.0535 38.68ZM107.687 25.396H113.555L121.583 46.384L129.503 25.396H135.407V52H131.231V30.796L123.275 52H119.819L111.863 30.796V52H107.687V25.396ZM139.439 38.716C139.439 36.772 139.799 34.972 140.519 33.316C141.263 31.636 142.259 30.172 143.507 28.924C144.779 27.676 146.279 26.704 148.007 26.008C149.735 25.288 151.583 24.928 153.551 24.928C155.447 24.928 157.223 25.288 158.879 26.008C160.559 26.728 162.011 27.712 163.235 28.96C164.483 30.208 165.467 31.672 166.187 33.352C166.907 35.008 167.267 36.784 167.267 38.68C167.267 40.6 166.907 42.4 166.187 44.08C165.467 45.76 164.483 47.224 163.235 48.472C162.011 49.696 160.559 50.668 158.879 51.388C157.199 52.108 155.387 52.468 153.443 52.468C151.499 52.468 149.675 52.108 147.971 51.388C146.267 50.668 144.779 49.696 143.507 48.472C142.259 47.224 141.263 45.76 140.519 44.08C139.799 42.4 139.439 40.612 139.439 38.716ZM143.651 38.68C143.651 40.048 143.903 41.332 144.407 42.532C144.935 43.708 145.631 44.74 146.495 45.628C147.383 46.516 148.415 47.212 149.591 47.716C150.791 48.22 152.075 48.472 153.443 48.472C154.787 48.472 156.047 48.22 157.223 47.716C158.399 47.212 159.419 46.528 160.283 45.664C161.147 44.8 161.819 43.78 162.299 42.604C162.803 41.404 163.055 40.12 163.055 38.752C163.055 37.36 162.803 36.064 162.299 34.864C161.795 33.664 161.099 32.632 160.211 31.768C159.347 30.88 158.315 30.184 157.115 29.68C155.915 29.176 154.619 28.924 153.227 28.924C151.907 28.924 150.659 29.188 149.483 29.716C148.331 30.22 147.323 30.916 146.459 31.804C145.595 32.668 144.911 33.7 144.407 34.9C143.903 36.076 143.651 37.336 143.651 38.68ZM171.284 25.396H184.928V29.356H175.46V52H171.284V25.396ZM193.64 44.98L185.396 25.396H189.896L195.728 39.832L201.632 25.396H206.096L194.864 52H190.796L193.64 44.98Z" fill="#252525"/>
<path opacity="0.4" fill-rule="evenodd" clip-rule="evenodd" d="M188.686 12.8608C200.907 14.6585 210.373 18.4103 219.807 22.4726C250.743 35.8076 259.881 51.6062 236.489 63.0563C200.119 80.801 119.336 85.2423 58.596 70.8547C45.1433 67.6755 26.8567 64.064 14.1153 55.2037C2.26272 46.9647 3.62952 39.1156 10.168 32.5128C16.8308 25.7376 28.8735 20.246 38.35 16.9345C79.7779 2.49625 160.483 -5.207 230.783 13.0581C232.229 13.4216 233.728 13.2983 234.206 12.7922C234.685 12.2861 234.015 11.5946 232.672 11.2442C160.309 -7.5553 77.0503 0.210185 34.4109 15.0686C22.6192 19.2011 6.97834 26.6083 1.77096 35.6538C-1.75266 41.8407 -0.476725 48.779 9.79052 55.9673C23.3195 65.3999 42.7364 69.3579 57.0164 72.7378C119.723 87.595 203.271 83.0744 240.764 64.7387C265.945 52.4367 256.297 35.4629 223.027 21.1274C212.887 16.7317 202.492 12.7277 189.226 10.777C187.764 10.5623 186.46 10.8554 186.398 11.4415C186.231 12.0142 187.329 12.6593 188.686 12.8608Z" fill="#FF71A3"/>
</svg>
