<svg width="92" height="62" viewBox="0 0 92 62" fill="none" xmlns="http://www.w3.org/2000/svg">
<path d="M46.8938 6.76C53.7738 11.72 56.9738 19.96 55.7738 29.32C55.0538 35.08 52.6538 41.08 49.0538 46.12C45.2138 51.4 40.3337 55.32 35.0538 57.4C31.5338 58.76 21.1338 61.96 9.85375 52.52C4.01375 47.56 0.97375 41 1.21375 33.4C1.37375 26.84 3.93375 20.04 8.41375 14.28C12.9738 8.36 19.0538 4.2 25.4538 2.52C32.9738 0.599998 40.3337 2.04 46.8938 6.76ZM48.9738 28.44C49.4538 24.44 49.3738 17.08 42.8138 12.36C39.6938 10.04 35.7738 8.68 31.6138 8.68C25.6938 8.68 19.3738 11.48 13.8538 18.52C7.45375 26.76 4.81375 39.24 14.2538 47.24C20.0938 52.04 26.4138 53.4 32.4938 51C40.8138 47.72 47.6938 38.28 48.9738 28.44ZM83.7456 3.4H91.8256V59H84.8656V22.36C84.3056 23.08 77.0256 32.92 61.1056 32.92V26.04C76.7056 26.04 83.7456 14.84 83.7456 6.84V3.4Z" fill="#FF71A3"/>
</svg>
