<svg width="116" height="65" viewBox="0 0 116 65" fill="none" xmlns="http://www.w3.org/2000/svg">
<path d="M45.9406 9.76C52.8206 14.72 56.0206 22.96 54.8206 32.32C54.1006 38.08 51.7006 44.08 48.1006 49.12C44.2606 54.4 39.3806 58.32 34.1006 60.4C30.5806 61.76 20.1806 64.96 8.90062 55.52C3.06063 50.56 0.0206252 44 0.260625 36.4C0.420625 29.84 2.98063 23.04 7.46063 17.28C12.0206 11.36 18.1006 7.2 24.5006 5.52C32.0206 3.6 39.3806 5.04 45.9406 9.76ZM48.0206 31.44C48.5006 27.44 48.4206 20.08 41.8606 15.36C38.7406 13.04 34.8206 11.68 30.6606 11.68C24.7406 11.68 18.4206 14.48 12.9006 21.52C6.50063 29.76 3.86063 42.24 13.3006 50.24C19.1406 55.04 25.4606 56.4 31.5406 54C39.8606 50.72 46.7406 41.28 48.0206 31.44ZM80.7113 55.12H110.391V62H57.6712V55.04C57.6712 55.04 68.7913 54.72 87.6713 43.84C101.111 36.08 107.431 24.32 100.311 16.48C94.3913 9.92 72.7113 12.08 66.9513 34.24L60.3112 32.56C67.2713 5.44 95.5113 0.959999 105.431 11.92C115.271 22.72 109.591 39.12 91.1113 49.84C87.4313 51.92 83.9113 53.68 80.7113 55.12Z" fill="#FF71A3"/>
</svg>
