<svg width="114" height="64" viewBox="0 0 114 64" fill="none" xmlns="http://www.w3.org/2000/svg">
<path d="M46.1281 6.76C53.0081 11.72 56.2081 19.96 55.0081 29.32C54.2881 35.08 51.8881 41.08 48.2881 46.12C44.4481 51.4 39.5681 55.32 34.2881 57.4C30.7681 58.76 20.3681 61.96 9.08812 52.52C3.24813 47.56 0.208125 41 0.448125 33.4C0.608125 26.84 3.16813 20.04 7.64813 14.28C12.2081 8.36 18.2881 4.2 24.6881 2.52C32.2081 0.599998 39.5681 2.04 46.1281 6.76ZM48.2081 28.44C48.6881 24.44 48.6081 17.08 42.0481 12.36C38.9281 10.04 35.0081 8.68 30.8481 8.68C24.9281 8.68 18.6081 11.48 13.0881 18.52C6.68813 26.76 4.04813 39.24 13.4881 47.24C19.3281 52.04 25.6481 53.4 31.7281 51C40.0481 47.72 46.9281 38.28 48.2081 28.44ZM110.381 35.88C113.981 48.44 103.501 63.4 81.5813 57.88C67.9813 54.44 60.4613 43.48 59.1013 34.2L65.9013 33.16C66.9413 40.2 72.7013 48.52 83.3413 51.16C101.981 55.88 105.341 43.4 103.741 37.72C102.701 33.8 99.9813 30.6 95.9013 28.28C83.5013 34.6 71.1813 33.64 71.1813 33.64V16.92C71.1813 16.92 85.1013 16.12 95.6613 20.52C99.2613 18.28 102.941 14.84 103.901 10.36H66.0613V3.4H111.021V8.04C111.021 14.12 107.981 19.72 102.301 24.28C106.381 27.32 109.101 31.16 110.381 35.88ZM78.0613 26.52C80.7013 26.28 83.4213 25.64 86.1413 24.84C83.6613 24.36 80.9413 24.04 78.0613 23.88V26.52Z" fill="#FF71A3"/>
</svg>
