<svg width="115" height="62" viewBox="0 0 115 62" fill="none" xmlns="http://www.w3.org/2000/svg">
<path d="M46.3391 6.76C53.2191 11.72 56.4191 19.96 55.2191 29.32C54.4991 35.08 52.0991 41.08 48.4991 46.12C44.6591 51.4 39.7791 55.32 34.4991 57.4C30.9791 58.76 20.5791 61.96 9.29906 52.52C3.45906 47.56 0.419063 41 0.659063 33.4C0.819063 26.84 3.37906 20.04 7.85906 14.28C12.4191 8.36 18.4991 4.2 24.8991 2.52C32.4191 0.599998 39.7791 2.04 46.3391 6.76ZM48.4191 28.44C48.8991 24.44 48.8191 17.08 42.2591 12.36C39.1391 10.04 35.2191 8.68 31.0591 8.68C25.1391 8.68 18.8191 11.48 13.2991 18.52C6.89906 26.76 4.25906 39.24 13.6991 47.24C19.5391 52.04 25.8591 53.4 31.9391 51C40.2591 47.72 47.1391 38.28 48.4191 28.44ZM97.9241 3.48H114.404V10.12C114.404 21.08 111.364 28.36 104.804 33.16V59H97.9241V36.76C85.6041 41.32 61.7641 40.36 61.7641 40.36V3.4H68.6441V33.48C68.6441 33.48 88.0841 34.12 97.9241 29.24V3.48ZM104.804 23.08C106.644 19.88 107.444 15.8 107.444 10.36H104.804V23.08Z" fill="#FF71A3"/>
</svg>
