<svg width="16" height="16" viewBox="0 0 16 16" fill="none" xmlns="http://www.w3.org/2000/svg">
<g opacity="0.85">
<path d="M7.88516 11.1779L13.1952 5.60491C13.2838 5.51192 13.3333 5.38838 13.3333 5.25991C13.3333 5.13144 13.2838 5.0079 13.1952 4.91491L13.1892 4.90891C13.1462 4.86367 13.0945 4.82765 13.0371 4.80304C12.9798 4.77843 12.918 4.76573 12.8557 4.76573C12.7933 4.76573 12.7315 4.77843 12.6742 4.80304C12.6169 4.82765 12.5651 4.86367 12.5222 4.90891L7.52216 10.1569L2.52416 4.90891C2.48118 4.86367 2.42946 4.82765 2.37212 4.80304C2.31479 4.77843 2.25305 4.76573 2.19066 4.76573C2.12826 4.76573 2.06652 4.77843 2.00919 4.80304C1.95186 4.82765 1.90013 4.86367 1.85716 4.90891L1.85116 4.91491C1.76251 5.0079 1.71306 5.13144 1.71306 5.25991C1.71306 5.38838 1.76251 5.51192 1.85116 5.60491L7.16116 11.1779C7.20785 11.2269 7.26402 11.2659 7.32624 11.2926C7.38847 11.3193 7.45546 11.333 7.52316 11.333C7.59085 11.333 7.65785 11.3193 7.72007 11.2926C7.7823 11.2659 7.83846 11.2269 7.88516 11.1779Z" fill="#252525" stroke="#252525"/>
</g>
</svg>
