<svg width="197" height="44" viewBox="0 0 197 44" fill="none" xmlns="http://www.w3.org/2000/svg">
<path d="M22.3263 7.23033H25.8067V32.963H22.6225V17.7826C22.1042 18.5971 21.5488 19.3747 20.8823 20.0781C20.6231 24.7063 17.9573 30.4452 11.2187 32.5927C6.36837 34.1478 1.03671 31.556 0.703482 31.4079L2.11045 28.5199C2.14747 28.557 6.59052 30.7044 10.256 29.5566C13.9956 28.3718 16.106 25.78 17.0687 23.0402C16.2171 23.4845 15.3655 23.8547 14.4769 24.1139C11.1817 25.1136 7.84938 24.6693 5.07248 22.855C0.925635 20.1152 0.703482 15.2278 2.25855 12.0066C4.10982 8.11894 8.33071 6.04552 13.2921 7.60058C18.2535 9.15565 19.8826 13.6727 20.364 15.2648C22.1042 12.0436 22.3263 7.23033 22.3263 7.23033ZM13.5883 21.0778C15.0693 20.6335 16.5133 19.7819 17.6981 18.7452C17.6241 16.931 17.1057 15.1908 16.2541 13.7838C15.2915 12.2288 13.9215 11.155 12.3295 10.6367C11.5519 10.4145 7.1459 9.15565 5.14653 13.3765C3.73956 16.3386 5.03545 18.9674 6.8497 20.1892C9.3304 21.8554 11.8851 21.5962 13.5883 21.0778ZM30.0993 8.67844H47.2461V33H43.4284V12.2987H33.917V33H30.0993V8.67844ZM50.932 20.8557C50.932 19.0785 51.2611 17.4329 51.9193 15.919C52.5995 14.3831 53.51 13.0447 54.6509 11.9038C55.8138 10.7628 57.1851 9.87422 58.7649 9.23793C60.3446 8.5797 62.0341 8.25059 63.8332 8.25059C65.5666 8.25059 67.1902 8.5797 68.7041 9.23793C70.24 9.89616 71.5674 10.7957 72.6864 11.9367C73.8274 13.0776 74.7269 14.416 75.3852 15.9519C76.0434 17.4658 76.3725 19.0894 76.3725 20.8228C76.3725 22.578 76.0434 24.2236 75.3852 25.7595C74.7269 27.2953 73.8274 28.6337 72.6864 29.7747C71.5674 30.8937 70.24 31.7823 68.7041 32.4405C67.1683 33.0987 65.5117 33.4278 63.7345 33.4278C61.9573 33.4278 60.2898 33.0987 58.732 32.4405C57.1742 31.7823 55.8138 30.8937 54.6509 29.7747C53.51 28.6337 52.5995 27.2953 51.9193 25.7595C51.2611 24.2236 50.932 22.589 50.932 20.8557ZM54.7826 20.8228C54.7826 22.0734 55.013 23.2472 55.4737 24.3443C55.9564 25.4194 56.5927 26.3629 57.3826 27.1747C58.1944 27.9865 59.1379 28.6228 60.213 29.0835C61.31 29.5443 62.4839 29.7747 63.7345 29.7747C64.9632 29.7747 66.1151 29.5443 67.1902 29.0835C68.2653 28.6228 69.1978 27.9975 69.9877 27.2076C70.7776 26.4177 71.3919 25.4852 71.8307 24.4101C72.2915 23.3131 72.5219 22.1392 72.5219 20.8886C72.5219 19.616 72.2915 18.4312 71.8307 17.3341C71.37 16.2371 70.7337 15.2936 69.9219 14.5038C69.132 13.6919 68.1885 13.0557 67.0915 12.5949C65.9944 12.1341 64.8096 11.9038 63.537 11.9038C62.3303 11.9038 61.1894 12.1451 60.1142 12.6278C59.0611 13.0886 58.1396 13.7249 57.3497 14.5367C56.5598 15.3265 55.9345 16.27 55.4737 17.3671C55.013 18.4422 54.7826 19.5941 54.7826 20.8228ZM80.045 8.67844H85.4095L92.7488 27.8658L99.9893 8.67844H105.387V33H101.569V13.6152L94.2956 33H91.1361L83.8627 13.6152V33H80.045V8.67844ZM109.073 20.8557C109.073 19.0785 109.402 17.4329 110.061 15.919C110.741 14.3831 111.651 13.0447 112.792 11.9038C113.955 10.7628 115.327 9.87422 116.906 9.23793C118.486 8.5797 120.176 8.25059 121.975 8.25059C123.708 8.25059 125.332 8.5797 126.846 9.23793C128.381 9.89616 129.709 10.7957 130.828 11.9367C131.969 13.0776 132.868 14.416 133.527 15.9519C134.185 17.4658 134.514 19.0894 134.514 20.8228C134.514 22.578 134.185 24.2236 133.527 25.7595C132.868 27.2953 131.969 28.6337 130.828 29.7747C129.709 30.8937 128.381 31.7823 126.846 32.4405C125.31 33.0987 123.653 33.4278 121.876 33.4278C120.099 33.4278 118.431 33.0987 116.873 32.4405C115.316 31.7823 113.955 30.8937 112.792 29.7747C111.651 28.6337 110.741 27.2953 110.061 25.7595C109.402 24.2236 109.073 22.589 109.073 20.8557ZM112.924 20.8228C112.924 22.0734 113.154 23.2472 113.615 24.3443C114.098 25.4194 114.734 26.3629 115.524 27.1747C116.336 27.9865 117.279 28.6228 118.354 29.0835C119.451 29.5443 120.625 29.7747 121.876 29.7747C123.105 29.7747 124.257 29.5443 125.332 29.0835C126.407 28.6228 127.339 27.9975 128.129 27.2076C128.919 26.4177 129.533 25.4852 129.972 24.4101C130.433 23.3131 130.663 22.1392 130.663 20.8886C130.663 19.616 130.433 18.4312 129.972 17.3341C129.511 16.2371 128.875 15.2936 128.063 14.5038C127.273 13.6919 126.33 13.0557 125.233 12.5949C124.136 12.1341 122.951 11.9038 121.678 11.9038C120.472 11.9038 119.331 12.1451 118.256 12.6278C117.203 13.0886 116.281 13.7249 115.491 14.5367C114.701 15.3265 114.076 16.27 113.615 17.3671C113.154 18.4422 112.924 19.5941 112.924 20.8228ZM138.186 8.67844H150.66V12.2987H142.004V33H138.186V8.67844ZM158.624 26.5823L151.087 8.67844H155.201L160.533 21.8759L165.93 8.67844H170.011L159.743 33H156.024L158.624 26.5823Z" fill="#252525"/>
<path d="M185.018 14.7755C186.406 11.6931 189.571 6.43175 192.423 8.44843C200.084 13.8671 188.566 26.4562 185.018 34C180.313 24.8339 171.162 10.5657 179.159 8.44843C184.018 7.16183 186.869 17.6957 186.406 20.1291C185.944 22.5626 182.704 22.2494 182.704 20.1291C182.704 17.7608 184.401 15.5866 185.018 14.7755Z" stroke="#252525" stroke-width="3"/>
</svg>
