<svg width="356" height="11" viewBox="0 0 356 11" fill="none" xmlns="http://www.w3.org/2000/svg">
<path d="M1.5 9L3.30869 7.93576C15.8288 0.568913 31.3587 0.568913 43.8788 7.93576L45.6875 9L47.4962 7.93576C60.0163 0.568913 75.5462 0.568913 88.0663 7.93576L89.875 9L91.6837 7.93576C104.204 0.568913 119.734 0.568913 132.254 7.93576L134.062 9L135.871 7.93576C148.391 0.568913 163.921 0.568913 176.441 7.93576L178.25 9L180.059 7.93576C192.579 0.568913 208.109 0.568913 220.629 7.93576L222.438 9L224.246 7.93576C236.766 0.568913 252.296 0.568913 264.816 7.93576L266.625 9L268.434 7.93576C280.954 0.568913 296.484 0.568913 309.004 7.93576L310.812 9L312.621 7.93576C325.141 0.568913 340.671 0.568913 353.191 7.93576L355 9" stroke="black" stroke-width="3"/>
</svg>
