<svg width="22" height="22" viewBox="0 0 22 22" fill="none" xmlns="http://www.w3.org/2000/svg">
<g opacity="0.5">
<path d="M11 2.75027C9.29819 2.75027 7.66609 3.42631 6.46273 4.62966C5.25937 5.83302 4.58333 7.46513 4.58333 9.16693C4.58333 11.7904 6.21683 14.3213 8.00983 16.2821C8.92663 17.2809 9.92698 18.1997 11 19.0284C11.1601 18.9056 11.348 18.7559 11.5638 18.5793C12.4252 17.8718 13.236 17.1048 13.9902 16.2839C15.7832 14.3213 17.4167 11.7913 17.4167 9.16693C17.4167 7.46513 16.7406 5.83302 15.5373 4.62966C14.3339 3.42631 12.7018 2.75027 11 2.75027ZM11 21.2798L10.4802 20.9223L10.4775 20.9204L10.472 20.9158L10.4537 20.903L10.3849 20.8544L10.1374 20.6738C8.88329 19.7313 7.71822 18.6758 6.65683 17.5205C4.78317 15.469 2.75 12.4999 2.75 9.16601C2.75 6.97798 3.61919 4.87956 5.16637 3.33238C6.71354 1.78521 8.81196 0.916016 11 0.916016C13.188 0.916016 15.2865 1.78521 16.8336 3.33238C18.3808 4.87956 19.25 6.97798 19.25 9.16601C19.25 12.4999 17.2168 15.4699 15.3432 17.5187C14.2821 18.6739 13.1173 19.7294 11.8635 20.672C11.7591 20.75 11.6536 20.8267 11.5473 20.9021L11.528 20.9149L11.5225 20.9195L11.5207 20.9204L11 21.2798ZM11 7.3336C10.5138 7.3336 10.0475 7.52675 9.70364 7.87057C9.35982 8.21439 9.16667 8.6807 9.16667 9.16693C9.16667 9.65316 9.35982 10.1195 9.70364 10.4633C10.0475 10.8071 10.5138 11.0003 11 11.0003C11.4862 11.0003 11.9525 10.8071 12.2964 10.4633C12.6402 10.1195 12.8333 9.65316 12.8333 9.16693C12.8333 8.6807 12.6402 8.21439 12.2964 7.87057C11.9525 7.52675 11.4862 7.3336 11 7.3336ZM7.33333 9.16693C7.33333 8.19447 7.71964 7.26184 8.40728 6.57421C9.09491 5.88657 10.0275 5.50027 11 5.50027C11.9725 5.50027 12.9051 5.88657 13.5927 6.57421C14.2804 7.26184 14.6667 8.19447 14.6667 9.16693C14.6667 10.1394 14.2804 11.072 13.5927 11.7597C12.9051 12.4473 11.9725 12.8336 11 12.8336C10.0275 12.8336 9.09491 12.4473 8.40728 11.7597C7.71964 11.072 7.33333 10.1394 7.33333 9.16693Z" fill="#252525"/>
</g>
</svg>
