<svg width="18" height="19" viewBox="0 0 18 19" fill="none" xmlns="http://www.w3.org/2000/svg">
<g opacity="0.7">
<path d="M3 15.5C2.5875 15.5 2.2345 15.3533 1.941 15.0597C1.6475 14.7662 1.5005 14.413 1.5 14V5C1.5 4.5875 1.647 4.2345 1.941 3.941C2.235 3.6475 2.588 3.5005 3 3.5H15C15.4125 3.5 15.7657 3.647 16.0597 3.941C16.3538 4.235 16.5005 4.588 16.5 5V14C16.5 14.4125 16.3533 14.7657 16.0597 15.0597C15.7662 15.3538 15.413 15.5005 15 15.5H3ZM9 10.25L3 6.5V14H15V6.5L9 10.25ZM9 8.75L15 5H3L9 8.75ZM3 6.5V5V14V6.5Z" fill="#252525"/>
</g>
</svg>
