<svg width="22" height="22" viewBox="0 0 22 22" fill="none" xmlns="http://www.w3.org/2000/svg">
<g opacity="0.5">
<path d="M10.9412 1C9.95873 1 8.99835 1.29324 8.18148 1.84265C7.36461 2.39206 6.72794 3.17295 6.35197 4.08658C5.97601 5.00021 5.87764 6.00555 6.0693 6.97545C6.26097 7.94536 6.73406 8.83627 7.42875 9.53553C8.12344 10.2348 9.00853 10.711 9.9721 10.9039C10.9357 11.0969 11.9344 10.9978 12.8421 10.6194C13.7497 10.241 14.5255 9.6001 15.0714 8.77785C15.6172 7.95561 15.9085 6.98891 15.9085 6C15.9085 4.67392 15.3852 3.40215 14.4536 2.46447C13.522 1.52678 12.2586 1 10.9412 1ZM10.9412 9C10.3517 9 9.77548 8.82405 9.28536 8.49441C8.79524 8.16476 8.41323 7.69623 8.18765 7.14805C7.96207 6.59987 7.90305 5.99667 8.01805 5.41473C8.13305 4.83279 8.41691 4.29824 8.83372 3.87868C9.25054 3.45912 9.78159 3.1734 10.3597 3.05764C10.9379 2.94189 11.5371 3.0013 12.0817 3.22836C12.6263 3.45542 13.0918 3.83994 13.4193 4.33329C13.7468 4.82664 13.9216 5.40666 13.9216 6C13.9216 6.79565 13.6076 7.55871 13.0486 8.12132C12.4897 8.68393 11.7316 9 10.9412 9ZM19.8824 20V19C19.8824 17.1435 19.1497 15.363 17.8455 14.0503C16.5413 12.7375 14.7725 12 12.9281 12H8.95425C7.10987 12 5.34103 12.7375 4.03685 14.0503C2.73268 15.363 2 17.1435 2 19V20H3.98693V19C3.98693 17.6739 4.51027 16.4021 5.44182 15.4645C6.37338 14.5268 7.63683 14 8.95425 14H12.9281C14.2455 14 15.509 14.5268 16.4405 15.4645C17.3721 16.4021 17.8954 17.6739 17.8954 19V20H19.8824Z" fill="#252525"/>
</g>
</svg>
