<svg width="487" height="27" viewBox="0 0 487 27" fill="none" xmlns="http://www.w3.org/2000/svg">
<path d="M2 23.1293C34.0808 19.1364 65.1946 14.2896 97.5023 10.4767C121.008 7.70254 140.489 5.69705 164.342 3.85116C165.101 3.79243 194.017 1.16846 197.944 2.26959C199.348 2.66309 151.84 15.8146 149.095 16.5465C109.219 27.179 156.803 14.4561 125.677 22.6591C122.427 23.5156 113.802 25.2598 123.665 24.9673C152.483 24.1127 181.371 21.4178 209.775 19.6455C235.298 18.0531 249.574 17.2247 274.968 15.884C279.136 15.6639 309.047 13.1051 316.804 14.3238C320.135 14.8471 314.425 18.4046 314.425 19.1112C314.425 20.4933 322.347 19.2917 326.256 19.1112C379.332 16.6608 432.126 13.3406 485 10.4339" stroke="#FFB1CD" stroke-width="4" stroke-linecap="round"/>
</svg>
