<svg width="14" height="15" viewBox="0 0 14 15" fill="none" xmlns="http://www.w3.org/2000/svg">
<path d="M12.8173 11.9841C12.0675 10.6681 10.8967 9.64276 9.49339 9.07305C10.1913 8.54965 10.7067 7.81995 10.9668 6.98731C11.2269 6.15466 11.2185 5.26128 10.9426 4.43373C10.6668 3.60617 10.1375 2.88638 9.42985 2.37632C8.72218 1.86626 7.87197 1.5918 6.99964 1.5918C6.12732 1.5918 5.27711 1.86626 4.56944 2.37632C3.86177 2.88638 3.33253 3.60617 3.05668 4.43373C2.78082 5.26128 2.77235 6.15466 3.03245 6.98731C3.29254 7.81995 3.80803 8.54965 4.50589 9.07305C3.10257 9.64276 1.93178 10.6681 1.18199 11.9841C1.13553 12.0588 1.10456 12.1421 1.09093 12.229C1.0773 12.3159 1.08129 12.4046 1.10265 12.49C1.12401 12.5753 1.16231 12.6555 1.21527 12.7257C1.26824 12.796 1.33479 12.8549 1.41096 12.8989C1.48713 12.9429 1.57138 12.9711 1.65869 12.9819C1.74599 12.9927 1.83458 12.9859 1.91918 12.9617C2.00379 12.9376 2.08268 12.8967 2.15116 12.8415C2.21965 12.7863 2.27633 12.7179 2.31785 12.6403C3.30878 10.9275 5.05878 9.90594 6.99964 9.90594C8.9405 9.90594 10.6905 10.928 11.6814 12.6403C11.7714 12.785 11.9141 12.889 12.0794 12.9304C12.2446 12.9717 12.4195 12.9472 12.567 12.862C12.7145 12.7767 12.8231 12.6375 12.8698 12.4737C12.9165 12.3098 12.8977 12.1343 12.8173 11.9841ZM4.15589 5.74969C4.15589 5.18725 4.32268 4.63744 4.63515 4.16979C4.94763 3.70213 5.39176 3.33764 5.91139 3.12241C6.43101 2.90717 7.0028 2.85085 7.55443 2.96058C8.10606 3.07031 8.61277 3.34115 9.01048 3.73885C9.40818 4.13656 9.67902 4.64327 9.78875 5.1949C9.89848 5.74653 9.84216 6.31832 9.62693 6.83794C9.41169 7.35757 9.0472 7.8017 8.57955 8.11418C8.11189 8.42665 7.56208 8.59344 6.99964 8.59344C6.2457 8.59257 5.52289 8.29268 4.98977 7.75956C4.45665 7.22645 4.15676 6.50363 4.15589 5.74969Z" fill="#30302F" fill-opacity="0.6"/>
</svg>
