<svg width="14" height="15" viewBox="0 0 14 15" fill="none" xmlns="http://www.w3.org/2000/svg">
<path d="M11.375 1.59375H3.9375C3.41536 1.59375 2.9146 1.80117 2.54538 2.17038C2.17617 2.5396 1.96875 3.04036 1.96875 3.5625V12.75C1.96875 12.924 2.03789 13.091 2.16096 13.214C2.28403 13.3371 2.45095 13.4063 2.625 13.4063H10.5C10.674 13.4063 10.841 13.3371 10.964 13.214C11.0871 13.091 11.1563 12.924 11.1563 12.75C11.1563 12.576 11.0871 12.409 10.964 12.286C10.841 12.1629 10.674 12.0938 10.5 12.0938H3.28125V11.875C3.28125 11.701 3.35039 11.534 3.47346 11.411C3.59653 11.2879 3.76345 11.2188 3.9375 11.2188H11.375C11.549 11.2188 11.716 11.1496 11.839 11.0265C11.9621 10.9035 12.0313 10.7365 12.0313 10.5625V2.25C12.0313 2.07595 11.9621 1.90903 11.839 1.78596C11.716 1.66289 11.549 1.59375 11.375 1.59375ZM10.7188 9.90625H3.9375C3.7139 9.90583 3.49191 9.94394 3.28125 10.0189V3.5625C3.28125 3.38845 3.35039 3.22153 3.47346 3.09846C3.59653 2.97539 3.76345 2.90625 3.9375 2.90625H10.7188V9.90625Z" fill="#30302F" fill-opacity="0.6"/>
</svg>
