<svg width="14" height="15" viewBox="0 0 14 15" fill="none" xmlns="http://www.w3.org/2000/svg">
<path d="M10.9375 2.03113H9.04914C8.7843 1.75457 8.46621 1.53448 8.11405 1.38412C7.76188 1.23376 7.38292 1.15625 7 1.15625C6.61708 1.15625 6.23812 1.23376 5.88595 1.38412C5.53379 1.53448 5.2157 1.75457 4.95086 2.03113H3.0625C2.77242 2.03113 2.49422 2.14636 2.2891 2.35148C2.08398 2.5566 1.96875 2.8348 1.96875 3.12488V12.3124C1.96875 12.6025 2.08398 12.8807 2.2891 13.0858C2.49422 13.2909 2.77242 13.4061 3.0625 13.4061H10.9375C11.2276 13.4061 11.5058 13.2909 11.7109 13.0858C11.916 12.8807 12.0313 12.6025 12.0313 12.3124V3.12488C12.0313 2.8348 11.916 2.5566 11.7109 2.35148C11.5058 2.14636 11.2276 2.03113 10.9375 2.03113ZM8.51539 3.78113H5.48461C5.53744 3.41691 5.71968 3.08391 5.99797 2.84307C6.27626 2.60224 6.63197 2.46969 7 2.46969C7.36803 2.46969 7.72375 2.60224 8.00203 2.84307C8.28032 3.08391 8.46256 3.41691 8.51539 3.78113ZM10.7188 12.0936H3.28125V3.34363H4.23336C4.18231 3.55865 4.15643 3.77888 4.15625 3.99988V4.43738C4.15625 4.61143 4.22539 4.77835 4.34846 4.90142C4.47153 5.02449 4.63845 5.09363 4.8125 5.09363H9.1875C9.36155 5.09363 9.52847 5.02449 9.65154 4.90142C9.77461 4.77835 9.84375 4.61143 9.84375 4.43738V3.99988C9.84357 3.77888 9.81769 3.55865 9.76664 3.34363H10.7188V12.0936Z" fill="#30302F" fill-opacity="0.6"/>
</svg>
