<svg width="14" height="15" viewBox="0 0 14 15" fill="none" xmlns="http://www.w3.org/2000/svg">
<path d="M12.25 2.90625H1.75C1.57595 2.90625 1.40903 2.97539 1.28596 3.09846C1.16289 3.22153 1.09375 3.38845 1.09375 3.5625V11C1.09375 11.2901 1.20898 11.5683 1.4141 11.7734C1.61922 11.9785 1.89742 12.0938 2.1875 12.0938H11.8125C12.1026 12.0938 12.3808 11.9785 12.5859 11.7734C12.791 11.5683 12.9063 11.2901 12.9063 11V3.5625C12.9063 3.38845 12.8371 3.22153 12.714 3.09846C12.591 2.97539 12.424 2.90625 12.25 2.90625ZM10.5629 4.21875L7 7.48469L3.43711 4.21875H10.5629ZM2.40625 10.7813V5.05438L6.55648 8.85899C6.67753 8.96997 6.83578 9.03154 7 9.03154C7.16422 9.03154 7.32248 8.96997 7.44352 8.85899L11.5938 5.05438V10.7813H2.40625Z" fill="#30302F" fill-opacity="0.6"/>
</svg>
