<svg width="14" height="15" viewBox="0 0 14 15" fill="none" xmlns="http://www.w3.org/2000/svg">
<path d="M13.4606 6.72703L12.5856 5.85203C12.4234 5.68999 12.2144 5.58301 11.9881 5.54621C11.7618 5.50941 11.5296 5.54465 11.3245 5.64695L8.85258 3.17508C8.95495 2.96996 8.99028 2.73786 8.95358 2.51157C8.91688 2.28528 8.81 2.07624 8.64805 1.91399L7.77305 1.03899C7.56794 0.833939 7.28979 0.71875 6.99977 0.71875C6.70975 0.71875 6.4316 0.833939 6.22649 1.03899L2.72649 4.53899C2.52144 4.74409 2.40625 5.02224 2.40625 5.31227C2.40625 5.60229 2.52144 5.88044 2.72649 6.08555L3.60149 6.96055C3.76317 7.12224 3.97146 7.22919 4.19708 7.26637C4.42269 7.30355 4.65429 7.26908 4.8593 7.16781L1.6054 10.4195C1.27717 10.7478 1.09277 11.1929 1.09277 11.6571C1.09277 12.1213 1.27717 12.5665 1.6054 12.8947C1.93362 13.2229 2.37879 13.4073 2.84297 13.4073C3.30716 13.4073 3.75233 13.2229 4.08055 12.8947L7.3279 9.64461C7.22752 9.84935 7.19365 10.0803 7.23101 10.3053C7.26837 10.5302 7.37509 10.7378 7.53625 10.8991L8.41125 11.7741C8.51283 11.8758 8.63342 11.9564 8.76615 12.0114C8.89888 12.0663 9.04114 12.0947 9.18481 12.0947C9.32848 12.0947 9.47074 12.0663 9.60347 12.0114C9.7362 11.9564 9.8568 11.8758 9.95837 11.7741L13.4584 8.27414C13.56 8.17257 13.6406 8.05198 13.6956 7.91925C13.7506 7.78652 13.7789 7.64426 13.7789 7.50059C13.7789 7.35692 13.7506 7.21465 13.6956 7.08192C13.6406 6.9492 13.56 6.8286 13.4584 6.72703H13.4606ZM4.37477 5.87828L3.80821 5.31281L6.99977 2.1218L7.56524 2.68781L4.37477 5.87828ZM3.15196 11.9666C3.06986 12.0487 2.95855 12.0947 2.84251 12.0947C2.72646 12.0946 2.61519 12.0485 2.53317 11.9664C2.45115 11.8843 2.4051 11.773 2.40515 11.6569C2.4052 11.5409 2.45135 11.4296 2.53344 11.3476L5.78844 8.09258L6.40696 8.71164L3.15196 11.9666ZM8.22149 8.66953L5.83055 6.27859L7.96336 4.14578L10.3543 6.53672L8.22149 8.66953ZM9.18672 10.693L8.62125 10.1253L11.8123 6.93485L12.3777 7.50031L9.18672 10.693Z" fill="#30302F" fill-opacity="0.6"/>
</svg>
