<svg width="14" height="15" viewBox="0 0 14 15" fill="none" xmlns="http://www.w3.org/2000/svg">
<path d="M5.46875 5.96875C5.46875 5.7947 5.53789 5.62778 5.66096 5.50471C5.78403 5.38164 5.95095 5.3125 6.125 5.3125H7.875C8.04905 5.3125 8.21597 5.38164 8.33904 5.50471C8.46211 5.62778 8.53125 5.7947 8.53125 5.96875C8.53125 6.1428 8.46211 6.30972 8.33904 6.43279C8.21597 6.55586 8.04905 6.625 7.875 6.625H6.125C5.95095 6.625 5.78403 6.55586 5.66096 6.43279C5.53789 6.30972 5.46875 6.1428 5.46875 5.96875ZM12.9063 4.21875V11.2188C12.9063 11.5088 12.791 11.787 12.5859 11.9921C12.3808 12.1973 12.1026 12.3125 11.8125 12.3125H2.1875C1.89742 12.3125 1.61922 12.1973 1.4141 11.9921C1.20898 11.787 1.09375 11.5088 1.09375 11.2188V4.21875C1.09375 3.92867 1.20898 3.65047 1.4141 3.44535C1.61922 3.24023 1.89742 3.125 2.1875 3.125H4.15625V2.6875C4.15625 2.28139 4.31758 1.89191 4.60474 1.60474C4.89191 1.31758 5.28139 1.15625 5.6875 1.15625H8.3125C8.71861 1.15625 9.10809 1.31758 9.39526 1.60474C9.68242 1.89191 9.84375 2.28139 9.84375 2.6875V3.125H11.8125C12.1026 3.125 12.3808 3.24023 12.5859 3.44535C12.791 3.65047 12.9063 3.92867 12.9063 4.21875ZM5.46875 3.125H8.53125V2.6875C8.53125 2.62948 8.5082 2.57384 8.46718 2.53282C8.42616 2.4918 8.37052 2.46875 8.3125 2.46875H5.6875C5.62948 2.46875 5.57384 2.4918 5.53282 2.53282C5.4918 2.57384 5.46875 2.62948 5.46875 2.6875V3.125ZM2.40625 4.4375V6.36414C3.82241 7.11053 5.39919 7.50041 7 7.5C8.60088 7.50037 10.1777 7.1103 11.5938 6.36359V4.4375H2.40625ZM11.5938 11V7.82484C10.1498 8.47602 8.58395 8.81268 7 8.8125C5.41604 8.81278 3.85013 8.47611 2.40625 7.82484V11H11.5938Z" fill="#30302F" fill-opacity="0.6"/>
</svg>
