<svg width="14" height="15" viewBox="0 0 14 15" fill="none" xmlns="http://www.w3.org/2000/svg">
<path d="M11.1962 3.33517C10.3712 2.50495 9.31833 1.93835 8.17098 1.70722C7.02363 1.47608 5.83349 1.59081 4.75143 2.03686C3.66936 2.48292 2.74409 3.24021 2.09292 4.21273C1.44175 5.18526 1.094 6.32923 1.09375 7.49963V10.5621C1.09375 10.9682 1.25508 11.3577 1.54224 11.6449C1.82941 11.9321 2.21889 12.0934 2.625 12.0934H3.5C3.90611 12.0934 4.29559 11.9321 4.58276 11.6449C4.86992 11.3577 5.03125 10.9682 5.03125 10.5621V8.37463C5.03125 7.96852 4.86992 7.57904 4.58276 7.29187C4.29559 7.00471 3.90611 6.84338 3.5 6.84338H2.45219C2.61056 5.75011 3.15737 4.75044 3.99253 4.02736C4.82768 3.30428 5.89532 2.90616 7 2.90588H7.035C8.13476 2.91059 9.19607 3.3111 10.0248 4.03413C10.8534 4.75717 11.3941 5.7544 11.5478 6.84338H10.5C10.0939 6.84338 9.70441 7.00471 9.41724 7.29187C9.13008 7.57904 8.96875 7.96852 8.96875 8.37463V10.5621C8.96875 10.9682 9.13008 11.3577 9.41724 11.6449C9.70441 11.9321 10.0939 12.0934 10.5 12.0934H11.375C11.5761 12.0934 11.7752 12.0538 11.961 11.9768C12.1468 11.8999 12.3156 11.7871 12.4578 11.6449C12.5999 11.5027 12.7127 11.3339 12.7897 11.1481C12.8666 10.9623 12.9063 10.7632 12.9063 10.5621V7.49963C12.9093 6.7271 12.7598 5.96158 12.4663 5.24695C12.1728 4.53232 11.7412 3.88265 11.1962 3.33517ZM3.5 8.15588C3.55802 8.15588 3.61366 8.17893 3.65468 8.21995C3.6957 8.26097 3.71875 8.31661 3.71875 8.37463V10.5621C3.71875 10.6201 3.6957 10.6758 3.65468 10.7168C3.61366 10.7578 3.55802 10.7809 3.5 10.7809H2.625C2.56698 10.7809 2.51134 10.7578 2.47032 10.7168C2.4293 10.6758 2.40625 10.6201 2.40625 10.5621V8.15588H3.5ZM11.5938 10.5621C11.5938 10.6201 11.5707 10.6758 11.5297 10.7168C11.4887 10.7578 11.433 10.7809 11.375 10.7809H10.5C10.442 10.7809 10.3863 10.7578 10.3453 10.7168C10.3043 10.6758 10.2813 10.6201 10.2813 10.5621V8.37463C10.2813 8.31661 10.3043 8.26097 10.3453 8.21995C10.3863 8.17893 10.442 8.15588 10.5 8.15588H11.5938V10.5621Z" fill="#30302F" fill-opacity="0.6"/>
</svg>
