<svg width="14" height="15" viewBox="0 0 14 15" fill="none" xmlns="http://www.w3.org/2000/svg">
<path d="M12.6875 2.90625H8.75C8.42202 2.90614 8.0975 2.97331 7.7965 3.10358C7.4955 3.23386 7.22441 3.42448 7 3.66367C6.77559 3.42448 6.5045 3.23386 6.2035 3.10358C5.9025 2.97331 5.57798 2.90614 5.25 2.90625H1.3125C1.13845 2.90625 0.971532 2.97539 0.848461 3.09846C0.72539 3.22153 0.65625 3.38845 0.65625 3.5625V11.4375C0.65625 11.6115 0.72539 11.7785 0.848461 11.9015C0.971532 12.0246 1.13845 12.0938 1.3125 12.0938H5.25C5.54008 12.0938 5.81828 12.209 6.0234 12.4141C6.22852 12.6192 6.34375 12.8974 6.34375 13.1875C6.34375 13.3615 6.41289 13.5285 6.53596 13.6515C6.65903 13.7746 6.82595 13.8438 7 13.8438C7.17405 13.8438 7.34097 13.7746 7.46404 13.6515C7.58711 13.5285 7.65625 13.3615 7.65625 13.1875C7.65625 12.8974 7.77148 12.6192 7.9766 12.4141C8.18172 12.209 8.45992 12.0938 8.75 12.0938H12.6875C12.8615 12.0938 13.0285 12.0246 13.1515 11.9015C13.2746 11.7785 13.3438 11.6115 13.3438 11.4375V3.5625C13.3438 3.38845 13.2746 3.22153 13.1515 3.09846C13.0285 2.97539 12.8615 2.90625 12.6875 2.90625ZM5.25 10.7813H1.96875V4.21875H5.25C5.54008 4.21875 5.81828 4.33398 6.0234 4.5391C6.22852 4.74422 6.34375 5.02242 6.34375 5.3125V11.0443C6.00523 10.871 5.6303 10.7808 5.25 10.7813ZM12.0313 10.7813H8.75C8.36959 10.781 7.99462 10.8716 7.65625 11.0454V5.3125C7.65625 5.02242 7.77148 4.74422 7.9766 4.5391C8.18172 4.33398 8.45992 4.21875 8.75 4.21875H12.0313V10.7813Z" fill="#30302F" fill-opacity="0.6"/>
</svg>
