<svg width="14" height="15" viewBox="0 0 14 15" fill="none" xmlns="http://www.w3.org/2000/svg">
<path d="M8.31256 4.87508C8.31256 4.70103 8.3817 4.53411 8.50477 4.41104C8.62784 4.28797 8.79476 4.21883 8.96881 4.21883H13.3438C13.5179 4.21883 13.6848 4.28797 13.8078 4.41104C13.9309 4.53411 14.0001 4.70103 14.0001 4.87508C14.0001 5.04913 13.9309 5.21605 13.8078 5.33912C13.6848 5.46219 13.5179 5.53133 13.3438 5.53133H8.96881C8.79476 5.53133 8.62784 5.46219 8.50477 5.33912C8.3817 5.21605 8.31256 5.04913 8.31256 4.87508ZM13.3438 6.84383H8.96881C8.79476 6.84383 8.62784 6.91297 8.50477 7.03604C8.3817 7.15911 8.31256 7.32603 8.31256 7.50008C8.31256 7.67413 8.3817 7.84105 8.50477 7.96412C8.62784 8.08719 8.79476 8.15633 8.96881 8.15633H13.3438C13.5179 8.15633 13.6848 8.08719 13.8078 7.96412C13.9309 7.84105 14.0001 7.67413 14.0001 7.50008C14.0001 7.32603 13.9309 7.15911 13.8078 7.03604C13.6848 6.91297 13.5179 6.84383 13.3438 6.84383ZM13.3438 9.46883H10.2813C10.1073 9.46883 9.94034 9.53797 9.81727 9.66104C9.6942 9.78411 9.62506 9.95103 9.62506 10.1251C9.62506 10.2991 9.6942 10.466 9.81727 10.5891C9.94034 10.7122 10.1073 10.7813 10.2813 10.7813H13.3438C13.5179 10.7813 13.6848 10.7122 13.8078 10.5891C13.9309 10.466 14.0001 10.2991 14.0001 10.1251C14.0001 9.95103 13.9309 9.78411 13.8078 9.66104C13.6848 9.53797 13.5179 9.46883 13.3438 9.46883ZM8.51052 10.836C8.53207 10.9195 8.53697 11.0063 8.52494 11.0917C8.51291 11.177 8.48418 11.2592 8.44041 11.3334C8.39664 11.4077 8.33867 11.4726 8.26981 11.5244C8.20096 11.5762 8.12257 11.614 8.03912 11.6355C7.95567 11.6571 7.86879 11.662 7.78345 11.65C7.6981 11.6379 7.61596 11.6092 7.54172 11.5654C7.46748 11.5217 7.40258 11.4637 7.35074 11.3948C7.2989 11.326 7.26113 11.2476 7.23959 11.1641C6.92677 9.94844 5.69521 9.03133 4.37506 9.03133C3.0549 9.03133 1.82334 9.94789 1.51052 11.1641C1.48898 11.2476 1.45121 11.326 1.39937 11.3948C1.34753 11.4637 1.28263 11.5217 1.20839 11.5654C1.13415 11.6092 1.05201 11.6379 0.966665 11.65C0.881321 11.662 0.794444 11.6571 0.710993 11.6355C0.627542 11.614 0.549152 11.5762 0.480298 11.5244C0.411445 11.4726 0.353476 11.4077 0.309702 11.3334C0.265928 11.2592 0.237205 11.177 0.225175 11.0917C0.213145 11.0063 0.218042 10.9195 0.239587 10.836C0.533806 9.69305 1.33826 8.74914 2.37842 8.21102C1.97656 7.81498 1.70158 7.30836 1.58848 6.75561C1.47538 6.20285 1.52926 5.62894 1.74327 5.10689C1.95728 4.58485 2.32174 4.13826 2.79029 3.82394C3.25884 3.50963 3.8103 3.3418 4.37451 3.3418C4.93872 3.3418 5.49018 3.50963 5.95873 3.82394C6.42728 4.13826 6.79174 4.58485 7.00575 5.10689C7.21976 5.62894 7.27364 6.20285 7.16054 6.75561C7.04743 7.30836 6.77246 7.81498 6.3706 8.21102C7.41185 8.74969 8.21631 9.69359 8.51052 10.836ZM4.37506 7.71883C4.67791 7.71883 4.97396 7.62902 5.22577 7.46077C5.47759 7.29251 5.67385 7.05336 5.78975 6.77356C5.90564 6.49376 5.93597 6.18588 5.87688 5.88885C5.8178 5.59181 5.67196 5.31897 5.45781 5.10482C5.24366 4.89067 4.97082 4.74483 4.67379 4.68575C4.37675 4.62667 4.06887 4.65699 3.78907 4.77289C3.50927 4.88878 3.27012 5.08505 3.10187 5.33686C2.93361 5.58867 2.84381 5.88473 2.84381 6.18758C2.84381 6.38866 2.88341 6.58778 2.96037 6.77356C3.03732 6.95934 3.15011 7.12815 3.2923 7.27034C3.57946 7.5575 3.96894 7.71883 4.37506 7.71883Z" fill="#30302F" fill-opacity="0.8"/>
</svg>
