<svg width="160" height="36" viewBox="0 0 160 36" fill="none" xmlns="http://www.w3.org/2000/svg">
<path d="M1.5 29.2117C7.94213 23.7665 14.493 18.5784 21.4844 13.7998C24.3129 11.8665 27.1524 9.94123 30.1008 8.18619C32.3513 6.84653 38.3501 3.42518 41.6972 3.10147C45.8297 2.70181 46.9061 7.32544 47.2098 10.1997C47.6152 14.0363 47.3873 17.5054 46.1244 21.2042C45.1929 23.9323 43.6102 27.4106 40.5261 28.5993C39.6703 28.9292 38.1164 29.2094 37.7746 28.3766C37.2816 27.1754 38.0692 25.6589 38.9076 24.6558C41.0024 22.1495 43.5812 20.0143 46.3053 18.17C50.5697 15.2831 55.1302 12.8091 59.7679 10.5337C64.6777 8.12472 76.4909 2.3178 83.4939 3.36127C85.2881 3.62861 87.045 5.0491 87.7403 6.68304C89.1428 9.97934 86.8915 18.3429 85.6457 21.0279C83.717 25.1843 79.9856 29.5803 76.0105 32.0881C75.0268 32.7087 69.6487 35.2175 67.8606 33.2757C67.0845 32.4329 67.1705 30.9472 67.5845 29.889C69.6485 24.6146 75.9021 20.5025 80.1807 17.7339C84.0884 15.2054 88.1813 12.9394 92.3674 10.877C97.0938 8.54845 109.574 3.2702 115.503 2.26639C117.567 1.91693 119.864 1.79758 121.777 2.62826C125.847 4.39448 125.14 9.6826 124.586 12.7327C123.193 20.4074 117.428 29.3883 108.829 30.7055C107.88 30.851 106.747 30.9407 105.963 30.3994C104.106 29.117 105.226 25.0057 105.849 23.9414C111.298 14.6325 123.479 9.36286 133.222 6.03353C137.308 4.63694 141.513 3.46642 145.799 2.86022C149.482 2.33929 155.095 2.03227 157.852 5.49537C158.682 6.53756 158.56 9.72685 158.328 11.0255C157.746 14.2798 158.121 11.0809 157.452 12.8441" stroke="#535353" stroke-width="3" stroke-linecap="round"/>
</svg>
