<svg width="48" height="48" viewBox="0 0 48 48" fill="none" xmlns="http://www.w3.org/2000/svg">
<circle cx="24" cy="24" r="23" transform="matrix(-1 0 0 1 48 0)" fill="#252525" stroke="#252525" stroke-width="2"/>
<path d="M31.0002 25.1644H25.1668V30.9977C25.1668 31.3071 25.0439 31.6039 24.8251 31.8227C24.6063 32.0415 24.3096 32.1644 24.0002 32.1644C23.6907 32.1644 23.394 32.0415 23.1752 31.8227C22.9564 31.6039 22.8335 31.3071 22.8335 30.9977V25.1644H17.0002C16.6907 25.1644 16.394 25.0415 16.1752 24.8227C15.9564 24.6039 15.8335 24.3071 15.8335 23.9977C15.8335 23.6883 15.9564 23.3916 16.1752 23.1728C16.394 22.954 16.6907 22.8311 17.0002 22.8311H22.8335V16.9977C22.8335 16.6883 22.9564 16.3916 23.1752 16.1728C23.394 15.954 23.6907 15.8311 24.0002 15.8311C24.3096 15.8311 24.6063 15.954 24.8251 16.1728C25.0439 16.3916 25.1668 16.6883 25.1668 16.9977V22.8311H31.0002C31.3096 22.8311 31.6063 22.954 31.8251 23.1728C32.0439 23.3916 32.1668 23.6883 32.1668 23.9977C32.1668 24.3071 32.0439 24.6039 31.8251 24.8227C31.6063 25.0415 31.3096 25.1644 31.0002 25.1644Z" fill="white"/>
</svg>
