<svg width="143" height="32" viewBox="0 0 143 32" fill="none" xmlns="http://www.w3.org/2000/svg">
<path d="M16.2373 5.25842H18.7685V23.9731H16.4527V12.9328C16.0757 13.5252 15.6718 14.0907 15.1871 14.6023C14.9986 17.9682 13.0599 22.142 8.15905 23.7038C4.63154 24.8348 0.753972 22.9498 0.511624 22.8421L1.53487 20.7418C1.5618 20.7687 4.7931 22.3305 7.45893 21.4957C10.1786 20.6341 11.7135 18.7491 12.4136 16.7565C11.7943 17.0796 11.1749 17.3489 10.5287 17.5374C8.13212 18.2644 5.70864 17.9413 3.68908 16.6218C0.673189 14.6292 0.511624 11.0748 1.64258 8.73208C2.98896 5.90468 6.0587 4.39674 9.66699 5.5277C13.2753 6.65865 14.4601 9.94382 14.8102 11.1017C16.0757 8.759 16.2373 5.25842 16.2373 5.25842ZM9.88241 15.3293C10.9595 15.0062 12.0097 14.3869 12.8714 13.6329C12.8175 12.3134 12.4405 11.0478 11.8212 10.0246C11.1211 8.89364 10.1248 8.11274 8.96688 7.73576C8.4014 7.57419 5.19702 6.65865 3.74293 9.7284C2.71968 11.8826 3.66215 13.7945 4.9816 14.6831C6.78574 15.8948 8.64374 15.7063 9.88241 15.3293ZM21.8904 6.31159H34.3608V24H31.5843V8.94451H24.6669V24H21.8904V6.31159ZM37.0414 15.1678C37.0414 13.8752 37.2808 12.6785 37.7595 11.5774C38.2542 10.4604 38.9164 9.48705 39.7461 8.65728C40.5919 7.82751 41.5892 7.18125 42.7381 6.71849C43.887 6.23978 45.1157 6.00043 46.4242 6.00043C47.6848 6.00043 48.8656 6.23978 49.9666 6.71849C51.0836 7.19721 52.049 7.85145 52.8629 8.68121C53.6926 9.51098 54.3469 10.4844 54.8256 11.6014C55.3043 12.7024 55.5436 13.8832 55.5436 15.1438C55.5436 16.4204 55.3043 17.6172 54.8256 18.7342C54.3469 19.8512 53.6926 20.8245 52.8629 21.6543C52.049 22.4681 51.0836 23.1144 49.9666 23.5931C48.8497 24.0718 47.6449 24.3112 46.3524 24.3112C45.0598 24.3112 43.8471 24.0718 42.7142 23.5931C41.5812 23.1144 40.5919 22.4681 39.7461 21.6543C38.9164 20.8245 38.2542 19.8512 37.7595 18.7342C37.2808 17.6172 37.0414 16.4284 37.0414 15.1678ZM39.8419 15.1438C39.8419 16.0534 40.0094 16.9071 40.3445 17.7049C40.6956 18.4868 41.1583 19.173 41.7328 19.7634C42.3232 20.3538 43.0094 20.8166 43.7913 21.1517C44.5891 21.4868 45.4428 21.6543 46.3524 21.6543C47.246 21.6543 48.0837 21.4868 48.8656 21.1517C49.6475 20.8166 50.3257 20.3618 50.9001 19.7873C51.4746 19.2129 51.9214 18.5347 52.2405 17.7528C52.5756 16.955 52.7432 16.1013 52.7432 15.1917C52.7432 14.2662 52.5756 13.4045 52.2405 12.6067C51.9054 11.8088 51.4427 11.1226 50.8523 10.5482C50.2778 9.95778 49.5917 9.49502 48.7938 9.15993C47.9959 8.82483 47.1343 8.65728 46.2088 8.65728C45.3311 8.65728 44.5014 8.83281 43.7195 9.18386C42.9535 9.51896 42.2833 9.98171 41.7089 10.5721C41.1344 11.1466 40.6796 11.8327 40.3445 12.6306C40.0094 13.4125 39.8419 14.2502 39.8419 15.1438ZM58.2145 6.31159H62.116L67.4537 20.266L72.7195 6.31159H76.6449V24H73.8684V9.90193L68.5786 24H66.2808L60.991 9.90193V24H58.2145V6.31159ZM79.3261 15.1678C79.3261 13.8752 79.5655 12.6785 80.0442 11.5774C80.5388 10.4604 81.2011 9.48705 82.0308 8.65728C82.8765 7.82751 83.8739 7.18125 85.0228 6.71849C86.1717 6.23978 87.4004 6.00043 88.7089 6.00043C89.9695 6.00043 91.1503 6.23978 92.2513 6.71849C93.3683 7.19721 94.3337 7.85145 95.1475 8.68121C95.9773 9.51098 96.6315 10.4844 97.1103 11.6014C97.589 12.7024 97.8283 13.8832 97.8283 15.1438C97.8283 16.4204 97.589 17.6172 97.1103 18.7342C96.6315 19.8512 95.9773 20.8245 95.1475 21.6543C94.3337 22.4681 93.3683 23.1144 92.2513 23.5931C91.1343 24.0718 89.9296 24.3112 88.637 24.3112C87.3445 24.3112 86.1318 24.0718 84.9988 23.5931C83.8659 23.1144 82.8765 22.4681 82.0308 21.6543C81.2011 20.8245 80.5388 19.8512 80.0442 18.7342C79.5655 17.6172 79.3261 16.4284 79.3261 15.1678ZM82.1266 15.1438C82.1266 16.0534 82.2941 16.9071 82.6292 17.7049C82.9803 18.4868 83.443 19.173 84.0175 19.7634C84.6079 20.3538 85.294 20.8166 86.0759 21.1517C86.8738 21.4868 87.7275 21.6543 88.637 21.6543C89.5306 21.6543 90.3684 21.4868 91.1503 21.1517C91.9322 20.8166 92.6104 20.3618 93.1848 19.7873C93.7593 19.2129 94.2061 18.5347 94.5252 17.7528C94.8603 16.955 95.0279 16.1013 95.0279 15.1917C95.0279 14.2662 94.8603 13.4045 94.5252 12.6067C94.1901 11.8088 93.7274 11.1226 93.1369 10.5482C92.5625 9.95778 91.8763 9.49502 91.0785 9.15993C90.2806 8.82483 89.4189 8.65728 88.4934 8.65728C87.6158 8.65728 86.786 8.83281 86.0041 9.18386C85.2382 9.51896 84.568 9.98171 83.9935 10.5721C83.4191 11.1466 82.9643 11.8327 82.6292 12.6306C82.2941 13.4125 82.1266 14.2502 82.1266 15.1438ZM100.499 6.31159H109.571V8.94451H103.276V24H100.499V6.31159ZM115.363 19.3326L109.882 6.31159H112.874L116.751 15.9098L120.677 6.31159H123.645L116.177 24H113.472L115.363 19.3326Z" fill="#252525"/>
<path d="M134.645 10.9513C135.668 8.69879 138 4.85397 140.101 6.3277C145.746 10.2875 137.259 19.4872 134.645 25C131.178 18.3017 124.435 7.87497 130.327 6.3277C133.908 5.38749 136.009 13.0853 135.668 14.8636C135.327 16.6419 132.94 16.413 132.94 14.8636C132.94 13.1329 134.19 11.5441 134.645 10.9513Z" stroke="#252525" stroke-width="2"/>
</svg>
