<svg width="23" height="22" viewBox="0 0 23 22" fill="none" xmlns="http://www.w3.org/2000/svg">
<g opacity="0.5">
<path d="M15.4973 12.834C15.5707 12.229 15.6257 11.624 15.6257 11.0007C15.6257 10.3773 15.5707 9.77232 15.4973 9.16732H18.5957C18.7423 9.75398 18.834 10.3682 18.834 11.0007C18.834 11.6332 18.7423 12.2473 18.5957 12.834M13.8748 17.9307C14.4248 16.9132 14.8465 15.8132 15.1398 14.6673H17.844C16.9559 16.1966 15.5469 17.355 13.8748 17.9307ZM13.6457 12.834H9.35565C9.26398 12.229 9.20898 11.624 9.20898 11.0007C9.20898 10.3773 9.26398 9.76315 9.35565 9.16732H13.6457C13.7282 9.76315 13.7923 10.3773 13.7923 11.0007C13.7923 11.624 13.7282 12.229 13.6457 12.834ZM11.5007 18.2973C10.7398 17.1973 10.1257 15.9782 9.74982 14.6673H13.2515C12.8757 15.9782 12.2615 17.1973 11.5007 18.2973ZM7.83398 7.33398H5.15732C6.03607 5.80043 7.44409 4.64012 9.11732 4.07065C8.56732 5.08815 8.15482 6.18815 7.83398 7.33398ZM5.15732 14.6673H7.83398C8.15482 15.8132 8.56732 16.9132 9.11732 17.9307C7.4474 17.3553 6.04125 16.1965 5.15732 14.6673ZM4.40565 12.834C4.25898 12.2473 4.16732 11.6332 4.16732 11.0007C4.16732 10.3682 4.25898 9.75398 4.40565 9.16732H7.50398C7.43065 9.77232 7.37565 10.3773 7.37565 11.0007C7.37565 11.624 7.43065 12.229 7.50398 12.834M11.5007 3.69482C12.2615 4.79482 12.8757 6.02315 13.2515 7.33398H9.74982C10.1257 6.02315 10.7398 4.79482 11.5007 3.69482ZM17.844 7.33398H15.1398C14.8525 6.19879 14.4277 5.10291 13.8748 4.07065C15.5615 4.64815 16.964 5.81232 17.844 7.33398ZM11.5007 1.83398C6.43148 1.83398 2.33398 5.95898 2.33398 11.0007C2.33398 13.4318 3.29976 15.7634 5.01884 17.4825C5.87004 18.3337 6.88057 19.0089 7.99272 19.4695C9.10487 19.9302 10.2969 20.1673 11.5007 20.1673C13.9318 20.1673 16.2634 19.2015 17.9825 17.4825C19.7015 15.7634 20.6673 13.4318 20.6673 11.0007C20.6673 9.79687 20.4302 8.60487 19.9695 7.49272C19.5089 6.38057 18.8337 5.37004 17.9825 4.51884C17.1313 3.66764 16.1207 2.99242 15.0086 2.53176C13.8964 2.07109 12.7044 1.83398 11.5007 1.83398Z" fill="#252525"/>
</g>
</svg>
