<svg width="23" height="22" viewBox="0 0 23 22" fill="none" xmlns="http://www.w3.org/2000/svg">
<g opacity="0.5">
<path d="M11.5 2.75027C9.79819 2.75027 8.16609 3.42631 6.96273 4.62966C5.75937 5.83302 5.08333 7.46513 5.08333 9.16693C5.08333 11.7904 6.71683 14.3213 8.50983 16.2821C9.42663 17.2809 10.427 18.1997 11.5 19.0284C11.6601 18.9056 11.848 18.7559 12.0638 18.5793C12.9252 17.8718 13.736 17.1048 14.4902 16.2839C16.2832 14.3213 17.9167 11.7913 17.9167 9.16693C17.9167 7.46513 17.2406 5.83302 16.0373 4.62966C14.8339 3.42631 13.2018 2.75027 11.5 2.75027ZM11.5 21.2798L10.9802 20.9223L10.9775 20.9204L10.972 20.9158L10.9537 20.903L10.8849 20.8544L10.6374 20.6738C9.38329 19.7313 8.21822 18.6758 7.15683 17.5205C5.28317 15.469 3.25 12.4999 3.25 9.16602C3.25 6.97798 4.11919 4.87956 5.66637 3.33238C7.21354 1.78521 9.31196 0.916016 11.5 0.916016C13.688 0.916016 15.7865 1.78521 17.3336 3.33238C18.8808 4.87956 19.75 6.97798 19.75 9.16602C19.75 12.4999 17.7168 15.4699 15.8432 17.5187C14.7821 18.6739 13.6173 19.7294 12.3635 20.672C12.2591 20.75 12.1536 20.8267 12.0473 20.9021L12.028 20.9149L12.0225 20.9195L12.0207 20.9204L11.5 21.2798ZM11.5 7.3336C11.0138 7.3336 10.5475 7.52675 10.2036 7.87057C9.85982 8.21439 9.66667 8.6807 9.66667 9.16693C9.66667 9.65316 9.85982 10.1195 10.2036 10.4633C10.5475 10.8071 11.0138 11.0003 11.5 11.0003C11.9862 11.0003 12.4525 10.8071 12.7964 10.4633C13.1402 10.1195 13.3333 9.65316 13.3333 9.16693C13.3333 8.6807 13.1402 8.21439 12.7964 7.87057C12.4525 7.52675 11.9862 7.3336 11.5 7.3336ZM7.83333 9.16693C7.83333 8.19447 8.21964 7.26184 8.90728 6.57421C9.59491 5.88657 10.5275 5.50027 11.5 5.50027C12.4725 5.50027 13.4051 5.88657 14.0927 6.57421C14.7804 7.26184 15.1667 8.19447 15.1667 9.16693C15.1667 10.1394 14.7804 11.072 14.0927 11.7597C13.4051 12.4473 12.4725 12.8336 11.5 12.8336C10.5275 12.8336 9.59491 12.4473 8.90728 11.7597C8.21964 11.072 7.83333 10.1394 7.83333 9.16693Z" fill="#252525"/>
</g>
</svg>
