<svg width="18" height="18" viewBox="0 0 18 18" fill="none" xmlns="http://www.w3.org/2000/svg">
<path d="M12.354 11.6466C12.4005 11.6931 12.4374 11.7482 12.4626 11.8089C12.4877 11.8696 12.5007 11.9347 12.5007 12.0004C12.5007 12.0661 12.4877 12.1312 12.4626 12.1919C12.4374 12.2526 12.4005 12.3077 12.354 12.3541L9.35403 15.3541C9.30759 15.4006 9.25245 15.4375 9.19175 15.4627C9.13105 15.4878 9.06599 15.5008 9.00028 15.5008C8.93457 15.5008 8.86951 15.4878 8.80881 15.4627C8.74811 15.4375 8.69296 15.4006 8.64653 15.3541L5.64653 12.3541C5.55271 12.2603 5.5 12.1331 5.5 12.0004C5.5 11.8677 5.55271 11.7405 5.64653 11.6466C5.74035 11.5528 5.8676 11.5001 6.00028 11.5001C6.13296 11.5001 6.26021 11.5528 6.35403 11.6466L9.00028 14.2935L11.6465 11.6466C11.693 11.6002 11.7481 11.5633 11.8088 11.5381C11.8695 11.513 11.9346 11.5 12.0003 11.5C12.066 11.5 12.131 11.513 12.1917 11.5381C12.2524 11.5633 12.3076 11.6002 12.354 11.6466ZM6.35403 6.35414L9.00028 3.70727L11.6465 6.35414C11.7403 6.44796 11.8676 6.50067 12.0003 6.50067C12.133 6.50067 12.2602 6.44796 12.354 6.35414C12.4478 6.26032 12.5006 6.13308 12.5006 6.00039C12.5006 5.86771 12.4478 5.74046 12.354 5.64664L9.35403 2.64664C9.30759 2.60016 9.25245 2.56328 9.19175 2.53811C9.13105 2.51295 9.06599 2.5 9.00028 2.5C8.93457 2.5 8.86951 2.51295 8.80881 2.53811C8.74811 2.56328 8.69296 2.60016 8.64653 2.64664L5.64653 5.64664C5.55271 5.74046 5.5 5.86771 5.5 6.00039C5.5 6.13308 5.55271 6.26032 5.64653 6.35414C5.74035 6.44796 5.8676 6.50067 6.00028 6.50067C6.13296 6.50067 6.26021 6.44796 6.35403 6.35414Z" fill="#30302F"/>
</svg>
