<svg width="58" height="58" viewBox="0 0 58 58" fill="none" xmlns="http://www.w3.org/2000/svg">
<circle cx="29" cy="29" r="28.5" stroke="#FF71A3"/>
<path d="M21.064 37.2L28.4 30.2C28.96 29.6587 29.4267 29.1827 29.8 28.772C30.1733 28.3613 30.4627 27.9787 30.668 27.624C30.892 27.2507 31.0507 26.896 31.144 26.56C31.2373 26.2053 31.284 25.832 31.284 25.44C31.284 24.9173 31.1907 24.4413 31.004 24.012C30.836 23.564 30.5933 23.1813 30.276 22.864C29.9773 22.5467 29.6133 22.304 29.184 22.136C28.7733 21.9493 28.316 21.856 27.812 21.856C26.692 21.856 25.8053 22.2573 25.152 23.06C24.4987 23.844 24.172 24.9267 24.172 26.308H21.036C21.036 25.188 21.1947 24.1707 21.512 23.256C21.8293 22.3413 22.2773 21.5667 22.856 20.932C23.4347 20.2973 24.144 19.812 24.984 19.476C25.824 19.1213 26.7573 18.944 27.784 18.944C28.736 18.944 29.6227 19.112 30.444 19.448C31.2653 19.7653 31.9747 20.2227 32.572 20.82C33.1693 21.3987 33.636 22.0893 33.972 22.892C34.308 23.6947 34.476 24.572 34.476 25.524C34.476 26.14 34.4107 26.7093 34.28 27.232C34.1493 27.7547 33.9253 28.2867 33.608 28.828C33.3093 29.3507 32.908 29.9013 32.404 30.48C31.9 31.04 31.2747 31.6653 30.528 32.356L25.488 37.032H34.364V40H21.064V37.2Z" fill="#FF71A3"/>
</svg>
