<svg width="58" height="58" viewBox="0 0 58 58" fill="none" xmlns="http://www.w3.org/2000/svg">
<circle cx="29" cy="29" r="28.5" stroke="#FF71A3"/>
<path d="M23.892 33.672C24.0227 34.848 24.4147 35.772 25.068 36.444C25.74 37.116 26.608 37.452 27.672 37.452C28.1947 37.452 28.68 37.3587 29.128 37.172C29.576 36.9667 29.9587 36.696 30.276 36.36C30.612 36.024 30.8733 35.6227 31.06 35.156C31.2467 34.6893 31.34 34.176 31.34 33.616C31.34 32.4027 30.9387 31.4507 30.136 30.76C29.3333 30.0693 28.232 29.724 26.832 29.724H26.244V26.728H27.028C27.924 26.728 28.624 26.504 29.128 26.056C29.632 25.608 29.884 25.0013 29.884 24.236C29.884 23.5267 29.6693 22.9573 29.24 22.528C28.8293 22.08 28.288 21.856 27.616 21.856C26.2533 21.856 25.516 22.6773 25.404 24.32H22.212C22.3053 22.64 22.828 21.324 23.78 20.372C24.7507 19.42 26.0293 18.944 27.616 18.944C28.4 18.944 29.1187 19.084 29.772 19.364C30.444 19.6253 31.0227 19.9987 31.508 20.484C31.9933 20.9693 32.3667 21.548 32.628 22.22C32.908 22.892 33.048 23.62 33.048 24.404C33.048 25.2253 32.8987 25.9347 32.6 26.532C32.32 27.1107 31.8533 27.6333 31.2 28.1C33.4027 29.1267 34.504 30.9373 34.504 33.532C34.504 34.5027 34.3267 35.408 33.972 36.248C33.636 37.0693 33.16 37.788 32.544 38.404C31.9467 39.02 31.2373 39.5053 30.416 39.86C29.5947 40.196 28.6987 40.364 27.728 40.364C26.7387 40.364 25.824 40.2053 24.984 39.888C24.144 39.552 23.416 39.0947 22.8 38.516C22.184 37.9187 21.6987 37.2093 21.344 36.388C20.9893 35.5667 20.784 34.6613 20.728 33.672H23.892Z" fill="#FF71A3"/>
</svg>
