<svg width="22" height="22" viewBox="0 0 22 22" fill="none" xmlns="http://www.w3.org/2000/svg">
<path d="M18.8204 11.3008L15.4707 6.27461C15.2989 6.01669 14.9955 5.8559 14.6651 5.84792L14.6496 5.84725C14.5479 5.81399 14.4384 5.79536 14.3238 5.79536H12.558L10.6763 5.74857L5.59139 1.94719C5.17487 1.63604 4.561 1.69193 4.22021 2.07249C3.87942 2.45282 3.94107 3.01391 4.35735 3.32505L9.69983 7.31893C9.75808 7.3624 9.8224 7.39677 9.88891 7.42671V20.1094C9.88891 20.6013 10.3251 20.9998 10.8632 20.9998C11.4014 20.9998 11.838 20.6013 11.838 20.1094V13.6793C11.924 13.6949 12.0143 13.7057 12.1116 13.7057H13.2575C13.2896 13.7057 13.3187 13.7017 13.3497 13.7002V20.1096C13.3497 20.6015 13.7857 21 14.3241 21C14.8624 21 15.2986 20.6015 15.2986 20.1096V9.43928L17.1562 12.2267C17.3397 12.5022 17.6606 12.6543 17.9895 12.6543C18.1623 12.6543 18.3373 12.6126 18.4954 12.5243C18.9546 12.2689 19.1002 11.7211 18.8204 11.3008Z" fill="#252525"/>
<path d="M17.5759 12.6885C16.8205 12.6885 16.2501 13.138 16.0504 13.8918C16.0016 14.0756 16.1254 14.2604 16.3266 14.3052C16.5276 14.3497 16.73 14.2364 16.779 14.0528C16.8611 13.743 17.0659 13.3733 17.5759 13.3733C18.0237 13.3733 18.2505 13.6729 18.2505 14.2637V20.5298C18.2505 20.7188 18.4182 20.872 18.6255 20.872C18.8323 20.872 19 20.7188 19 20.5298V14.2637C19 13.2921 18.4543 12.6885 17.5759 12.6885Z" fill="#252525"/>
<path d="M12.6237 1C11.3686 1 10.3472 1.93321 10.3472 3.08021C10.3472 4.22699 11.3686 5.16043 12.6237 5.16043C13.8794 5.16043 14.901 4.22699 14.901 3.08021C14.901 1.93299 13.8794 1 12.6237 1Z" fill="#252525"/>
</svg>
