<svg width="22" height="22" viewBox="0 0 22 22" fill="none" xmlns="http://www.w3.org/2000/svg">
<g clip-path="url(#clip0_1073_1313)">
<path d="M6.2 16.2C8.18823 16.2 9.8 14.5882 9.8 12.6C9.8 10.6118 8.18823 9 6.2 9C4.21177 9 2.6 10.6118 2.6 12.6C2.6 14.5882 4.21177 16.2 6.2 16.2ZM6.2 16.2C2.2 16.2 1 19.4 1 21M6.2 16.2C10.2 16.2 11.4 19.4 11.4 21M15.8 8.2C17.7882 8.2 19.4 6.58823 19.4 4.6C19.4 2.61177 17.7882 1 15.8 1C13.8118 1 12.2 2.61177 12.2 4.6C12.2 6.58823 13.8118 8.2 15.8 8.2ZM15.8 8.2C11.8 8.2 10.6 11.4 10.6 13M15.8 8.2C19.8 8.2 21 11.4 21 13" stroke="#252525" stroke-width="1.7" stroke-linecap="round" stroke-linejoin="round"/>
</g>
<defs>
<clipPath id="clip0_1073_1313">
<rect width="22" height="22" fill="white"/>
</clipPath>
</defs>
</svg>
