<svg width="22" height="22" viewBox="0 0 22 22" fill="none" xmlns="http://www.w3.org/2000/svg">
<path d="M8.70785 1C8.4653 0.999997 8.22514 1.04823 8.00105 1.142C7.77696 1.23578 7.57336 1.37326 7.40185 1.54653C7.23034 1.71981 7.09435 1.92552 7.00153 2.15192C6.90871 2.37831 6.86089 2.62095 6.8609 2.86601C6.86089 3.11105 6.90871 3.3537 7.00153 3.58009C7.09435 3.80649 7.23034 4.0122 7.40185 4.18548C7.57336 4.35875 7.77697 4.49619 8.00105 4.58997C8.22514 4.68374 8.4653 4.73201 8.70785 4.73201C8.9504 4.73201 9.19057 4.68374 9.41465 4.58997C9.63873 4.49619 9.84235 4.35875 10.0139 4.18548C10.1854 4.0122 10.3214 3.80649 10.4143 3.58009C10.5071 3.3537 10.5548 3.11105 10.5548 2.86601C10.5548 2.62096 10.5071 2.37831 10.4143 2.15192C10.3214 1.92552 10.1854 1.71981 10.0139 1.54653C9.84235 1.37326 9.63873 1.23582 9.41465 1.14204C9.19057 1.04827 8.9504 1 8.70785 1ZM8.67127 5.07715C8.34051 5.07715 8.02336 5.20993 7.78948 5.44622C7.5556 5.68252 7.42418 6.00298 7.42418 6.33715V13.9064C7.42415 14.0743 7.4573 14.2405 7.52172 14.3952C7.58615 14.55 7.68058 14.6901 7.79937 14.8075C7.91815 14.9249 8.0589 15.0171 8.21345 15.0787C8.36799 15.1404 8.53317 15.1702 8.69928 15.1664L14.432 15.0366L16.7363 18.813C16.8981 19.0779 17.1513 19.273 17.447 19.3606C17.7427 19.4482 18.0601 19.4221 18.3379 19.2873L20.2944 18.3361C20.5923 18.1911 20.8209 17.9325 20.9301 17.6172C21.0392 17.3019 21.02 16.9557 20.8766 16.6547C20.8057 16.5055 20.7065 16.3718 20.5845 16.2614C20.4624 16.151 20.3201 16.0659 20.1656 16.0111C20.011 15.9562 19.8473 15.9327 19.6837 15.9418C19.5202 15.9509 19.36 15.9924 19.2124 16.0641L18.269 16.5243L16.1791 13.0992C16.0649 12.9125 15.9043 12.7591 15.7133 12.6543C15.5223 12.5495 15.3076 12.497 15.0903 12.5018L9.91902 12.6205V11.2066H14.0137C14.1365 11.2068 14.2583 11.1825 14.3719 11.1351C14.4855 11.0878 14.5887 11.0182 14.6756 10.9305C14.7626 10.8428 14.8316 10.7387 14.8787 10.624C14.9258 10.5094 14.9502 10.3864 14.9502 10.2623C14.9501 10.1382 14.9257 10.0153 14.8786 9.90073C14.8314 9.78614 14.7624 9.68206 14.6755 9.59442C14.5885 9.50678 14.4853 9.43729 14.3717 9.38995C14.2582 9.34261 14.1365 9.31833 14.0137 9.31849H9.91902V6.33703C9.91902 6.17151 9.88675 6.00762 9.82403 5.85471C9.76132 5.7018 9.66943 5.5629 9.55355 5.44589C9.43768 5.32888 9.30017 5.23608 9.14879 5.17279C8.99741 5.10951 8.8351 5.07707 8.67127 5.07715ZM6.5381 7.10684C3.22083 7.80105 0.875158 10.8303 1.00515 14.2504C1.13514 17.6705 3.7047 20.5078 7.06489 20.9429C10.4251 21.378 13.6187 19.2869 14.5983 16.0105L12.8074 15.4642C12.0884 17.8691 9.76809 19.3877 7.30175 19.0683C4.83542 18.7489 2.96944 16.6887 2.87402 14.1784C2.77858 11.6681 4.48267 9.4676 6.9175 8.95807L6.5381 7.10684Z" fill="#252525"/>
</svg>
