<svg width="22" height="22" viewBox="0 0 22 22" fill="none" xmlns="http://www.w3.org/2000/svg">
<g clip-path="url(#clip0_1052_11136)">
<path fill-rule="evenodd" clip-rule="evenodd" d="M12.0498 9.77238C12.7016 9.48238 13.4434 9.48905 14.1595 9.86038C14.8829 10.2354 15.3783 10.9073 15.4854 11.7378C15.5915 12.5613 15.3071 13.4579 14.6402 14.2965C14.6341 14.3041 14.6279 14.3116 14.6214 14.3188L11.4279 17.9235C11.3265 18.0378 11.1835 18.103 11.0338 18.103C10.884 18.103 10.7411 18.0379 10.6397 17.9235L7.44744 14.3208C6.68725 13.4773 6.38871 12.5644 6.52425 11.7203C6.65856 10.8838 7.20255 10.2262 7.90772 9.86061C8.62381 9.48927 9.36574 9.4825 10.0176 9.77238C10.4057 9.94505 10.7489 10.2165 11.0337 10.5579C11.3185 10.2164 11.6617 9.94505 12.0498 9.77238ZM12.4716 10.7936C12.1025 10.9578 11.7551 11.3014 11.5126 11.8044C11.4218 11.9926 11.2365 12.1114 11.0337 12.1114C10.831 12.1114 10.6457 11.9926 10.555 11.8044C10.3125 11.3015 9.96503 10.9578 9.59585 10.7937C9.23736 10.6343 8.82467 10.6273 8.38627 10.8545C7.93659 11.0877 7.64964 11.4718 7.58042 11.9029C7.51252 12.3258 7.63734 12.9055 8.23081 13.5634L11.0337 16.7266L13.8232 13.5781C14.3435 12.9193 14.4811 12.3268 14.4241 11.8851C14.3678 11.4479 14.1124 11.078 13.681 10.8543C13.2427 10.627 12.83 10.6342 12.4716 10.7936Z" fill="#252525"/>
<path fill-rule="evenodd" clip-rule="evenodd" d="M5.04245 1C4.4511 1 3.97172 1.49746 3.97172 2.11111V6.22508L0.576136 9.30824C-0.125055 9.94496 -0.196109 11.0509 0.417432 11.7785C1.03097 12.5062 2.09678 12.5799 2.79797 11.9433L3.47985 11.3241V19.4141C3.47985 20.29 4.16409 21 5.00814 21H17.529C18.3731 21 19.0573 20.29 19.0573 19.4141V11.8119L19.202 11.9433C19.9033 12.5799 20.9691 12.5062 21.5826 11.7785C22.1961 11.0509 22.125 9.94496 21.4239 9.30824L13.6441 2.24425C12.1302 0.869678 9.86974 0.869678 8.35593 2.24425L7.60257 2.92829V2.11111C7.60257 1.49746 7.12318 1 6.53184 1H5.04245ZM17.9866 10.8396L11.4222 4.87924C11.1805 4.65973 10.8195 4.65973 10.5777 4.87924L4.55058 10.3519V19.4141C4.55058 19.6763 4.75543 19.8889 5.00814 19.8889H17.529C17.7817 19.8889 17.9866 19.6763 17.9866 19.4141V10.8396ZM6.53184 5.37691L9.06102 3.08044C10.1712 2.07242 11.8289 2.07242 12.939 3.08044L20.7188 10.1444C20.9749 10.3771 21.0009 10.7811 20.7768 11.0468C20.5527 11.3127 20.1632 11.3396 19.9071 11.1071L12.1273 4.04304C11.4818 3.45698 10.5182 3.45698 9.87263 4.04304L2.09289 11.1071C1.83673 11.3396 1.44738 11.3127 1.22324 11.0468C0.999107 10.7811 1.02506 10.3771 1.28122 10.1444L5.04245 6.72926V2.11111H6.53184V5.37691Z" fill="#252525"/>
<path fill-rule="evenodd" clip-rule="evenodd" d="M12.0498 9.77238C12.7016 9.48238 13.4434 9.48905 14.1595 9.86038C14.8829 10.2354 15.3783 10.9073 15.4854 11.7378C15.5915 12.5613 15.3071 13.4579 14.6402 14.2965C14.6341 14.3041 14.6279 14.3116 14.6214 14.3188L11.4279 17.9235C11.3265 18.0378 11.1835 18.103 11.0338 18.103C10.884 18.103 10.7411 18.0379 10.6397 17.9235L7.44744 14.3208C6.68725 13.4773 6.38871 12.5644 6.52425 11.7203C6.65856 10.8838 7.20255 10.2262 7.90772 9.86061C8.62381 9.48927 9.36574 9.4825 10.0176 9.77238C10.4057 9.94505 10.7489 10.2165 11.0337 10.5579C11.3185 10.2164 11.6617 9.94505 12.0498 9.77238ZM12.4716 10.7936C12.1025 10.9578 11.7551 11.3014 11.5126 11.8044C11.4218 11.9926 11.2365 12.1114 11.0337 12.1114C10.831 12.1114 10.6457 11.9926 10.555 11.8044C10.3125 11.3015 9.96503 10.9578 9.59585 10.7937C9.23736 10.6343 8.82467 10.6273 8.38627 10.8545C7.93659 11.0877 7.64964 11.4718 7.58042 11.9029C7.51252 12.3258 7.63734 12.9055 8.23081 13.5634L11.0337 16.7266L13.8232 13.5781C14.3435 12.9193 14.4811 12.3268 14.4241 11.8851C14.3678 11.4479 14.1124 11.078 13.681 10.8543C13.2427 10.627 12.83 10.6342 12.4716 10.7936Z" stroke="#252525" stroke-width="0.5"/>
<path fill-rule="evenodd" clip-rule="evenodd" d="M5.04245 1C4.4511 1 3.97172 1.49746 3.97172 2.11111V6.22508L0.576136 9.30824C-0.125055 9.94496 -0.196109 11.0509 0.417432 11.7785C1.03097 12.5062 2.09678 12.5799 2.79797 11.9433L3.47985 11.3241V19.4141C3.47985 20.29 4.16409 21 5.00814 21H17.529C18.3731 21 19.0573 20.29 19.0573 19.4141V11.8119L19.202 11.9433C19.9033 12.5799 20.9691 12.5062 21.5826 11.7785C22.1961 11.0509 22.125 9.94496 21.4239 9.30824L13.6441 2.24425C12.1302 0.869678 9.86974 0.869678 8.35593 2.24425L7.60257 2.92829V2.11111C7.60257 1.49746 7.12318 1 6.53184 1H5.04245ZM17.9866 10.8396L11.4222 4.87924C11.1805 4.65973 10.8195 4.65973 10.5777 4.87924L4.55058 10.3519V19.4141C4.55058 19.6763 4.75543 19.8889 5.00814 19.8889H17.529C17.7817 19.8889 17.9866 19.6763 17.9866 19.4141V10.8396ZM6.53184 5.37691L9.06102 3.08044C10.1712 2.07242 11.8289 2.07242 12.939 3.08044L20.7188 10.1444C20.9749 10.3771 21.0009 10.7811 20.7768 11.0468C20.5527 11.3127 20.1632 11.3396 19.9071 11.1071L12.1273 4.04304C11.4818 3.45698 10.5182 3.45698 9.87263 4.04304L2.09289 11.1071C1.83673 11.3396 1.44738 11.3127 1.22324 11.0468C0.999107 10.7811 1.02506 10.3771 1.28122 10.1444L5.04245 6.72926V2.11111H6.53184V5.37691Z" stroke="#252525" stroke-width="0.5"/>
</g>
<defs>
<clipPath id="clip0_1052_11136">
<rect width="22" height="22" fill="white"/>
</clipPath>
</defs>
</svg>
