<svg width="18" height="19" viewBox="0 0 18 19" fill="none" xmlns="http://www.w3.org/2000/svg">
<path d="M14.8452 3.65497C13.2873 2.14196 11.1966 1.30271 9.02502 1.31858C6.85339 1.33445 4.77521 2.20417 3.2396 3.73978C1.70399 5.2754 0.834268 7.35357 0.818397 9.5252C0.802526 11.6968 1.64178 13.7875 3.15478 15.3454C4.71268 16.8584 6.80334 17.6976 8.97497 17.6818C11.1466 17.6659 13.2248 16.7962 14.7604 15.2606C16.296 13.725 17.1657 11.6468 17.1816 9.47515C17.1975 7.30353 16.3582 5.21286 14.8452 3.65497ZM1.70155 9.50018C1.70155 5.4757 4.97552 2.20174 8.99999 2.20174C10.7681 2.20008 12.4762 2.84304 13.8044 4.0102L10.876 6.93926L9.26868 5.86775C9.18911 5.81471 9.09562 5.7864 8.99999 5.7864C8.90437 5.7864 8.81088 5.81471 8.73131 5.86775L4.53309 8.66667C4.48008 8.70195 4.43454 8.74733 4.39906 8.80022C4.36359 8.8531 4.33888 8.91246 4.32635 8.97489C4.31381 9.03733 4.3137 9.10162 4.32601 9.1641C4.33832 9.22658 4.36282 9.28602 4.3981 9.33903C4.43339 9.39204 4.47877 9.43758 4.53165 9.47306C4.58454 9.50853 4.64389 9.53324 4.70633 9.54578C4.76876 9.55831 4.83305 9.55842 4.89553 9.54611C4.95801 9.5338 5.01745 9.5093 5.07046 9.47402L5.60913 9.11265V12.2051L3.51002 14.3042C2.34293 12.9762 1.69997 11.2682 1.70155 9.50018ZM11.422 8.46677V12.2452H6.93996L10.9993 8.18581L11.422 8.46677ZM6.57795 11.2373V8.46677L8.99999 6.85207L10.1774 7.63682L6.57795 11.2373ZM8.99999 16.7986C7.23187 16.8003 5.52378 16.1573 4.19562 14.9902L5.98406 13.2017C6.01995 13.2101 6.05667 13.2145 6.09354 13.2146H11.9065C12.0349 13.2146 12.1581 13.1636 12.249 13.0728C12.3398 12.9819 12.3909 12.8587 12.3909 12.7302V9.11265L12.9295 9.47176C12.9825 9.50704 13.042 9.53154 13.1045 9.54385C13.1669 9.55616 13.2312 9.55605 13.2937 9.54351C13.3561 9.53098 13.4155 9.50627 13.4683 9.4708C13.5212 9.43532 13.5666 9.38978 13.6019 9.33677C13.6372 9.28376 13.6617 9.22432 13.674 9.16184C13.6863 9.09936 13.6862 9.03507 13.6736 8.97263C13.6611 8.9102 13.6364 8.85084 13.6009 8.79796C13.5655 8.74507 13.5199 8.69969 13.4669 8.66441L11.6978 7.48503L14.49 4.6958C15.6571 6.02396 16.3001 7.73205 16.2984 9.50018C16.2984 13.5247 13.0245 16.7986 8.99999 16.7986Z" fill="#252525" stroke="#252525" stroke-width="0.409091"/>
</svg>
