<svg width="22" height="22" viewBox="0 0 22 22" fill="none" xmlns="http://www.w3.org/2000/svg">
<path d="M5 21C4.45 21 3.97933 20.8137 3.588 20.441C3.19667 20.0683 3.00067 19.6197 3 19.0952V9.57143C3 9.04762 3.196 8.59937 3.588 8.22667C3.98 7.85397 4.45067 7.6673 5 7.66667H6V5.7619C6 4.44444 6.48767 3.32159 7.463 2.39333C8.43833 1.46508 9.61733 1.00064 11 1C12.3827 0.999366 13.562 1.46381 14.538 2.39333C15.514 3.32286 16.0013 4.44571 16 5.7619V7.66667H17C17.55 7.66667 18.021 7.85333 18.413 8.22667C18.805 8.6 19.0007 9.04825 19 9.57143V19.0952C19 19.619 18.8043 20.0676 18.413 20.441C18.0217 20.8143 17.5507 21.0006 17 21H5ZM5 19.0952H17V9.57143H5V19.0952ZM11 16.2381C11.55 16.2381 12.021 16.0517 12.413 15.679C12.805 15.3063 13.0007 14.8578 13 14.3333C12.9993 13.8089 12.8037 13.3606 12.413 12.9886C12.0223 12.6165 11.5513 12.4298 11 12.4286C10.4487 12.4273 9.978 12.614 9.588 12.9886C9.198 13.3632 9.002 13.8114 9 14.3333C8.998 14.8552 9.194 15.3038 9.588 15.679C9.982 16.0543 10.4527 16.2406 11 16.2381ZM8 7.66667H14V5.7619C14 4.96825 13.7083 4.29365 13.125 3.7381C12.5417 3.18254 11.8333 2.90476 11 2.90476C10.1667 2.90476 9.45833 3.18254 8.875 3.7381C8.29167 4.29365 8 4.96825 8 5.7619V7.66667Z" fill="#252525"/>
</svg>
