<svg width="18" height="19" viewBox="0 0 18 19" fill="none" xmlns="http://www.w3.org/2000/svg">
<path d="M5.72727 16.0456V11.1365H12.2727V16.0456H14.7273V2.95472H3.27273V16.0456H5.72727ZM7.36364 16.0456H10.6364V12.7729H7.36364V16.0456ZM16.3636 16.0456H18V17.682H0V16.0456H1.63636V2.13654C1.63636 1.91955 1.72256 1.71144 1.876 1.558C2.02944 1.40456 2.23755 1.31836 2.45455 1.31836H15.5455C15.7625 1.31836 15.9706 1.40456 16.124 1.558C16.2774 1.71144 16.3636 1.91955 16.3636 2.13654V16.0456ZM8.18182 6.22745V4.59109H9.81818V6.22745H11.4545V7.86381H9.81818V9.50018H8.18182V7.86381H6.54545V6.22745H8.18182Z" fill="#252525"/>
</svg>
