<svg width="22" height="22" viewBox="0 0 22 22" fill="none" xmlns="http://www.w3.org/2000/svg">
<path d="M4.66972 8.59612C4.66972 8.11818 5.0394 7.73073 5.49541 7.73073H9.16513C9.62115 7.73073 9.99082 8.11818 9.99082 8.59612C9.99082 9.07406 9.62115 9.4615 9.16513 9.4615H5.49541C5.0394 9.4615 4.66972 9.07406 4.66972 8.59612Z" fill="#252525"/>
<path d="M16.4963 11.2884C15.8883 11.2884 15.3954 11.805 15.3954 12.4423C15.3954 13.0795 15.8883 13.5961 16.4963 13.5961H16.5055C17.1135 13.5961 17.6064 13.0795 17.6064 12.4423C17.6064 11.805 17.1135 11.2884 16.5055 11.2884H16.4963Z" fill="#252525"/>
<path fill-rule="evenodd" clip-rule="evenodd" d="M5.03906 4.02876L5.03387 4.03239L5.02847 4.03315C3.93759 4.18693 3.03301 4.51395 2.31682 5.26522C1.60099 6.01611 1.28898 6.96373 1.14213 8.10698C0.999974 9.21369 0.999986 10.6239 1 12.3865V12.5063C0.99998 14.2649 0.999964 15.6728 1.14177 16.7778C1.28849 17.9212 1.60052 18.8692 2.31732 19.6199C3.03376 20.3701 3.93791 20.6971 5.02871 20.851C6.08464 21 7.43016 21 9.11188 21H11.9785C13.6565 21 14.9997 21 16.0541 20.8514C17.145 20.6976 18.0495 20.3706 18.7657 19.6193C19.6342 18.7098 19.9142 17.5024 20.017 15.9884C20.5513 15.7111 20.9507 15.1706 20.9961 14.4882L20.9965 14.4818C21.0001 14.4228 21 14.3584 21 14.3015V10.583C21 10.5262 21.0001 10.4617 20.9965 10.4027L20.996 10.3947C20.9494 9.71399 20.551 9.17336 20.0167 8.89601C19.9135 7.38259 19.6343 6.17487 18.7657 5.26522C18.0495 4.51395 17.145 4.18693 16.0541 4.03315L16.0487 4.03239L16.0435 4.02876L12.6169 1.64702L12.6103 1.64251C11.9944 1.22318 11.2757 1 10.5413 1C9.80683 1 9.08813 1.22318 8.47222 1.64251L8.46566 1.64702L5.03906 4.02876ZM9.37482 3.09189L8.23318 3.88541C8.51283 3.88456 8.80298 3.88456 9.10389 3.88456H11.9785C12.2794 3.88456 12.5697 3.88456 12.8494 3.88541L11.7077 3.09189C11.3603 2.85619 10.9552 2.73077 10.5413 2.73077C10.1273 2.73077 9.72227 2.85619 9.37482 3.09189ZM18.3426 8.69227C18.233 7.51777 18.004 6.914 17.5982 6.48918C17.24 6.11352 16.7417 5.87644 15.834 5.74848C14.9025 5.61718 13.6706 5.61534 11.9174 5.61534H9.16513C7.41197 5.61534 6.18007 5.61718 5.24859 5.74848C4.34085 5.87644 3.84314 6.11288 3.48502 6.48854C3.12654 6.86458 2.90093 7.38667 2.77874 8.3379C2.65336 9.31402 2.65138 10.605 2.65138 12.4423C2.65138 14.2797 2.65313 15.5709 2.77841 16.5471C2.9005 17.4985 3.12609 18.0202 3.48452 18.3955C3.8433 18.7712 4.34145 19.0077 5.24904 19.1357C6.18038 19.2671 7.4121 19.2692 9.16513 19.2692H11.9174C13.6706 19.2692 14.9025 19.2674 15.834 19.1361C16.7417 19.0081 17.2394 18.7717 17.5975 18.396C18.0035 17.9711 18.2337 17.3664 18.3429 16.1923H16.7156C14.6825 16.1923 12.9266 14.5728 12.9266 12.4423C12.9266 10.3118 14.6816 8.69227 16.7165 8.69227H18.3426ZM19.1857 10.4232C19.1677 10.4231 19.1438 10.423 19.1037 10.423H16.7165C15.4762 10.423 14.578 11.3862 14.578 12.4423C14.578 13.4984 15.4771 14.4615 16.7156 14.4615L19.1494 14.4615L19.1857 14.4613L19.2029 14.461C19.2597 14.4567 19.3002 14.4336 19.3235 14.4109C19.3423 14.3926 19.347 14.3785 19.3483 14.3713L19.3484 14.3637C19.3486 14.3469 19.3486 14.3244 19.3486 14.2856L19.3486 10.5589L19.3484 10.5209L19.1857 10.4232ZM19.1857 10.4232L19.2029 10.4236C19.2595 10.4278 19.2997 10.4508 19.3229 10.4734C19.3417 10.4917 19.3469 10.5062 19.3483 10.5143L19.1857 10.4232Z" fill="#252525"/>
</svg>
