<svg width="18" height="19" viewBox="0 0 18 19" fill="none" xmlns="http://www.w3.org/2000/svg">
<path d="M15.6318 6.2059C15.515 6.15231 15.3905 6.12499 15.265 6.12536H15.2518C14.5888 6.13686 13.8452 6.86134 13.455 7.95706C12.9872 9.26794 13.2025 10.6091 13.9395 10.9539C14.0562 11.0075 14.1806 11.0349 14.3061 11.0344C14.9724 11.0344 15.7262 10.3058 16.1197 9.20274C16.5842 7.89186 16.3656 6.55068 15.6318 6.2059ZM11.3537 11.3213C10.4398 9.55213 10.0453 8.88672 8.99995 8.88672C7.95457 8.88672 7.5568 9.55635 6.64292 11.3213C5.86053 12.8309 4.27932 12.9567 3.88484 14.2388C3.8048 14.4736 3.76461 14.7243 3.76649 14.9771C3.76649 16.0199 4.45026 16.864 5.29182 16.864C6.3372 16.864 7.76062 15.8902 9.00324 15.8902C10.2459 15.8902 11.6627 16.864 12.7081 16.864C13.5496 16.864 14.2301 16.0202 14.2301 14.9771C14.2309 14.7241 14.1896 14.4734 14.1085 14.2388C13.714 12.9521 12.1361 12.8309 11.3537 11.3213ZM6.91281 7.19922C6.95683 7.19927 7.00079 7.19542 7.04431 7.18771C7.8073 7.05847 8.28364 5.82506 8.11072 4.4321C7.948 3.11892 7.26489 2.13672 6.55055 2.13672C6.50653 2.13667 6.46257 2.14052 6.41905 2.14822C5.65606 2.27747 5.17972 3.51088 5.35264 4.90384C5.51536 6.21318 6.19847 7.19922 6.91281 7.19922ZM12.6463 4.90384C12.8192 3.51088 12.3429 2.27747 11.5799 2.14822C11.5363 2.14052 11.4924 2.13667 11.4484 2.13672C10.734 2.13672 10.0522 3.11892 9.88917 4.4321C9.71626 5.82506 10.1926 7.05847 10.9556 7.18771C10.9991 7.19542 11.0431 7.19927 11.0871 7.19922C11.8014 7.19922 12.4845 6.21318 12.6463 4.90384ZM4.06137 10.9539C4.7974 10.6087 5.0124 9.26641 4.54527 7.95706C4.1521 6.85405 3.39897 6.12536 2.73361 6.12536C2.60816 6.12494 2.48379 6.15227 2.36707 6.2059C1.63103 6.55107 1.41604 7.8934 1.88317 9.20274C2.27634 10.3058 3.02947 11.0344 3.69483 11.0344C3.82027 11.0349 3.94465 11.0075 4.06137 10.9539Z" stroke="#252525" stroke-width="1.22727" stroke-miterlimit="10"/>
</svg>
