<svg width="22" height="22" viewBox="0 0 22 22" fill="none" xmlns="http://www.w3.org/2000/svg">
<path d="M18.3204 10.0511C17.8792 9.07433 17.2378 8.19766 16.4363 7.4759L15.775 6.87905C15.7525 6.85934 15.7255 6.84535 15.6963 6.83831C15.667 6.83128 15.6365 6.83141 15.6073 6.83869C15.5782 6.84597 15.5512 6.86019 15.529 6.88009C15.5067 6.89998 15.4897 6.92496 15.4795 6.95282L15.1841 7.78661C15 8.3097 14.6614 8.84395 14.1818 9.36927C14.15 9.4028 14.1136 9.41174 14.0886 9.41398C14.0636 9.41621 14.025 9.41174 13.9909 9.38045C13.9591 9.35362 13.9432 9.31339 13.9454 9.27315C14.0295 7.92744 13.6204 6.40962 12.725 4.75766C11.9841 3.38513 10.9545 2.31438 9.66817 1.56776L8.72954 1.02456C8.60681 0.95303 8.44999 1.04692 8.45681 1.18775L8.50681 2.26073C8.5409 2.99394 8.45454 3.6422 8.24999 4.18093C7.99999 4.84037 7.6409 5.45287 7.18181 6.00277C6.86233 6.38495 6.50021 6.73062 6.10227 7.03329C5.14387 7.75793 4.36457 8.68643 3.82273 9.74929C3.28221 10.8214 3.00066 12.0018 3 13.1985C3 14.2536 3.21136 15.2752 3.62954 16.2386C4.03333 17.1662 4.61604 18.0081 5.34545 18.7177C6.08182 19.433 6.93636 19.9963 7.88863 20.3875C8.87499 20.7943 9.92045 21 11 21C12.0795 21 13.125 20.7943 14.1114 20.3897C15.0613 20.0008 15.9251 19.4337 16.6545 18.7199C17.3909 18.0046 17.9682 17.1685 18.3704 16.2409C18.788 15.28 19.0022 14.2456 19 13.2007C19 12.1099 18.7727 11.0503 18.3204 10.0511ZM15.5682 17.6357C14.3477 18.825 12.7273 19.4777 11 19.4777C9.27272 19.4777 7.65227 18.825 6.43181 17.6357C5.21591 16.4487 4.54545 14.875 4.54545 13.2007C4.54545 12.2283 4.76818 11.2962 5.20682 10.4288C5.63409 9.58163 6.27045 8.82384 7.04318 8.2404C7.53599 7.86976 7.98297 7.44362 8.37499 6.9707C8.94318 6.2889 9.38863 5.52887 9.69772 4.71295C9.82451 4.37639 9.91664 4.02816 9.97272 3.6735C10.5204 4.16976 10.9795 4.76884 11.3636 5.47075C12.1227 6.8701 12.4727 8.11522 12.4045 9.17479C12.3882 9.42434 12.4297 9.67428 12.5257 9.90581C12.6218 10.1373 12.7699 10.3444 12.9591 10.5116C13.123 10.6572 13.3147 10.7693 13.523 10.8415C13.7314 10.9136 13.9522 10.9443 14.1727 10.9318C14.6204 10.9095 15.0318 10.715 15.3318 10.3864C15.6341 10.0533 15.8954 9.71352 16.1136 9.36703C16.4318 9.76717 16.6977 10.2031 16.9091 10.6725C17.2704 11.4728 17.4545 12.3245 17.4545 13.2007C17.4545 14.875 16.7841 16.451 15.5682 17.6357Z" fill="#252525" stroke="#252525" stroke-width="0.3"/>
</svg>
