<svg width="20" height="20" viewBox="0 0 20 20" fill="none" xmlns="http://www.w3.org/2000/svg">
<path d="M11.2097 10.0243L11.2094 10.0246C11.0591 10.1832 10.9749 10.3931 10.9738 10.6116C10.9738 10.6117 10.9738 10.6117 10.9738 10.6118L10.9738 14.929V14.9597L10.9483 14.9767L9.11497 16.1989L9.02589 16.2583V16.1513L9.0259 10.6116L9.02589 10.6115M11.2097 10.0243L8.83492 9.98516C8.9942 10.1549 9.08295 10.3788 9.08319 10.6115H9.02589M11.2097 10.0243L16.0588 4.84515L16.1491 4.7487H16.017H3.9827H3.85052L3.94089 4.84516L8.79311 10.0243L8.79315 10.0244C8.94245 10.1835 9.02566 10.3934 9.02589 10.6115M11.2097 10.0243L9.02589 10.6115M2.19057 5.49058L2.19059 5.49056L2.18948 5.48934C1.99792 5.27853 1.87172 5.01663 1.82619 4.73545C1.78067 4.45428 1.81779 4.16593 1.93304 3.90545C2.04829 3.64497 2.23671 3.42357 2.4754 3.26815C2.7141 3.11273 2.9928 3.02998 3.27763 3.02995C3.27763 3.02995 3.27763 3.02995 3.27764 3.02995H16.7221C17.007 3.02996 17.2857 3.11272 17.5244 3.26818C17.7632 3.42363 17.9516 3.64509 18.0668 3.90562C18.1819 4.16616 18.2189 4.45451 18.1732 4.73565C18.1275 5.01679 18.0012 5.27862 17.8095 5.48931L17.8084 5.49058L17.8 5.50033L12.708 10.9352L12.6926 10.9517V10.9744V15.0925V15.0926C12.6927 15.3347 12.6331 15.5732 12.5189 15.7867C12.4048 16.0003 12.2396 16.1823 12.0382 16.3167C12.0382 16.3167 12.0382 16.3167 12.0382 16.3167L9.59377 17.9461L9.59375 17.9461C9.37229 18.0939 9.11488 18.1787 8.84897 18.1916C8.58307 18.2046 8.31864 18.145 8.08391 18.0195C7.84917 17.8939 7.65294 17.7069 7.51614 17.4785C7.37934 17.2501 7.30711 16.9889 7.30714 16.7227V10.9744V10.9517L7.29166 10.9352L2.19892 5.50031L2.19057 5.49058Z" fill="white" stroke="white" stroke-width="0.114583"/>
</svg>
