<svg width="16" height="17" viewBox="0 0 16 17" fill="none" xmlns="http://www.w3.org/2000/svg">
<path d="M14.5315 13.9703L11.5634 11.0009C12.4533 9.84119 12.8688 8.38639 12.7256 6.9316C12.5823 5.47682 11.8911 4.131 10.792 3.16713C9.69301 2.20327 8.26849 1.69355 6.80746 1.74137C5.34642 1.78918 3.95828 2.39096 2.92462 3.42462C1.89096 4.45828 1.28918 5.84642 1.24137 7.30746C1.19355 8.76849 1.70327 10.193 2.66713 11.292C3.631 12.3911 4.97682 13.0823 6.4316 13.2256C7.88639 13.3688 9.34119 12.9533 10.5009 12.0634L13.4715 15.0346C13.5413 15.1044 13.6241 15.1597 13.7153 15.1975C13.8064 15.2353 13.9041 15.2547 14.0028 15.2547C14.1014 15.2547 14.1991 15.2353 14.2903 15.1975C14.3814 15.1597 14.4643 15.1044 14.534 15.0346C14.6038 14.9649 14.6591 14.8821 14.6969 14.7909C14.7346 14.6997 14.7541 14.6021 14.7541 14.5034C14.7541 14.4047 14.7346 14.307 14.6969 14.2159C14.6591 14.1247 14.6038 14.0419 14.534 13.9721L14.5315 13.9703ZM2.75089 7.50089C2.75089 6.66032 3.00015 5.83863 3.46715 5.13972C3.93414 4.44081 4.5979 3.89608 5.37449 3.5744C6.15107 3.25273 7.00561 3.16857 7.83003 3.33255C8.65444 3.49654 9.41172 3.90131 10.0061 4.49569C10.6005 5.09006 11.0052 5.84734 11.1692 6.67176C11.3332 7.49618 11.2491 8.35071 10.9274 9.1273C10.6057 9.90388 10.061 10.5676 9.36206 11.0346C8.66316 11.5016 7.84146 11.7509 7.00089 11.7509C5.87408 11.7497 4.79375 11.3016 3.99697 10.5048C3.20019 9.70804 2.75205 8.62771 2.75089 7.50089Z" fill="#252525" fill-opacity="0.4"/>
</svg>
