<svg width="16" height="17" viewBox="0 0 16 17" fill="none" xmlns="http://www.w3.org/2000/svg">
<path d="M13.354 6.85403L8.35403 11.854C8.30759 11.9005 8.25245 11.9374 8.19175 11.9626C8.13105 11.9877 8.06599 12.0007 8.00028 12.0007C7.93457 12.0007 7.86951 11.9877 7.80881 11.9626C7.74811 11.9374 7.69296 11.9005 7.64653 11.854L2.64653 6.85403C2.55271 6.76021 2.5 6.63296 2.5 6.50028C2.5 6.3676 2.55271 6.24035 2.64653 6.14653C2.74035 6.05271 2.8676 6 3.00028 6C3.13296 6 3.26021 6.05271 3.35403 6.14653L8.00028 10.7934L12.6465 6.14653C12.693 6.10007 12.7481 6.06322 12.8088 6.03808C12.8695 6.01294 12.9346 6 13.0003 6C13.066 6 13.131 6.01294 13.1917 6.03808C13.2524 6.06322 13.3076 6.10007 13.354 6.14653C13.4005 6.19298 13.4373 6.24813 13.4625 6.30883C13.4876 6.36953 13.5006 6.43458 13.5006 6.50028C13.5006 6.56598 13.4876 6.63103 13.4625 6.69173C13.4373 6.75242 13.4005 6.80757 13.354 6.85403Z" fill="#252525" fill-opacity="0.5"/>
</svg>
