<svg width="18" height="19" viewBox="0 0 18 19" fill="none" xmlns="http://www.w3.org/2000/svg">
<path d="M16.1326 4.04899C16.0366 3.97406 15.9247 3.922 15.8055 3.89676C15.6864 3.87151 15.563 3.87374 15.4448 3.90327L11.4551 4.90053L7.44471 2.89532C7.27341 2.80962 7.07709 2.78804 6.89127 2.8345L2.61349 3.90394C2.43971 3.94691 2.28529 4.04677 2.17483 4.18764C2.06436 4.32851 2.00419 4.50228 2.00391 4.68129V14.3063C2.00392 14.4282 2.03172 14.5484 2.08517 14.658C2.13863 14.7675 2.21634 14.8634 2.31241 14.9384C2.40848 15.0134 2.52038 15.0655 2.63961 15.0908C2.75883 15.1161 2.88225 15.1139 3.00049 15.0843L6.99019 14.0871L11.0006 16.0923C11.1719 16.178 11.3682 16.1995 11.554 16.1531L15.8318 15.0836C16.0056 15.0407 16.16 14.9408 16.2705 14.7999C16.381 14.6591 16.4411 14.4853 16.4414 14.3063V4.68129C16.4414 4.55936 16.4136 4.43903 16.36 4.32947C16.3065 4.2199 16.2288 4.12398 16.1326 4.04899ZM7.88585 4.90989L10.5595 6.24669V14.0777L7.88585 12.7409V4.90989ZM3.60807 5.31093L6.28168 4.64253V12.6106L3.60807 13.279V5.31093ZM14.8372 13.68L12.1636 14.3484V6.37703L14.8372 5.70863V13.68Z" fill="#252525" fill-opacity="0.6"/>
</svg>
